<?xml version="1.0" encoding="utf-8"?>
<!-- Generator: Adobe Illustrator 22.0.1, SVG Export Plug-In . SVG Version: 6.00 Build 0)  -->
<svg version="1.1" id="Layer_1" xmlns="http://www.w3.org/2000/svg" xmlns:xlink="http://www.w3.org/1999/xlink" x="0px" y="0px"
	 viewBox="0 0 300 300" style="enable-background:new 0 0 300 300;" xml:space="preserve">
<style type="text/css">
	.st0{fill:#FFFFFF;}
	.st1{fill:#008CFF;}
	.st2{fill:#DAC0A7;}
	.st3{fill:#084C7A;}
	.st4{fill:#E9CEB2;}
	.st5{fill:#F7F7F7;}
	.st6{fill:#57CBF5;}
	.st7{fill:#231F20;}
	.st8{fill:#575051;}
	.st9{opacity:0.76;}
	.st10{fill:none;stroke:#FFFFFF;stroke-width:0.5;stroke-miterlimit:10;}
	.st11{fill:#F2D5B7;}
	.st12{fill:#0082FF;}
	.st13{fill:#FF3232;}
	.st14{fill:#009628;}
	.st15{opacity:0.5;}
	.st16{fill:none;stroke:#FFFFFF;stroke-width:10;stroke-miterlimit:10;}
	.st17{opacity:0.5;fill:#084C7A;}
	.st18{fill:#35AB47;}
	.st19{fill:#00B4FF;}
	.st20{fill:#ABADAE;}
	.st21{fill:#FFFF00;}
	.st22{opacity:0.38;fill:#009628;}
	.st23{fill:#BD0000;}
	.st24{fill:#008CFF;stroke:#FFFFFF;stroke-width:3;stroke-miterlimit:10;}
	.st25{fill:#FFFFFF;stroke:#FFFFFF;stroke-miterlimit:10;}
	.st26{fill:#4379BC;}
	.st27{fill:#084C7A;stroke:#FFFFFF;stroke-width:3;stroke-miterlimit:10;}
	.st28{fill:#CBCCCE;}
	.st29{fill:#A4A5A8;}
	.st30{fill:#BABCBE;}
	.st31{fill:#9D9FA1;}
	.st32{fill:#F1F2F2;}
	.st33{fill:#FF0000;}
	.st34{opacity:0.38;fill:#CBCCCE;}
	.st35{fill:#FFBD00;}
	.st36{fill:url(#SVGID_3_);}
	.st37{fill:url(#SVGID_4_);}
	.st38{fill:#CFCFCD;}
	.st39{fill:#E6E7E8;}
	.st40{fill:url(#SVGID_5_);}
	.st41{fill:#85888A;}
	.st42{fill:#ACADB0;}
	.st43{fill:#FF9600;}
	.st44{opacity:0.5;fill:url(#SVGID_6_);}
	.st45{opacity:0.3;fill:#E9CEB2;}
	.st46{fill:url(#SVGID_7_);}
	.st47{fill:#231FFF;}
	.st48{fill:none;stroke:#231FFF;stroke-miterlimit:10;}
	.st49{fill:#D5D7D8;}
	.st50{fill:#4A494E;}
	.st51{fill:none;stroke:#29336F;stroke-miterlimit:10;}
	.st52{fill:#B3B5B8;}
	.st53{fill:#E5CAAF;}
	.st54{opacity:0.5;fill:#E9CEB2;}
	.st55{opacity:8.000000e-02;fill:#FFFFFF;}
	.st56{opacity:0.15;fill:#4A494E;}
	.st57{opacity:0.15;fill:#084C7A;}
	.st58{fill:#E5E6E6;}
	.st59{fill:none;}
	.st60{fill:url(#SVGID_8_);}
	.st61{fill:url(#SVGID_9_);}
	.st62{fill:url(#SVGID_10_);}
	.st63{fill:url(#SVGID_11_);}
	.st64{fill:url(#SVGID_12_);}
	.st65{fill:url(#SVGID_13_);}
	.st66{fill:url(#SVGID_14_);}
	.st67{fill:url(#SVGID_15_);}
	.st68{opacity:0.2;fill:#0059F3;}
	.st69{fill:url(#SVGID_16_);}
	.st70{opacity:0.1;fill:#FFFFFF;}
	.st71{opacity:0.1;fill:#005AC8;}
	.st72{fill:url(#SVGID_17_);}
	.st73{fill:url(#SVGID_18_);}
	.st74{fill:url(#SVGID_19_);}
	.st75{fill:url(#SVGID_20_);}
	.st76{fill:url(#SVGID_21_);}
	.st77{fill:url(#SVGID_22_);}
	.st78{fill:url(#SVGID_23_);}
	.st79{opacity:0.5;fill:url(#SVGID_24_);}
	.st80{fill:url(#SVGID_25_);}
	.st81{opacity:0.25;fill:#005AC8;}
	.st82{fill:url(#SVGID_26_);}
	.st83{fill:url(#SVGID_27_);}
	.st84{fill:#CDCFD0;}
	.st85{fill:url(#SVGID_28_);}
	.st86{fill:url(#SVGID_29_);}
	.st87{fill:url(#SVGID_30_);}
	.st88{fill:url(#SVGID_31_);}
	.st89{opacity:0.5;fill:url(#SVGID_32_);}
	.st90{fill:url(#SVGID_33_);}
	.st91{fill:url(#SVGID_34_);}
	.st92{fill:url(#SVGID_35_);}
	.st93{fill:url(#SVGID_36_);}
	.st94{fill:url(#SVGID_37_);}
	.st95{fill:url(#SVGID_38_);}
	.st96{fill:url(#SVGID_39_);}
	.st97{fill:url(#SVGID_40_);}
	.st98{fill:url(#SVGID_41_);}
	.st99{opacity:0.2;fill:#DEC0A4;}
	.st100{fill:url(#SVGID_42_);}
	.st101{opacity:0.25;fill:#DBBCA0;}
	.st102{opacity:0.86;fill:#E9CEB2;}
	.st103{fill:none;stroke:#000000;stroke-miterlimit:10;}
	.st104{fill:#656668;}
	.st105{fill:#C09E5E;}
	.st106{fill:#B09053;}
	.st107{fill:#956F48;}
	.st108{opacity:0.3;fill:#8F6E45;}
	.st109{fill:#C3A060;}
	.st110{fill:#946E47;}
	.st111{fill:#DCBC7C;}
	.st112{opacity:0.5;fill:#F6EDCE;}
	.st113{opacity:0.5;fill:#FFF6D7;}
	.st114{fill:#B19154;}
	.st115{fill:none;stroke:#231F20;stroke-miterlimit:10;}
	.st116{opacity:0.33;fill:#946E47;}
	.st117{fill:#00A0FF;}
	.st118{fill:#656869;}
	.st119{fill:#DADBDC;}
	.st120{fill:#828487;}
	.st121{opacity:0.2;fill:#828487;}
	.st122{fill:#444748;}
	.st123{fill:#6A6C6E;}
	.st124{opacity:0.4;fill:#DADBDC;}
	.st125{fill:#00AAF0;}
	.st126{fill:#00C8FF;}
	.st127{fill:#97999C;}
	.st128{fill:#00A9E9;}
	.st129{fill:#356598;}
	.st130{fill:#BCBEC0;}
	.st131{fill:#9B9DA0;}
	.st132{fill:#230000;}
	.st133{fill:#521409;}
	.st134{fill:#D63101;}
	.st135{fill:#00B6FF;stroke:#FFFFFF;stroke-width:3;stroke-miterlimit:10;}
	.st136{fill:#FF6464;}
	.st137{opacity:0.42;}
	.st138{fill:none;stroke:#FFFFFF;stroke-width:2;stroke-miterlimit:10;}
	.st139{fill:#00B400;}
	.st140{fill:none;stroke:#938473;stroke-width:3;stroke-miterlimit:10;}
	.st141{opacity:0.3;fill:#084C7A;}
	.st142{fill:#5F6062;}
	.st143{fill:#008CFF;stroke:#F7F7F7;stroke-width:25;stroke-miterlimit:10;}
	.st144{fill:none;stroke:#F1F2F2;stroke-width:10;stroke-miterlimit:10;}
	.st145{fill:#939598;}
	.st146{fill:#F8F8F8;}
	.st147{fill:#4CAF50;}
	.st148{fill:#EC2024;}
	.st149{fill:#3953A3;}
	.st150{fill:#00C896;}
	.st151{fill:#008CFF;stroke:#FFFFFF;stroke-width:5;stroke-miterlimit:10;}
	.st152{fill:#A7A9AC;}
	.st153{fill:#E2E2E7;}
	.st154{fill:#E0E0E0;}
	.st155{fill:url(#SVGID_55_);}
	.st156{fill:url(#SVGID_56_);}
	.st157{fill:url(#SVGID_57_);}
	.st158{fill:url(#SVGID_58_);}
	.st159{fill:url(#SVGID_59_);}
	.st160{fill:url(#SVGID_60_);}
	.st161{fill:url(#SVGID_61_);}
	.st162{fill:url(#SVGID_62_);}
	.st163{fill:url(#SVGID_63_);}
	.st164{fill:url(#SVGID_64_);}
</style>
<g>
	<linearGradient id="SVGID_2_" gradientUnits="userSpaceOnUse" x1="49.2428" y1="228.1578" x2="253.8567" y2="228.1578">
		<stop  offset="0" style="stop-color:#084C7A"/>
		<stop  offset="0.4568" style="stop-color:#084C7A"/>
		<stop  offset="0.5973" style="stop-color:#085E93"/>
		<stop  offset="0.7081" style="stop-color:#0870AA"/>
		<stop  offset="1" style="stop-color:#0870AA"/>
	</linearGradient>
	<path style="fill:url(#SVGID_2_);" d="M253.9,244v-38.6l-125-37.9H104l-54.8,20.4v37.3l0.1,0.1c-0.5,2.9,0.7,6.2,3.8,7.7L156.5,286
		c7.6,3.9,16.6,3.9,24.3,0l69.2-35.5C252.6,249.1,253.9,246.5,253.9,244z"/>
	<linearGradient id="SVGID_3_" gradientUnits="userSpaceOnUse" x1="41.3378" y1="204.3497" x2="261.7617" y2="204.3497">
		<stop  offset="0" style="stop-color:#8A8C8E"/>
		<stop  offset="0.4568" style="stop-color:#8A8C8E"/>
		<stop  offset="0.5973" style="stop-color:#D1D3D4"/>
		<stop  offset="0.7027" style="stop-color:#B1B3B6"/>
		<stop  offset="1" style="stop-color:#B1B3B6"/>
	</linearGradient>
	<path class="st36" d="M261.8,221.4v-41.6l-134.6-40.9h-26.8l-59,22v40.2l0.1,0.1c-0.6,3.2,0.8,6.6,4.1,8.3l111.3,57.2
		c8.2,4.2,17.9,4.2,26.1,0l74.5-38.3C260.4,226.9,261.8,224.2,261.8,221.4z"/>
	<linearGradient id="SVGID_4_" gradientUnits="userSpaceOnUse" x1="74.9337" y1="141.1113" x2="227.7422" y2="198.2444">
		<stop  offset="0" style="stop-color:#CCCCCC"/>
		<stop  offset="0.1823" style="stop-color:#D4D4D4"/>
		<stop  offset="0.6087" style="stop-color:#E1E1E1"/>
		<stop  offset="1" style="stop-color:#E6E6E6"/>
	</linearGradient>
	<path class="st37" d="M45.6,167.8L156.9,225c8.2,4.2,17.9,4.2,26.1,0l74.5-38.3c5.6-2.9,5.6-10.9,0-13.8l-120.8-62.1
		c-2.2-1.1-4.9-1.1-7.1,0L45.6,154C39.9,156.9,39.9,164.9,45.6,167.8z"/>
	<linearGradient id="SVGID_5_" gradientUnits="userSpaceOnUse" x1="161.7041" y1="172.2902" x2="71.921" y2="172.2902">
		<stop  offset="0" style="stop-color:#8F9194"/>
		<stop  offset="1" style="stop-color:#E6E7E8;stop-opacity:0"/>
	</linearGradient>
	<path class="st40" d="M164.1,188.1c0,0-92.8,6.2-94.7-17c-1.3-15.5,93-15.3,93-15.3L164.1,188.1z"/>
	<g>
		<linearGradient id="SVGID_6_" gradientUnits="userSpaceOnUse" x1="104.4775" y1="134.7773" x2="198.622" y2="134.7773">
			<stop  offset="0" style="stop-color:#A88D78"/>
			<stop  offset="1" style="stop-color:#DAB390"/>
		</linearGradient>
		<path style="fill:url(#SVGID_6_);" d="M195.3,160.5L195.3,160.5c-31.8-47.2-15-79.8-15-79.8h-28.7h-28.7c0,0,16.7,32.6-15,79.8
			l0,0c-2.1,2.4-3.3,4.9-3.3,7.6c0,11.4,21.1,20.7,47.1,20.7c26,0,47.1-9.3,47.1-20.7C198.6,165.5,197.4,162.9,195.3,160.5z"/>
		<linearGradient id="SVGID_7_" gradientUnits="userSpaceOnUse" x1="175.086" y1="88.0373" x2="175.086" y2="187.1081">
			<stop  offset="0" style="stop-color:#FFFFFF;stop-opacity:0.5"/>
			<stop  offset="1" style="stop-color:#FFFFFF;stop-opacity:0"/>
		</linearGradient>
		<path class="st46" d="M195.3,160.5L195.3,160.5c-0.4-0.6-0.7-1.1-1.1-1.7c-9.2-9-20.9-19.6-20.3-57.1c0.1-4.2,0.3-8.8,0.7-13.7
			l-12.4,6.1c0,0-0.3,2.3-0.5,6.2c-0.8,11.4-1.5,36.4,4.8,56.4c3.8,12,6.7,24.6-15,32c26,0,47.1-9.3,47.1-20.7
			C198.6,165.5,197.4,162.9,195.3,160.5z"/>
		<linearGradient id="SVGID_8_" gradientUnits="userSpaceOnUse" x1="104.4775" y1="133.8833" x2="133.0718" y2="133.8833">
			<stop  offset="0" style="stop-color:#DDBEA2;stop-opacity:0.45"/>
			<stop  offset="1" style="stop-color:#DEC0A4;stop-opacity:0.15"/>
		</linearGradient>
		<path class="st60" d="M119.7,152.1c3.5-8.9,7-17.3,9.5-26.7c3.2-12.2,4.9-26,3.2-44.6h-9.6c0,0,10.9,21.2-1.5,54.1
			c-3,7.9-7.3,16.6-13.5,25.7l0,0c-2.1,2.4-3.3,4.9-3.3,7.6c0,8.4,11.5,15.7,27.9,18.9h0C132.4,187.1,111.6,172.3,119.7,152.1z"/>
		<linearGradient id="SVGID_9_" gradientUnits="userSpaceOnUse" x1="121.2544" y1="107.7459" x2="180.244" y2="107.7459">
			<stop  offset="0" style="stop-color:#DFC2A6;stop-opacity:0.15"/>
			<stop  offset="1" style="stop-color:#E0C2A6;stop-opacity:0.7"/>
		</linearGradient>
		<path class="st61" d="M151.5,80.7h-19.1h-9.6c0,0,10.9,21.2-1.5,54.1l0,0c0,0,3.1-4.1,7.9-9.4c8.1-9,21.1-21.8,32.5-25
			c4.4-1.2,8.6-1,12.2,1.3c0.7,0.4,1.3,1,2,1.6l0,0c0.1-14.3,4.4-22.6,4.4-22.6H151.5z"/>
		<path class="st99" d="M165.7,180.2c-31.1-1.6-42.6-15.6-46.9-25.5c-1.7-3.9-2.3-7.1-2.4-8.7c-2.4,4.7-5.2,9.5-8.5,14.5l0,0
			c-2.1,2.4-3.3,4.9-3.3,7.6c0,8.4,11.5,15.7,27.9,18.9c5.8,1.1,12.3,1.8,19.1,1.8c16.1,0,30.3-3.6,38.8-9l0.5-0.8
			C181.3,180.3,172.9,180.6,165.7,180.2z"/>
	</g>
	<radialGradient id="SVGID_10_" cx="160.3037" cy="42.7389" r="49.3595" gradientUnits="userSpaceOnUse">
		<stop  offset="0" style="stop-color:#F1DDC3"/>
		<stop  offset="0.1966" style="stop-color:#EAD6BC"/>
		<stop  offset="0.4919" style="stop-color:#D6C1A9"/>
		<stop  offset="0.8475" style="stop-color:#B5A08A"/>
		<stop  offset="1" style="stop-color:#A58F7B"/>
	</radialGradient>
	<circle class="st62" cx="150.7" cy="53.3" r="42.2"/>
	<circle class="st70" cx="163.2" cy="42.7" r="18.4"/>
	<path class="st101" d="M117.6,32.9c0,0-2.7,31.4,20.2,41.5s40.8,6.2,40.8,6.2s-16.2,22.8-47.9,6.1C98.3,69.8,117.6,32.9,117.6,32.9
		z"/>
</g>
</svg>
