<?xml version="1.0" encoding="utf-8"?>
<!-- Generator: Adobe Illustrator 22.0.1, SVG Export Plug-In . SVG Version: 6.00 Build 0)  -->
<svg version="1.1" id="Layer_1" xmlns="http://www.w3.org/2000/svg" xmlns:xlink="http://www.w3.org/1999/xlink" x="0px" y="0px"
	 viewBox="0 0 500 500" style="enable-background:new 0 0 500 500;" xml:space="preserve">
<style type="text/css">
	.st0{fill:#FFFFFF;}
	.st1{fill:#008CFF;}
	.st2{fill:#DAC0A7;}
	.st3{fill:#084C7A;}
	.st4{fill:#E9CEB2;}
	.st5{fill:#F7F7F7;}
	.st6{fill:#57CBF5;}
	.st7{fill:#231F20;}
	.st8{fill:#575051;}
	.st9{opacity:0.76;}
	.st10{fill:none;stroke:#FFFFFF;stroke-width:0.5;stroke-miterlimit:10;}
	.st11{fill:#F2D5B7;}
	.st12{fill:#0082FF;}
	.st13{fill:#FF3232;}
	.st14{fill:#009628;}
	.st15{opacity:0.5;}
	.st16{fill:none;stroke:#FFFFFF;stroke-width:10;stroke-miterlimit:10;}
	.st17{opacity:0.5;fill:#084C7A;}
	.st18{fill:#35AB47;}
	.st19{fill:#00B4FF;}
	.st20{fill:#ABADAE;}
	.st21{fill:#FFFF00;}
	.st22{opacity:0.38;fill:#009628;}
	.st23{fill:#BD0000;}
	.st24{fill:#008CFF;stroke:#FFFFFF;stroke-width:3;stroke-miterlimit:10;}
	.st25{fill:#FFFFFF;stroke:#FFFFFF;stroke-miterlimit:10;}
	.st26{fill:#4379BC;}
	.st27{fill:#084C7A;stroke:#FFFFFF;stroke-width:3;stroke-miterlimit:10;}
	.st28{fill:#CBCCCE;}
	.st29{fill:#A4A5A8;}
	.st30{fill:#BABCBE;}
	.st31{fill:#9D9FA1;}
	.st32{fill:#F1F2F2;}
	.st33{fill:#FF0000;}
	.st34{opacity:0.38;fill:#CBCCCE;}
	.st35{fill:#FFBD00;}
	.st36{fill:url(#SVGID_3_);}
	.st37{fill:url(#SVGID_4_);}
	.st38{fill:#CFCFCD;}
	.st39{fill:#E6E7E8;}
	.st40{fill:url(#SVGID_5_);}
	.st41{fill:#85888A;}
	.st42{fill:#ACADB0;}
	.st43{fill:#FF9600;}
	.st44{opacity:0.5;fill:url(#SVGID_6_);}
	.st45{opacity:0.3;fill:#E9CEB2;}
	.st46{fill:url(#SVGID_7_);}
	.st47{fill:#231FFF;}
	.st48{fill:none;stroke:#231FFF;stroke-miterlimit:10;}
	.st49{fill:#D5D7D8;}
	.st50{fill:#4A494E;}
	.st51{fill:none;stroke:#29336F;stroke-miterlimit:10;}
	.st52{fill:#B3B5B8;}
	.st53{fill:#E5CAAF;}
	.st54{opacity:0.5;fill:#E9CEB2;}
	.st55{opacity:8.000000e-02;fill:#FFFFFF;}
	.st56{opacity:0.15;fill:#4A494E;}
	.st57{opacity:0.15;fill:#084C7A;}
	.st58{fill:#E5E6E6;}
	.st59{fill:none;}
	.st60{fill:url(#SVGID_8_);}
	.st61{fill:url(#SVGID_9_);}
	.st62{fill:url(#SVGID_10_);}
	.st63{fill:url(#SVGID_11_);}
	.st64{fill:url(#SVGID_12_);}
	.st65{fill:url(#SVGID_13_);}
	.st66{fill:url(#SVGID_14_);}
	.st67{fill:url(#SVGID_15_);}
	.st68{opacity:0.2;fill:#0059F3;}
	.st69{fill:url(#SVGID_16_);}
	.st70{opacity:0.1;fill:#FFFFFF;}
	.st71{opacity:0.1;fill:#005AC8;}
	.st72{fill:url(#SVGID_17_);}
	.st73{fill:url(#SVGID_18_);}
	.st74{fill:url(#SVGID_19_);}
	.st75{fill:url(#SVGID_20_);}
	.st76{fill:url(#SVGID_21_);}
	.st77{fill:url(#SVGID_22_);}
	.st78{fill:url(#SVGID_23_);}
	.st79{opacity:0.5;fill:url(#SVGID_24_);}
	.st80{fill:url(#SVGID_25_);}
	.st81{opacity:0.25;fill:#005AC8;}
	.st82{fill:url(#SVGID_26_);}
	.st83{fill:url(#SVGID_27_);}
	.st84{fill:#CDCFD0;}
	.st85{fill:url(#SVGID_28_);}
	.st86{fill:url(#SVGID_29_);}
	.st87{fill:url(#SVGID_30_);}
	.st88{fill:url(#SVGID_31_);}
	.st89{opacity:0.5;fill:url(#SVGID_32_);}
	.st90{fill:url(#SVGID_33_);}
	.st91{fill:url(#SVGID_34_);}
	.st92{fill:url(#SVGID_35_);}
	.st93{fill:url(#SVGID_36_);}
	.st94{fill:url(#SVGID_37_);}
	.st95{fill:url(#SVGID_38_);}
	.st96{fill:url(#SVGID_39_);}
	.st97{fill:url(#SVGID_40_);}
	.st98{fill:url(#SVGID_41_);}
	.st99{opacity:0.2;fill:#DEC0A4;}
	.st100{fill:url(#SVGID_42_);}
	.st101{opacity:0.25;fill:#DBBCA0;}
	.st102{opacity:0.86;fill:#E9CEB2;}
	.st103{fill:none;stroke:#000000;stroke-miterlimit:10;}
	.st104{fill:#656668;}
	.st105{fill:#C09E5E;}
	.st106{fill:#B09053;}
	.st107{fill:#956F48;}
	.st108{opacity:0.3;fill:#8F6E45;}
	.st109{fill:#C3A060;}
	.st110{fill:#946E47;}
	.st111{fill:#DCBC7C;}
	.st112{opacity:0.5;fill:#F6EDCE;}
	.st113{opacity:0.5;fill:#FFF6D7;}
	.st114{fill:#B19154;}
	.st115{fill:none;stroke:#231F20;stroke-miterlimit:10;}
	.st116{opacity:0.33;fill:#946E47;}
	.st117{fill:#00A0FF;}
	.st118{fill:#656869;}
	.st119{fill:#DADBDC;}
	.st120{fill:#828487;}
	.st121{opacity:0.2;fill:#828487;}
	.st122{fill:#444748;}
	.st123{fill:#6A6C6E;}
	.st124{opacity:0.4;fill:#DADBDC;}
	.st125{fill:#00AAF0;}
	.st126{fill:#00C8FF;}
	.st127{fill:#97999C;}
	.st128{fill:#00A9E9;}
	.st129{fill:#356598;}
	.st130{fill:#BCBEC0;}
	.st131{fill:#9B9DA0;}
	.st132{fill:#230000;}
	.st133{fill:#521409;}
	.st134{fill:#D63101;}
	.st135{fill:#00B6FF;stroke:#FFFFFF;stroke-width:3;stroke-miterlimit:10;}
	.st136{fill:#FF6464;}
	.st137{opacity:0.42;}
	.st138{fill:none;stroke:#FFFFFF;stroke-width:2;stroke-miterlimit:10;}
	.st139{fill:#00B400;}
	.st140{fill:none;stroke:#938473;stroke-width:3;stroke-miterlimit:10;}
	.st141{opacity:0.3;fill:#084C7A;}
	.st142{fill:#5F6062;}
	.st143{fill:#008CFF;stroke:#F7F7F7;stroke-width:25;stroke-miterlimit:10;}
	.st144{fill:none;stroke:#F1F2F2;stroke-width:10;stroke-miterlimit:10;}
	.st145{fill:#939598;}
	.st146{fill:#F8F8F8;}
	.st147{fill:#4CAF50;}
	.st148{fill:#EC2024;}
	.st149{fill:#3953A3;}
	.st150{fill:#00C896;}
	.st151{fill:#008CFF;stroke:#FFFFFF;stroke-width:5;stroke-miterlimit:10;}
	.st152{fill:#A7A9AC;}
	.st153{fill:#E2E2E7;}
	.st154{fill:#E0E0E0;}
	.st155{fill:url(#SVGID_55_);}
	.st156{fill:url(#SVGID_56_);}
	.st157{fill:url(#SVGID_57_);}
	.st158{fill:url(#SVGID_58_);}
	.st159{fill:url(#SVGID_59_);}
	.st160{fill:url(#SVGID_60_);}
	.st161{fill:url(#SVGID_61_);}
	.st162{fill:url(#SVGID_62_);}
	.st163{fill:url(#SVGID_63_);}
	.st164{fill:url(#SVGID_64_);}
</style>
<g>
	<path class="st0" d="M215.2,421.5v-4.6v-30.5c-23.4-6.5-44.4-15.3-62.5-30.6c-21.6-18.3-39-45.8-51.5-89.9H82.6
		c-6.5,0-11.8-5.3-11.8-11.8V113.6c0-6.5,5.3-11.8,11.8-11.8h70.2c6.5,0,11.8,5.3,11.8,11.8v23.8c22.8-6.4,28.6-46.6,98.1-57.8
		c74.7-12,111.7,46.5,111.7,46.5c58.5,6.4,31.3,97.1,31.3,97.1c-5.7-0.9-6.1,1.2-6.1,1.2l0,0c6.1-2.2,15.5-2.9,19.8,10.5
		c6.4,19.7-17.3,30.4-30,32c-9.9,24.1-33.6,43.2-63.6,51.5c-0.9,3.8-2.1,11.6,0.2,19.5c5.6-3,8.3-5.7,8.3-5.7
		c46.9,11.2,70.7,48.5,82.8,85.5l0,0c1.6,4.8,2.9,9.6,4.1,14.4C469.7,386.7,500,321.9,500,250C500,111.9,388.1,0,250,0
		C111.9,0,0,111.9,0,250c0,126.3,93.6,230.6,215.2,247.6v-76.2C215.2,421.4,215.2,421.4,215.2,421.5z"/>
	<path class="st0" d="M181.1,223.5c-4.6-25.5-2-59.3-2-59.3c-7-4.2-11.6-8.9-14.5-13.1v89.6c0.1-1.8,0.4-3.7,1-5.6
		C169,224.5,175.6,222.7,181.1,223.5z"/>
	<path class="st0" d="M378.8,432c-1.7-7.2-3.5-12.5-5.2-16.3c-1.2-2.8-5.4-1.9-5.4,1.1v4.5l0,0v49c5.2-2.8,10.3-5.8,15.2-8.9
		C382.3,449.2,380.6,439.5,378.8,432L378.8,432z"/>
	<path class="st0" d="M257.8,318.6c-30.2-8.4-53.9-27.6-63.7-51.8c-11.6-2-29.9-10.6-29.5-25.8v13c0,3.8-1.8,7.2-4.6,9.3
		c5.2,19.1,14,33,24.1,43c27.7,27.5,65.2,26,65.2,26s2.7,2.7,8.3,5.7C259.9,330.2,258.7,322.3,257.8,318.6z"/>
	<path class="st4" d="M194.1,266.8c-2.7-6.7-4.4-13.7-4.8-21c-3.9-5.1-6.5-13.2-8.1-22.4c-5.6-0.7-12.1,1.1-15.5,11.6
		c-0.6,2-1,3.8-1,5.6v0.3C164.2,256.2,182.5,264.8,194.1,266.8z"/>
	<path class="st4" d="M394.4,239.7v2.1c0,8.8-1.8,17.3-5.1,25.3c12.8-1.6,36.4-12.3,30-32c-4.3-13.4-13.8-12.6-19.8-10.5
		C399,232.8,396.7,237.9,394.4,239.7z"/>
	<path class="st2" d="M309.3,330.4c-19.9,8-46-10.4-46-10.4s0,0,0,0c-1.9-0.4-3.7-0.9-5.6-1.4c0.9,3.8,2.1,11.6-0.2,19.5
		c6.9,3.6,18.1,7.7,34.2,7.7c16.1,0,27.3-4.1,34.2-7.7c-2.3-7.9-1.1-15.7-0.2-19.5c-0.3,0.1-0.7,0.2-1,0.3
		C322.8,322.4,318.5,326.7,309.3,330.4z"/>
	<path class="st2" d="M263.3,320C263.3,320,263.3,320,263.3,320c0,0,26,18.4,45.9,10.4c9.2-3.7,13.5-8,15.4-11.5
		c-10.3,2.8-21.4,4.3-32.9,4.3C281.9,323.2,272.4,322,263.3,320z"/>
	<path class="st54" d="M263.3,320C263.3,320,263.3,320,263.3,320c0,0,26,18.4,45.9,10.4c9.2-3.7,13.5-8,15.4-11.5
		c-10.3,2.8-21.4,4.3-32.9,4.3C281.9,323.2,272.4,322,263.3,320z"/>
	<path class="st4" d="M393.7,240.1c-0.8,0.4-1.6,0.4-2.3,0c-2.9-1.7,5.1-11.9-15.8-35.7c-23.1-26.3-13.5-50.2-13.5-50.2
		s-3.3-2.6-12.9,0.1c-9.9,8.7-54.9,45.5-99.6,40.7c-16.7-1.8-28.2-4.2-36-6.7c-9.5,11.4-17.6,32-17.1,46.6c0.4,10.9-1.4,13.7-3.1,14
		l4.7,18.5c-1.2,0-2.6-0.2-4-0.5c9.8,24.2,33.6,43.4,63.7,51.8c-0.3-1.4-0.6-2.3-0.6-2.3h16.5c4.7-1.7,9.3-3.4,9.5-3.7
		c0.5-0.5,42.8-0.9,42.8-0.9s0.5,1.8-0.2,4.6h0.6c0,0-0.3,0.9-0.6,2.3c30.1-8.4,53.7-27.5,63.6-51.5c-0.9,0.1-1.7,0.2-2.4,0.2
		L393.7,240.1z M285.5,296.3c-10.6,0-19.2-8.6-19.2-19.2h38.4C304.7,287.7,296.1,296.3,285.5,296.3z"/>
	<path class="st4" d="M190.8,247.6c-0.5-0.5-1-1.1-1.5-1.8c0.4,7.3,2.1,14.3,4.8,21c1.5,0.3,2.8,0.4,4,0.5l-4.7-18.5
		C192.1,249,190.8,247.6,190.8,247.6z"/>
	<path class="st4" d="M394.4,239.7c-0.2,0.2-0.4,0.3-0.6,0.4l-6.8,27.2c0.7,0,1.6-0.1,2.4-0.2c3.3-8,5.1-16.4,5.1-25.3V239.7z"/>
	<path class="st4" d="M273.6,316.3h-16.5c0,0,0.3,0.9,0.6,2.3c1.8,0.5,3.7,1,5.6,1.4C263.8,319.8,268.8,318.1,273.6,316.3z"/>
	<path class="st4" d="M325.8,316.3c-0.2,0.8-0.6,1.7-1.1,2.6c0.3-0.1,0.7-0.2,1-0.3c0.3-1.4,0.6-2.3,0.6-2.3H325.8z"/>
	<path class="st4" d="M325.8,316.3c0.8-2.7,0.2-4.6,0.2-4.6s-42.3,0.4-42.8,0.9c-0.3,0.3-4.8,2-9.5,3.7h18.1H325.8z"/>
	<path class="st4" d="M291.7,323.2c11.5,0,22.6-1.5,32.9-4.3c0.5-0.9,0.8-1.8,1.1-2.6h-34h-18.1c-4.9,1.8-9.9,3.5-10.3,3.7
		C272.4,322,281.9,323.2,291.7,323.2z"/>
	<path class="st4" d="M417,417.9c-7.3,5.2-19.9,12-38.1,14.1v0l0,0c1.8,7.5,3.5,17.2,4.7,29.4c13.5-8.5,26-18.3,37.6-29.1
		C419.9,427.5,418.5,422.7,417,417.9z"/>
	<path class="st4" d="M224.1,180.2c-3.5,1-7.1,3.9-10.6,8c7.8,2.5,19.2,4.9,36,6.7c44.8,4.8,89.7-32,99.6-40.7
		c-5.8,1.6-13.9,5.1-24.9,12.3C295,185.4,224.1,180.2,224.1,180.2z"/>
	<path class="st54" d="M224.1,180.2c-3.5,1-7.1,3.9-10.6,8c7.8,2.5,19.2,4.9,36,6.7c44.8,4.8,89.7-32,99.6-40.7
		c-5.8,1.6-13.9,5.1-24.9,12.3C295,185.4,224.1,180.2,224.1,180.2z"/>
	<path class="st50" d="M179.1,164.2c0,0-2.5,33.8,2,59.3c3.2,0.4,6.2,1.7,8,2.7v-62c-16.2-6.9-20.6-14.1-21.8-18
		c-0.4-1.1,0.8-2.2,1.9-1.7c5.8,2.7,22.1,9.9,44,15.9h40.8l16.9-3.2l39.1-2.3v-14.1h65.4c2.4-3.9,6.4-6.6,12.8-4.5
		c15.6,5.2,23.7,41.7,14.5,45.2c-2.2,0.8-5.1,0.6-8.2-0.4v46c0.8-0.5,2.7-1.6,5.1-2.5l0,0c0,0,0.4-2.1,6.1-1.2
		c0,0,27.2-90.7-31.3-97.1c0,0-36.9-58.5-111.7-46.5c-69.5,11.2-75.3,51.4-98.1,57.8v13.6C167.6,155.3,172.1,160,179.1,164.2z
		 M181.2,139.4c5.3-2.9,8.8-10.1,31.8-31.3c19.8-18.2,55-20.4,77.4-19.7c3,0.1,3.7,4.2,0.9,5.3c-30.6,11.7-58.7,47-78.7,51.7
		c-14.2,3.3-24.8,1.3-31.2-1C179.2,143.6,179,140.6,181.2,139.4z"/>
	<polygon class="st50" points="394.7,236.4 394.4,232.6 394.4,237.6 	"/>
	<path class="st50" d="M189.1,241.8v-15.6c-1.8-1-4.7-2.2-8-2.7c1.6,9.2,4.2,17.3,8.1,22.4C189.2,244.5,189.1,243.1,189.1,241.8z"/>
	<path class="st50" d="M394.4,232.6l0.3,3.8l-0.3,1.1v2.1c2.3-1.7,4.7-6.9,5.1-15.1c-2.5,0.9-4.4,2-5.1,2.5V232.6z"/>
	<path class="st50" d="M190.3,236.4l3.1,12.4c1.7-0.3,3.4-3.1,3.1-14c-0.5-14.6,7.6-35.2,17.1-46.6c-15.8-5-16.8-10.1-16.8-10.1
		l14.6-6.9c-9.2-2.2-16.5-4.6-22.3-7.1v62c1.2,0.6,1.9,1.1,1.9,1.1L190.3,236.4z"/>
	<path class="st50" d="M254.1,160.4h-40.8c5.7,1.6,11.7,3.1,18.1,4.4L254.1,160.4z"/>
	<path class="st50" d="M349.2,154.2c9.6-2.7,12.9-0.1,12.9-0.1s-9.5,23.9,13.5,50.2c20.9,23.8,12.9,34,15.8,35.7
		c0.7,0.4,1.5,0.4,2.3,0l0.6-2.5v-5l-0.4-5.3c0,0,0.1-0.1,0.4-0.3v-46c-10.2-3.4-23-15.2-22.8-26.6c0,0,0.3-8.1,3.8-13.7H310v14.1
		l41.2-2.5C351.2,152.3,350.5,153,349.2,154.2z"/>
	<path class="st50" d="M189.2,245.8c0.5,0.6,1,1.2,1.5,1.8c0,0,1.3,1.4,2.7,1.2l-3.1-12.4l0.7-9.2c0,0-0.7-0.5-1.9-1.1v15.6
		C189.1,243.1,189.2,244.5,189.2,245.8z"/>
	<path class="st50" d="M394.4,239.7v-2.1l-0.6,2.5C394,240,394.2,239.8,394.4,239.7z"/>
	<path class="st50" d="M394.4,232.6V227c-0.3,0.2-0.4,0.3-0.4,0.3L394.4,232.6z"/>
	<polygon class="st50" points="310,154.8 270.9,157.2 254.1,160.4 310,160.4 	"/>
	<path class="st50" d="M300.5,168.8c1.7-0.2,2.2,2.3,0.5,2.7c-17.2,4.6-47.5,9.1-86.2,0.5c-1.1-0.3-2.3-0.5-3.3-0.8l-14.6,6.9
		c0,0,0.9,5.1,16.8,10.1c3.4-4.1,7.1-7.1,10.6-8c0,0,70.9,5.3,100.1-13.7c11-7.1,19.1-10.7,24.9-12.3c1.3-1.2,2-1.8,2-1.8l-41.2,2.5
		v5.6h-55.9l-22.8,4.4C252.2,169.1,276.2,171.6,300.5,168.8z"/>
	<path class="st50" d="M382,160.4h12.4V181c3.2,1,6.1,1.3,8.2,0.4c9.2-3.6,1.2-40-14.5-45.2c-6.4-2.1-10.4,0.6-12.8,4.5h6.6V160.4z"
		/>
	<path class="st55" d="M382,160.4h12.4V181c3.2,1,6.1,1.3,8.2,0.4c9.2-3.6,1.2-40-14.5-45.2c-6.4-2.1-10.4,0.6-12.8,4.5h6.6V160.4z"
		/>
	<path class="st50" d="M394.4,181v-20.6H382v-19.7h-6.6c-3.5,5.6-3.8,13.7-3.8,13.7C371.4,165.9,384.2,177.7,394.4,181z"/>
	<path class="st55" d="M394.4,181v-20.6H382v-19.7h-6.6c-3.5,5.6-3.8,13.7-3.8,13.7C371.4,165.9,384.2,177.7,394.4,181z"/>
	<path class="st50" d="M181.5,144.5c6.4,2.3,17,4.3,31.2,1c19.9-4.7,48.1-40.1,78.7-51.7c2.8-1.1,2.1-5.2-0.9-5.3
		C268,87.7,232.8,90,213,108.1c-23,21.2-26.5,28.4-31.8,31.3C179,140.6,179.2,143.6,181.5,144.5z"/>
	<path class="st55" d="M181.5,144.5c6.4,2.3,17,4.3,31.2,1c19.9-4.7,48.1-40.1,78.7-51.7c2.8-1.1,2.1-5.2-0.9-5.3
		C268,87.7,232.8,90,213,108.1c-23,21.2-26.5,28.4-31.8,31.3C179,140.6,179.2,143.6,181.5,144.5z"/>
	<path class="st50" d="M213.2,160.4c-21.9-6-38.2-13.2-44-15.9c-1.1-0.5-2.3,0.5-1.9,1.7c1.2,3.8,5.6,11.1,21.8,18v-3.7H213.2z"/>
	<path class="st56" d="M213.2,160.4c-21.9-6-38.2-13.2-44-15.9c-1.1-0.5-2.3,0.5-1.9,1.7c1.2,3.8,5.6,11.1,21.8,18v-3.7H213.2z"/>
	<path class="st50" d="M220.8,166.8l10.5-2c-6.4-1.3-12.4-2.8-18.1-4.4h-24.1v3.7c5.8,2.5,13.1,4.9,22.3,7.1L220.8,166.8z"/>
	<path class="st56" d="M220.8,166.8l10.5-2c-6.4-1.3-12.4-2.8-18.1-4.4h-24.1v3.7c5.8,2.5,13.1,4.9,22.3,7.1L220.8,166.8z"/>
	<path class="st50" d="M301,171.5c1.7-0.4,1.2-2.9-0.5-2.7c-24.3,2.8-48.3,0.3-69.2-4l-10.5,2l-9.4,4.4c1.1,0.3,2.2,0.5,3.3,0.8
		C253.5,180.6,283.8,176.1,301,171.5z"/>
	<path class="st56" d="M301,171.5c1.7-0.4,1.2-2.9-0.5-2.7c-24.3,2.8-48.3,0.3-69.2-4l-10.5,2l-9.4,4.4c1.1,0.3,2.2,0.5,3.3,0.8
		C253.5,180.6,283.8,176.1,301,171.5z"/>
	<polygon class="st0" points="368.3,421.4 368.3,470.3 368.3,470.3 368.3,421.4 	"/>
	<polygon class="st57" points="368.3,421.4 368.3,470.3 368.3,470.3 368.3,421.4 	"/>
	<path class="st125" d="M334.2,332.4c0,0-2.7,2.7-8.3,5.7c0.9,2.9,2.2,5.7,4.2,8.4l-38.3,7.5l-38.3-7.5c2-2.7,3.3-5.5,4.2-8.4
		c-5.6-3-8.3-5.7-8.3-5.7s-37.5,1.5-65.2-26c-1,7-4.1,21.4-13.4,33.9c0,0,0,0,0,0c9.3,8.3,18.2,15,25.3,19.1
		c21.3,12.2,19.2,26.9,19.2,26.9c-23.4-6.5-44.4-15.3-62.5-30.6c0,0,0,0,0,0c0,0,0,0,0,0c18.1,15.3,39.1,24.1,62.5,30.6v30.5v4.6
		c0.7,2.9,14.5,61.3,43.2,78.4c29.8-1,58.2-7.2,84.5-17.7c17.2-24.6,25.4-60.8,25.4-60.8v-4.5c0-3,4.2-3.9,5.4-1.1
		c1.6,3.8,3.5,9.1,5.2,16.3c18.2-2.1,30.9-8.9,38.1-14.1l0,0l0,0C404.9,380.9,381.1,343.6,334.2,332.4z"/>
	<path class="st125" d="M257.6,338.1c-0.9,2.9-2.2,5.7-4.2,8.4l38.3,7.5l38.3-7.5c-2-2.7-3.3-5.5-4.2-8.4
		c-6.9,3.6-18.1,7.7-34.2,7.7C275.7,345.8,264.4,341.7,257.6,338.1z"/>
	<path class="st125" d="M378.8,432L378.8,432c18.2-2.1,30.9-8.9,38.1-14.1l0,0C409.7,423.1,397.1,429.9,378.8,432z"/>
	<path class="st125" d="M368.3,470.3v-49c0,0-8.2,36.2-25.4,60.8C351.6,478.7,360.1,474.7,368.3,470.3z"/>
	<path class="st4" d="M152.8,265.8h-37.1c2.5,4.1,5,8.8,7.4,14c9.5,21,29.2,43.9,47.6,60.4c9.3-12.4,12.4-26.9,13.4-33.9
		c-10.1-10-18.9-23.8-24.1-43C158,264.9,155.5,265.8,152.8,265.8z"/>
	<path class="st4" d="M101.3,265.8L101.3,265.8c12.5,44.1,29.9,71.6,51.5,89.9c0,0,0,0,0,0C131.2,337.4,113.8,309.9,101.3,265.8z"/>
	<path class="st125" d="M152.7,355.7C152.7,355.7,152.8,355.7,152.7,355.7c18.1,15.3,39.1,24.1,62.5,30.6c0,0,2.1-14.7-19.2-26.9
		c-7.1-4.1-16.1-10.8-25.3-19.1c0,0,0,0,0,0C166.3,346.2,160.4,351.7,152.7,355.7z"/>
	<path class="st54" d="M152.7,355.7C152.7,355.7,152.8,355.7,152.7,355.7c18.1,15.3,39.1,24.1,62.5,30.6c0,0,2.1-14.7-19.2-26.9
		c-7.1-4.1-16.1-10.8-25.3-19.1c0,0,0,0,0,0C166.3,346.2,160.4,351.7,152.7,355.7z"/>
	<path class="st4" d="M123.1,279.8c-2.4-5.2-4.8-9.9-7.4-14h-14.4c12.5,44.1,29.9,71.6,51.5,89.9c7.7-4,13.5-9.5,17.9-15.5
		C152.3,323.7,132.5,300.8,123.1,279.8z"/>
	<path class="st54" d="M123.1,279.8c-2.4-5.2-4.8-9.9-7.4-14h-14.4c12.5,44.1,29.9,71.6,51.5,89.9c7.7-4,13.5-9.5,17.9-15.5
		C152.3,323.7,132.5,300.8,123.1,279.8z"/>
	<path class="st0" d="M215.2,421.5c0-0.1,0-0.1,0-0.1v76.2c0,0,0,0,0,0V421.5z"/>
	<path class="st57" d="M215.2,421.5c0-0.1,0-0.1,0-0.1v76.2c0,0,0,0,0,0V421.5z"/>
	<path class="st125" d="M215.2,421.5v76.1c11.4,1.6,23,2.4,34.8,2.4c2.8,0,5.6-0.1,8.4-0.2C229.7,482.8,215.9,424.4,215.2,421.5z"/>
	<path class="st57" d="M215.2,421.5v76.1c11.4,1.6,23,2.4,34.8,2.4c2.8,0,5.6-0.1,8.4-0.2C229.7,482.8,215.9,424.4,215.2,421.5z"/>
	<path class="st104" d="M285.5,296.3c10.6,0,19.2-8.6,19.2-19.2h-38.4C266.3,287.7,274.9,296.3,285.5,296.3z"/>
	<path d="M96.2,246H76.8V110.9h81.7V246h-3.2c1.2,4.4,2.5,9.2,3.7,14.2c0.3,1.1,0.5,2.1,0.8,3.1c2.8-2.2,4.6-5.5,4.6-9.3v-13
		c0-0.1,0-0.2,0-0.3v-89.6c-5-7-5.5-12.8-5.5-12.8c1.9-0.1,3.7-0.4,5.5-0.9v-23.8c0-6.5-5.3-11.8-11.8-11.8H82.6
		c-6.5,0-11.8,5.3-11.8,11.8V254c0,6.5,5.3,11.8,11.8,11.8h18.6c-0.8-2.8-1.6-5.6-2.3-8.5C97.9,253.3,97,249.5,96.2,246z
		 M105.4,105.6c0-0.1,0.1-0.2,0.2-0.2h24.3c0.1,0,0.2,0.1,0.2,0.2v0.9c0,0.1-0.1,0.2-0.2,0.2h-24.3c-0.1,0-0.2-0.1-0.2-0.2V105.6z"
		/>
	<path d="M164.6,241v-0.3C164.6,240.8,164.6,240.9,164.6,241z"/>
	<path d="M164.6,151.1v-13.6c-1.7,0.5-3.5,0.8-5.5,0.9C159.1,138.3,159.6,144.1,164.6,151.1z"/>
	<circle cx="117.7" cy="255.6" r="4.8"/>
	<path d="M115.7,265.8h37.1c2.7,0,5.2-0.9,7.1-2.4c-0.3-1-0.6-2.1-0.8-3.1c-1.2-5.1-2.5-9.8-3.7-14.2H98.1
		C104,250.1,110,256.6,115.7,265.8z M117.7,249.3c3.5,0,6.3,2.8,6.3,6.3c0,3.5-2.8,6.3-6.3,6.3c-3.5,0-6.3-2.8-6.3-6.3
		C111.4,252.1,114.2,249.3,117.7,249.3z"/>
	<path d="M99,257.3c-1-4-1.9-7.7-2.7-11.3h0C97,249.5,97.9,253.3,99,257.3c0.7,2.9,1.5,5.7,2.3,8.5h0C100.5,263,99.7,260.2,99,257.3
		z"/>
	<path d="M98.1,246h-1.8c0.8,3.6,1.7,7.3,2.7,11.3c0.7,2.9,1.5,5.7,2.3,8.5h14.4C110,256.6,104,250.1,98.1,246z"/>
	<path class="st0" d="M92.3,211.8h-5.7v-62h62v62h-5.2c4,8.6,7.9,19.8,11.9,34.2h3.2V110.9H76.8V246h19.4
		C93,231.4,91.8,220.3,92.3,211.8z"/>
	<path class="st0" d="M98.1,246h57.3c-4-14.4-7.9-25.6-11.9-34.2H92.3c-0.6,8.5,0.7,19.6,3.9,34.2h0c-0.1-0.5-0.2-1-0.3-1.4
		C96.6,245,97.4,245.5,98.1,246z"/>
	<path class="st0" d="M95.9,244.6c0.1,0.5,0.2,0.9,0.3,1.4h1.8C97.4,245.5,96.6,245,95.9,244.6z"/>
	<path class="st0" d="M129.8,106.6c0.1,0,0.2-0.1,0.2-0.2v-0.9c0-0.1-0.1-0.2-0.2-0.2h-24.3c-0.1,0-0.2,0.1-0.2,0.2v0.9
		c0,0.1,0.1,0.2,0.2,0.2H129.8z"/>
	<path class="st0" d="M117.7,261.9c3.5,0,6.3-2.8,6.3-6.3c0-3.5-2.8-6.3-6.3-6.3c-3.5,0-6.3,2.8-6.3,6.3
		C111.4,259.1,114.2,261.9,117.7,261.9z M117.7,250.8c2.6,0,4.8,2.2,4.8,4.8c0,2.6-2.2,4.8-4.8,4.8s-4.8-2.2-4.8-4.8
		C112.9,252.9,115.1,250.8,117.7,250.8z"/>
	<path class="st0" d="M93.4,204.7c0.8-3.2,2-5.9,3.5-8.1c0-0.6,0-1.2,0-1.9c0.5,0,1,0,1.5,0c1.3-1.4,2.7-2.6,4.4-3.5
		c-3.1,0-6.2,0-9.3,0C93.4,195.7,93.4,200.2,93.4,204.7z"/>
	<path class="st0" d="M107.3,156.5c-4.7,0-9.3,0-13.9,0c0,4.6,0,9.2,0,13.9c4.7,0,9.3,0,13.9,0C107.3,165.7,107.3,161.1,107.3,156.5
		z M103.7,166.8c-2.3,0-4.5,0-6.9,0c0-2.3,0-4.6,0-6.8c2.3,0,4.6,0,6.9,0C103.7,162.2,103.7,164.5,103.7,166.8z"/>
	<path class="st0" d="M121.2,184.2C121.2,184.2,121.2,184.2,121.2,184.2c0-1.1,0-2.3,0-3.5c-1.2,0-2.3,0-3.5,0c0-1.2,0-2.3,0-3.4
		c0,0,0,0,0,0c0,0,0,0,0,0c-1.2,0-2.3,0-3.5,0c0,0,0,0,0,0c0,0,0,0,0,0c0,2.3,0,4.6,0,6.9c0,0,0,0,0,0c0,0,0,0,0,0
		C116.6,184.3,118.9,184.3,121.2,184.2C121.2,184.3,121.2,184.2,121.2,184.2z"/>
	<path class="st0" d="M148.7,149.8h-62v62h5.7c0.1-1.1,0.2-2.2,0.3-3.2c-0.9,0-1.8,0-2.7,0c0-6.9,0-13.8,0-20.8c6.9,0,13.9,0,20.8,0
		c0,0.1,0,0.3,0,0.4c1-0.2,2.1-0.4,3.2-0.6c0.1,0,0.2,0,0.3,0c0-1.1,0-2.2,0-3.3c0,0,0,0,0,0c0,0,0,0,0,0c-2.3,0-4.6,0-6.9,0
		c0-1.1,0-2.3,0-3.4c1.1,0,2.2,0,3.4,0c0-1.2,0-2.3,0-3.5c1.2,0,2.3,0,3.5,0c0,0,0,0,0,0c0,0,0,0,0,0c0-1.1,0-2.3,0-3.4
		c1.2,0,2.3,0,3.5,0c0,0,0,0,0,0c0,0,0,0,0,0c0-2.3,0-4.6,0-6.9c1.2,0,2.3,0,3.4,0c0,2.3,0,4.5,0,6.9c-1.1,0-2.3,0-3.4,0
		c0,0,0,0,0,0l0,0c0,0,0,0,0,0c0,0,0,0,0,0c0,1.1,0,2.3,0,3.4c0,0,0,0,0,0c0,0,0,0,0,0c3.4,0,6.9,0,10.4,0c0,2.3,0,4.6,0,6.9
		c-2.3,0-4.6,0-6.9,0c0,0,0,0,0,0c0,0,0,0,0,0c0,1.2,0,2.4,0,3.5c1.2,0.2,2.4,0.6,3.5,1.1c0-0.4,0-0.7,0-1.1c1.1,0,2.3,0,3.5,0
		c0-1.2,0-2.3,0-3.5c2.3,0,4.6,0,6.9,0c0,2.3,0,4.6,0,6.9c-2.1,0-4.2,0-6.3,0c1.4,1,2.7,2.2,4.1,3.6c1.9,0,3.8,0,5.7,0
		c0,1.1,0,2.2,0,3.4c-0.9,0-1.9,0-2.9,0c1,1.3,2,2.8,3,4.3c0-1.4,0-2.8,0-4.2c1.1,0,2.2,0,3.4,0c0,1.1,0,2.3,0,3.4
		c1.2,0,2.3,0,3.4,0c0,2.3,0,4.6,0,6.9c-1.2,0-2.3,0-3.5,0c0.5,1,1,2.1,1.6,3.2h5.2V149.8z M100.3,184.2c-3.4,0-6.9,0-10.3,0
		c0-2.3,0-4.5,0-6.9c2.3,0,4.5,0,6.9,0c0,1.1,0,2.2,0,3.4c1.2,0,2.3,0,3.5,0C100.3,182,100.3,183.1,100.3,184.2z M107.2,180.7
		c-2.3,0-4.6,0-6.9,0c0-1.1,0-2.2,0-3.4c2.3,0,4.6,0,6.9,0C107.2,178.5,107.2,179.6,107.2,180.7z M110.7,173.8c-6.9,0-13.8,0-20.8,0
		c0-6.9,0-13.8,0-20.8c6.9,0,13.8,0,20.8,0C110.7,159.9,110.7,166.8,110.7,173.8z M121.1,163.4c-1.1,0-2.2,0-3.4,0
		c0,1.2,0,2.3,0,3.5c-1.2,0-2.3,0-3.4,0c0-4.6,0-9.2,0-13.8c1.1,0,2.3,0,3.4,0c0,1.1,0,2.3,0,3.4c1.2,0,2.3,0,3.5,0
		C121.1,158.8,121.1,161,121.1,163.4z M124.7,173.8c0-6.9,0-13.8,0-20.8c6.9,0,13.8,0,20.8,0c0,6.9,0,13.8,0,20.8
		C138.6,173.8,131.7,173.8,124.7,173.8z M145.5,194.6c-1.1,0-2.3,0-3.4,0c0-1.1,0-2.3,0-3.4c-1.2,0-2.3,0-3.4,0c0-1.2,0-2.3,0-3.4
		c2.3,0,4.6,0,6.9,0C145.5,190.1,145.5,192.3,145.5,194.6z M145.5,184.2c-2.3,0-4.6,0-6.9,0c0-1.1,0-2.3,0-3.4c-2.3,0-4.6,0-6.9,0
		c0-1.2,0-2.3,0-3.4c4.6,0,9.2,0,13.8,0C145.5,179.7,145.5,181.9,145.5,184.2z"/>
	<path class="st0" d="M128.1,170.4c4.6,0,9.3,0,13.9,0c0-4.7,0-9.3,0-13.9c-4.6,0-9.3,0-13.9,0C128.1,161.1,128.1,165.7,128.1,170.4
		z M131.7,160c2.3,0,4.5,0,6.8,0c0,2.3,0,4.6,0,6.9c-2.3,0-4.5,0-6.8,0C131.7,164.5,131.7,162.3,131.7,160z"/>
	<path class="st0" d="M98.4,194.8c1.8,0,3.6,0,5.4,0c0,2.3,0,4.5,0,6.8c-2.3,0-4.6,0-6.9,0c0-1.7,0-3.3,0-5
		c-1.5,2.2-2.7,4.9-3.5,8.1c0,0.2,0,0.3,0,0.5c4.6,0,9.2,0,13.9,0c0-4.7,0-9.3,0-13.9c-1.5,0-3,0-4.6,0
		C101.1,192.2,99.6,193.4,98.4,194.8z"/>
	<path class="st0" d="M138.6,208.6c0-2,0-4.1,0-6.1c-1-1.6-2-3-3-4.3c-1.3,0-2.6,0-4,0c0-1.1,0-2.2,0-3.4c0.4,0,0.8,0,1.2,0
		c-1.3-1.4-2.7-2.6-4.1-3.6c-1.4,0-2.7,0-4.1,0c0-0.8,0-1.5,0-2.3c-1.2-0.5-2.3-0.8-3.5-1.1c0,1.1,0,2.2,0,3.4c-2.3,0-4.6,0-6.9,0
		c0-1.2,0-2.4,0-3.6c-0.1,0-0.2,0-0.3,0c-1.1,0.2-2.2,0.4-3.2,0.6c0,6.8,0,13.6,0,20.4c-6,0-12,0-18.1,0c-0.1,1-0.2,2.1-0.3,3.2
		h51.2c-0.5-1.1-1-2.2-1.6-3.2C140.9,208.6,139.8,208.6,138.6,208.6z M121.2,191.3c1.1,0,2.2,0,3.4,0c0,1.1,0,2.2,0,3.4
		c-1.1,0-2.2,0-3.4,0C121.2,193.5,121.2,192.4,121.2,191.3z M128.1,208.6c-2.3,0-4.5,0-6.9,0c0-0.2,0-0.3,0-0.5c0-1.9,0-3.9,0-5.8
		c0-0.2,0-0.4,0-0.5c0,0,0,0,0,0l0,0c0,0,0,0,0,0c0,0,0,0,0,0c-1.1,0-2.3,0-3.4,0c0,0,0,0,0,0l0,0c0,0,0,0,0,0c0,0,0,0,0,0
		c0,2.1,0,4.2,0,6.3c0,0.2,0,0.4,0,0.6c-1.2,0-2.3,0-3.4,0c0-2.3,0-4.6,0-6.9c1.1,0,2.3,0,3.4,0c0,0,0,0,0,0c0,0,0,0,0,0
		c0-1.1,0-2.3,0-3.5c-1.2,0-2.3,0-3.4,0c0-1.2,0-2.3,0-3.4c2.3,0,4.6,0,6.9,0c0,2.3,0,4.6,0,6.9c0,0,0,0,0,0c0,0,0,0,0,0
		c1.3,0,2.6,0,4,0c1,0,1.9,0,3,0C128.1,204,128.1,206.3,128.1,208.6z M128.1,198.1c-1.1,0-2.2,0-3.4,0c0-1.1,0-2.2,0-3.4
		c1.1,0,2.2,0,3.4,0C128.1,195.9,128.1,197,128.1,198.1z M131.6,201.6c-1.1,0-2.2,0-3.4,0c0-1.1,0-2.3,0-3.4c1.1,0,2.2,0,3.4,0
		C131.6,199.3,131.6,200.5,131.6,201.6z M135,208.6c-1.1,0-2.2,0-3.4,0c0-2.3,0-4.6,0-6.9c1.1,0,2.2,0,3.4,0
		C135,204,135,206.3,135,208.6z"/>
	<path d="M89.9,173.8c6.9,0,13.8,0,20.8,0c0-6.9,0-13.9,0-20.8c-6.9,0-13.9,0-20.8,0C89.9,159.9,89.9,166.9,89.9,173.8z M93.4,156.5
		c4.6,0,9.2,0,13.9,0c0,4.6,0,9.2,0,13.9c-4.6,0-9.2,0-13.9,0C93.4,165.7,93.4,161.1,93.4,156.5z"/>
	<path d="M145.5,153c-6.9,0-13.9,0-20.8,0c0,6.9,0,13.9,0,20.8c6.9,0,13.8,0,20.8,0C145.5,166.8,145.5,159.9,145.5,153z M142,170.4
		c-4.6,0-9.2,0-13.9,0c0-4.6,0-9.3,0-13.9c4.6,0,9.2,0,13.9,0C142,161.1,142,165.7,142,170.4z"/>
	<path d="M93.4,191.2c3.1,0,6.2,0,9.3,0c2.3-1.4,5-2.3,8-3c0-0.1,0-0.3,0-0.4c-6.9,0-13.8,0-20.8,0c0,6.9,0,13.9,0,20.8
		c0.9,0,1.8,0,2.7,0c0.2-1.4,0.4-2.7,0.7-3.9C93.4,200.2,93.4,195.7,93.4,191.2z"/>
	<path d="M110.7,188.2c-3,0.7-5.7,1.6-8,3c1.5,0,3,0,4.6,0c0,4.6,0,9.2,0,13.9c-4.6,0-9.3,0-13.9,0c0-0.2,0-0.3,0-0.5
		c-0.3,1.2-0.5,2.5-0.7,3.9c6,0,12,0,18.1,0C110.7,201.8,110.7,195,110.7,188.2z"/>
	<path d="M117.7,153c-1.2,0-2.3,0-3.4,0c0,4.6,0,9.2,0,13.8c1.1,0,2.3,0,3.4,0c0-1.2,0-2.3,0-3.5c1.2,0,2.3,0,3.4,0
		c0-2.3,0-4.6,0-6.9c-1.2,0-2.3,0-3.5,0C117.7,155.3,117.7,154.1,117.7,153z"/>
	<path d="M131.7,180.8c2.3,0,4.6,0,6.9,0c0,1.2,0,2.3,0,3.4c2.3,0,4.6,0,6.9,0c0-2.3,0-4.5,0-6.9c-4.6,0-9.2,0-13.8,0
		C131.7,178.5,131.7,179.6,131.7,180.8z"/>
	<path d="M96.8,177.4c-2.3,0-4.6,0-6.9,0c0,2.3,0,4.6,0,6.9c3.5,0,6.9,0,10.3,0c0-1.1,0-2.3,0-3.4c-1.1,0-2.3,0-3.5,0
		C96.8,179.6,96.8,178.5,96.8,177.4z"/>
	<path d="M121.2,184.3C121.2,184.3,121.2,184.2,121.2,184.3C121.2,184.2,121.2,184.2,121.2,184.3L121.2,184.3z"/>
	<path d="M121.2,180.8c0,1.2,0,2.3,0,3.5c2.3,0,4.6,0,6.9,0c0-2.3,0-4.6,0-6.9c-3.5,0-6.9,0-10.4,0c0,1.1,0,2.3,0,3.4
		C118.9,180.8,120,180.8,121.2,180.8z"/>
	<path d="M117.7,177.3C117.7,177.3,117.7,177.3,117.7,177.3L117.7,177.3C117.7,177.3,117.7,177.3,117.7,177.3z"/>
	<path d="M145.5,208.6c0-2.3,0-4.6,0-6.9c-1.2,0-2.3,0-3.4,0c0-1.2,0-2.3,0-3.4c-1.2,0-2.3,0-3.4,0c0,1.4,0,2.8,0,4.2
		c1.1,1.8,2.3,3.9,3.4,6.1C143.2,208.6,144.3,208.6,145.5,208.6z"/>
	<path d="M142,208.6c-1.1-2.2-2.2-4.3-3.4-6.1c0,2,0,4.1,0,6.1C139.8,208.6,140.9,208.6,142,208.6z"/>
	<path d="M135,191.2c0-2.3,0-4.6,0-6.9c-2.3,0-4.6,0-6.9,0c0,1.2,0,2.3,0,3.5c-1.2,0-2.3,0-3.5,0c0,0.4,0,0.7,0,1.1
		c1.4,0.6,2.7,1.3,4.1,2.3C130.9,191.2,133,191.2,135,191.2z"/>
	<path d="M128.8,191.2c-1.3-1-2.7-1.7-4.1-2.3c0,0.8,0,1.5,0,2.3C126.1,191.2,127.4,191.2,128.8,191.2z"/>
	<path d="M121.2,184.3C121.2,184.3,121.2,184.3,121.2,184.3L121.2,184.3C121.2,184.2,121.2,184.3,121.2,184.3z"/>
	<path d="M121.2,187.8c0-1.2,0-2.4,0-3.5c-2.3,0-4.6,0-6.9,0c0,1.1,0,2.2,0,3.3C116.6,187.3,118.9,187.3,121.2,187.8z"/>
	<path d="M114.2,184.3C114.2,184.3,114.2,184.3,114.2,184.3C114.3,184.3,114.3,184.2,114.2,184.3L114.2,184.3z"/>
	<path d="M121.2,191.2c0-1.1,0-2.2,0-3.4c-2.2-0.5-4.5-0.5-6.9-0.2c0,1.2,0,2.4,0,3.6C116.6,191.2,118.9,191.2,121.2,191.2z"/>
	<path d="M121.2,201.7C121.2,201.7,121.2,201.7,121.2,201.7C121.2,201.7,121.2,201.7,121.2,201.7L121.2,201.7z"/>
	<path d="M121.2,201.7c0,0.2,0,0.4,0,0.5c0,1.9,0,3.9,0,5.8c0,0.2,0,0.3,0,0.5c2.3,0,4.6,0,6.9,0c0-2.3,0-4.6,0-6.9c-1,0-2,0-3,0
		C123.8,201.7,122.5,201.7,121.2,201.7z"/>
	<path d="M114.2,177.3C114.2,177.3,114.2,177.3,114.2,177.3C114.2,177.3,114.2,177.3,114.2,177.3L114.2,177.3z"/>
	<path d="M114.2,184.2C114.2,184.2,114.2,184.3,114.2,184.2L114.2,184.2C114.2,184.2,114.2,184.2,114.2,184.2z"/>
	<path d="M110.8,177.3c0,1.2,0,2.3,0,3.5c-1.2,0-2.3,0-3.4,0c0,1.2,0,2.3,0,3.4c2.3,0,4.6,0,6.9,0c0-2.3,0-4.6,0-6.9
		C113.1,177.3,111.9,177.3,110.8,177.3z"/>
	<path d="M138.6,191.2c1.2,0,2.3,0,3.4,0c0,1.2,0,2.3,0,3.4c1.2,0,2.3,0,3.4,0c0-2.3,0-4.5,0-6.8c-2.3,0-4.6,0-6.9,0
		C138.6,188.9,138.6,190.1,138.6,191.2z"/>
	<path d="M114.3,194.7c0,1.1,0,2.3,0,3.4c1.2,0,2.3,0,3.4,0c0,1.2,0,2.4,0,3.5c1.1,0,2.3,0,3.4,0c0-2.3,0-4.6,0-6.9
		C118.8,194.7,116.6,194.7,114.3,194.7z"/>
	<path d="M117.7,201.7C117.7,201.7,117.7,201.7,117.7,201.7C117.7,201.7,117.7,201.7,117.7,201.7L117.7,201.7z"/>
	<path d="M121.2,201.7C121.2,201.7,121.2,201.7,121.2,201.7C121.2,201.7,121.2,201.7,121.2,201.7
		C121.2,201.7,121.2,201.7,121.2,201.7z"/>
	<path d="M117.7,173.8C117.7,173.8,117.7,173.8,117.7,173.8L117.7,173.8C117.7,173.9,117.7,173.9,117.7,173.8z"/>
	<path d="M121.1,166.9c-1.1,0-2.3,0-3.4,0c0,2.3,0,4.6,0,6.9c1.1,0,2.3,0,3.4,0C121.1,171.5,121.1,169.2,121.1,166.9z"/>
	<path d="M114.3,208.6c1.1,0,2.3,0,3.4,0c0-0.2,0-0.4,0-0.6c0-2.1,0-4.2,0-6.3c-1.1,0-2.3,0-3.4,0
		C114.3,204,114.3,206.3,114.3,208.6z"/>
	<path d="M117.7,201.7C117.7,201.7,117.7,201.7,117.7,201.7C117.7,201.7,117.7,201.7,117.7,201.7
		C117.7,201.7,117.7,201.7,117.7,201.7z"/>
	<path d="M100.4,180.7c2.3,0,4.6,0,6.9,0c0-1.1,0-2.3,0-3.4c-2.3,0-4.6,0-6.9,0C100.4,178.5,100.4,179.6,100.4,180.7z"/>
	<path d="M138.5,198.1c0-1.1,0-2.3,0-3.4c-1.9,0-3.8,0-5.7,0c0.9,1,1.9,2.1,2.8,3.4C136.6,198.1,137.6,198.1,138.5,198.1z"/>
	<path d="M131.7,198.1c1.4,0,2.7,0,4,0c-0.9-1.2-1.9-2.4-2.8-3.4c-0.4,0-0.8,0-1.2,0C131.7,195.9,131.7,197,131.7,198.1z"/>
	<path d="M131.7,208.6c1.1,0,2.2,0,3.4,0c0-2.3,0-4.6,0-6.9c-1.1,0-2.2,0-3.4,0C131.7,204,131.7,206.3,131.7,208.6z"/>
	<path d="M117.7,173.8C117.7,173.9,117.7,173.9,117.7,173.8C117.7,173.9,117.7,173.9,117.7,173.8
		C117.7,173.9,117.7,173.8,117.7,173.8z"/>
	<path d="M117.7,173.9c-1.1,0-2.3,0-3.5,0c0,1.2,0,2.3,0,3.4c1.2,0,2.3,0,3.5,0C117.7,176.2,117.7,175,117.7,173.9z"/>
	<path d="M114.2,177.3C114.2,177.3,114.2,177.3,114.2,177.3L114.2,177.3C114.2,177.3,114.2,177.3,114.2,177.3z"/>
	<path d="M117.7,177.3C117.7,177.3,117.7,177.3,117.7,177.3C117.7,177.3,117.7,177.3,117.7,177.3L117.7,177.3z"/>
	<path d="M124.7,198.1c1.1,0,2.3,0,3.4,0c0-1.1,0-2.3,0-3.4c-1.1,0-2.2,0-3.4,0C124.7,195.9,124.7,197,124.7,198.1z"/>
	<path d="M124.6,191.3c-1.1,0-2.2,0-3.4,0c0,1.1,0,2.3,0,3.4c1.1,0,2.3,0,3.4,0C124.6,193.5,124.6,192.4,124.6,191.3z"/>
	<path d="M128.2,201.6c1.1,0,2.2,0,3.4,0c0-1.2,0-2.3,0-3.4c-1.1,0-2.2,0-3.4,0C128.2,199.4,128.2,200.5,128.2,201.6z"/>
	<path d="M96.9,166.8c2.3,0,4.6,0,6.9,0c0-2.3,0-4.6,0-6.8c-2.3,0-4.6,0-6.9,0C96.9,162.3,96.9,164.5,96.9,166.8z"/>
	<path d="M138.5,160c-2.3,0-4.6,0-6.8,0c0,2.3,0,4.6,0,6.9c2.3,0,4.6,0,6.8,0C138.5,164.5,138.5,162.2,138.5,160z"/>
	<path d="M96.9,194.8c0,0.6,0,1.2,0,1.9c0.5-0.7,0.9-1.3,1.5-1.9C97.9,194.8,97.4,194.8,96.9,194.8z"/>
	<path d="M103.7,201.6c0-2.3,0-4.6,0-6.8c-1.8,0-3.6,0-5.4,0c-0.5,0.6-1,1.2-1.5,1.9c0,1.7,0,3.3,0,5
		C99.2,201.6,101.5,201.6,103.7,201.6z"/>
</g>
</svg>
