<?xml version="1.0" encoding="utf-8"?>
<!-- Generator: Adobe Illustrator 22.0.1, SVG Export Plug-In . SVG Version: 6.00 Build 0)  -->
<svg version="1.1" id="Layer_1" xmlns="http://www.w3.org/2000/svg" xmlns:xlink="http://www.w3.org/1999/xlink" x="0px" y="0px"
	 viewBox="0 0 300 300" style="enable-background:new 0 0 300 300;" xml:space="preserve">
<style type="text/css">
	.st0{fill:#FFFFFF;}
	.st1{fill:#008CFF;}
	.st2{fill:#DAC0A7;}
	.st3{fill:#084C7A;}
	.st4{fill:#E9CEB2;}
	.st5{fill:#F7F7F7;}
	.st6{fill:#57CBF5;}
	.st7{fill:#231F20;}
	.st8{fill:#575051;}
	.st9{opacity:0.76;}
	.st10{fill:none;stroke:#FFFFFF;stroke-width:0.5;stroke-miterlimit:10;}
	.st11{fill:#F2D5B7;}
	.st12{fill:#0082FF;}
	.st13{fill:#FF3232;}
	.st14{fill:#009628;}
	.st15{opacity:0.5;}
	.st16{fill:none;stroke:#FFFFFF;stroke-width:10;stroke-miterlimit:10;}
	.st17{opacity:0.5;fill:#084C7A;}
	.st18{fill:#35AB47;}
	.st19{fill:#00B4FF;}
	.st20{fill:#ABADAE;}
	.st21{fill:#FFFF00;}
	.st22{opacity:0.38;fill:#009628;}
	.st23{fill:#BD0000;}
	.st24{fill:#008CFF;stroke:#FFFFFF;stroke-width:3;stroke-miterlimit:10;}
	.st25{fill:#FFFFFF;stroke:#FFFFFF;stroke-miterlimit:10;}
	.st26{fill:#4379BC;}
	.st27{fill:#084C7A;stroke:#FFFFFF;stroke-width:3;stroke-miterlimit:10;}
	.st28{fill:#CBCCCE;}
	.st29{fill:#A4A5A8;}
	.st30{fill:#BABCBE;}
	.st31{fill:#9D9FA1;}
	.st32{fill:#F1F2F2;}
	.st33{fill:#FF0000;}
	.st34{opacity:0.38;fill:#CBCCCE;}
	.st35{fill:#FFBD00;}
	.st36{fill:url(#SVGID_3_);}
	.st37{fill:url(#SVGID_4_);}
	.st38{fill:#CFCFCD;}
	.st39{fill:#E6E7E8;}
	.st40{fill:url(#SVGID_5_);}
	.st41{fill:#85888A;}
	.st42{fill:#ACADB0;}
	.st43{fill:#FF9600;}
	.st44{opacity:0.5;fill:url(#SVGID_6_);}
	.st45{opacity:0.3;fill:#E9CEB2;}
	.st46{fill:url(#SVGID_7_);}
	.st47{fill:#231FFF;}
	.st48{fill:none;stroke:#231FFF;stroke-miterlimit:10;}
	.st49{fill:#D5D7D8;}
	.st50{fill:#4A494E;}
	.st51{fill:none;stroke:#29336F;stroke-miterlimit:10;}
	.st52{fill:#B3B5B8;}
	.st53{fill:#E5CAAF;}
	.st54{opacity:0.5;fill:#E9CEB2;}
	.st55{opacity:8.000000e-02;fill:#FFFFFF;}
	.st56{opacity:0.15;fill:#4A494E;}
	.st57{opacity:0.15;fill:#084C7A;}
	.st58{fill:#E5E6E6;}
	.st59{fill:none;}
	.st60{fill:url(#SVGID_8_);}
	.st61{fill:url(#SVGID_9_);}
	.st62{fill:url(#SVGID_10_);}
	.st63{fill:url(#SVGID_11_);}
	.st64{fill:url(#SVGID_12_);}
	.st65{fill:url(#SVGID_13_);}
	.st66{fill:url(#SVGID_14_);}
	.st67{fill:url(#SVGID_15_);}
	.st68{opacity:0.2;fill:#0059F3;}
	.st69{fill:url(#SVGID_16_);}
	.st70{opacity:0.1;fill:#FFFFFF;}
	.st71{opacity:0.1;fill:#005AC8;}
	.st72{fill:url(#SVGID_17_);}
	.st73{fill:url(#SVGID_18_);}
	.st74{fill:url(#SVGID_19_);}
	.st75{fill:url(#SVGID_20_);}
	.st76{fill:url(#SVGID_21_);}
	.st77{fill:url(#SVGID_22_);}
	.st78{fill:url(#SVGID_23_);}
	.st79{opacity:0.5;fill:url(#SVGID_24_);}
	.st80{fill:url(#SVGID_25_);}
	.st81{opacity:0.25;fill:#005AC8;}
	.st82{fill:url(#SVGID_26_);}
	.st83{fill:url(#SVGID_27_);}
	.st84{fill:#CDCFD0;}
	.st85{fill:url(#SVGID_28_);}
	.st86{fill:url(#SVGID_29_);}
	.st87{fill:url(#SVGID_30_);}
	.st88{fill:url(#SVGID_31_);}
	.st89{opacity:0.5;fill:url(#SVGID_32_);}
	.st90{fill:url(#SVGID_33_);}
	.st91{fill:url(#SVGID_34_);}
	.st92{fill:url(#SVGID_35_);}
	.st93{fill:url(#SVGID_36_);}
	.st94{fill:url(#SVGID_37_);}
	.st95{fill:url(#SVGID_38_);}
	.st96{fill:url(#SVGID_39_);}
	.st97{fill:url(#SVGID_40_);}
	.st98{fill:url(#SVGID_41_);}
	.st99{opacity:0.2;fill:#DEC0A4;}
	.st100{fill:url(#SVGID_42_);}
	.st101{opacity:0.25;fill:#DBBCA0;}
	.st102{opacity:0.86;fill:#E9CEB2;}
	.st103{fill:none;stroke:#000000;stroke-miterlimit:10;}
	.st104{fill:#656668;}
	.st105{fill:#C09E5E;}
	.st106{fill:#B09053;}
	.st107{fill:#956F48;}
	.st108{opacity:0.3;fill:#8F6E45;}
	.st109{fill:#C3A060;}
	.st110{fill:#946E47;}
	.st111{fill:#DCBC7C;}
	.st112{opacity:0.5;fill:#F6EDCE;}
	.st113{opacity:0.5;fill:#FFF6D7;}
	.st114{fill:#B19154;}
	.st115{fill:none;stroke:#231F20;stroke-miterlimit:10;}
	.st116{opacity:0.33;fill:#946E47;}
	.st117{fill:#00A0FF;}
	.st118{fill:#656869;}
	.st119{fill:#DADBDC;}
	.st120{fill:#828487;}
	.st121{opacity:0.2;fill:#828487;}
	.st122{fill:#444748;}
	.st123{fill:#6A6C6E;}
	.st124{opacity:0.4;fill:#DADBDC;}
	.st125{fill:#00AAF0;}
	.st126{fill:#00C8FF;}
	.st127{fill:#97999C;}
	.st128{fill:#00A9E9;}
	.st129{fill:#356598;}
	.st130{fill:#BCBEC0;}
	.st131{fill:#9B9DA0;}
	.st132{fill:#230000;}
	.st133{fill:#521409;}
	.st134{fill:#D63101;}
	.st135{fill:#00B6FF;stroke:#FFFFFF;stroke-width:3;stroke-miterlimit:10;}
	.st136{fill:#FF6464;}
	.st137{opacity:0.42;}
	.st138{fill:none;stroke:#FFFFFF;stroke-width:2;stroke-miterlimit:10;}
	.st139{fill:#00B400;}
	.st140{fill:none;stroke:#938473;stroke-width:3;stroke-miterlimit:10;}
	.st141{opacity:0.3;fill:#084C7A;}
	.st142{fill:#5F6062;}
	.st143{fill:#008CFF;stroke:#F7F7F7;stroke-width:25;stroke-miterlimit:10;}
	.st144{fill:none;stroke:#F1F2F2;stroke-width:10;stroke-miterlimit:10;}
	.st145{fill:#939598;}
	.st146{fill:#F8F8F8;}
	.st147{fill:#4CAF50;}
	.st148{fill:#EC2024;}
	.st149{fill:#3953A3;}
	.st150{fill:#00C896;}
	.st151{fill:#008CFF;stroke:#FFFFFF;stroke-width:5;stroke-miterlimit:10;}
	.st152{fill:#A7A9AC;}
	.st153{fill:#E2E2E7;}
	.st154{fill:#E0E0E0;}
	.st155{fill:url(#SVGID_55_);}
	.st156{fill:url(#SVGID_56_);}
	.st157{fill:url(#SVGID_57_);}
	.st158{fill:url(#SVGID_58_);}
	.st159{fill:url(#SVGID_59_);}
	.st160{fill:url(#SVGID_60_);}
	.st161{fill:url(#SVGID_61_);}
	.st162{fill:url(#SVGID_62_);}
	.st163{fill:url(#SVGID_63_);}
	.st164{fill:url(#SVGID_64_);}
</style>
<g>
	<g>
		<g>
			<g>
				<path class="st19" d="M231.5,31.5c0-11.3-9.2-20.4-20.4-20.4h0h-18.6H26.9c-11.3,0-20.4,9.2-20.4,20.4v215.5
					c0,23.1,16.3,41.9,36.3,41.9h182.9V68.8h5.8V31.5z"/>
				<linearGradient id="SVGID_2_" gradientUnits="userSpaceOnUse" x1="141.3438" y1="40.1305" x2="141.3438" y2="289.4551">
					<stop  offset="0.773" style="stop-color:#FFFFFF"/>
					<stop  offset="0.8757" style="stop-color:#FDFDFD"/>
					<stop  offset="0.9127" style="stop-color:#F6F6F6"/>
					<stop  offset="0.9391" style="stop-color:#EBEBEB"/>
					<stop  offset="0.9604" style="stop-color:#DADADA"/>
					<stop  offset="0.9787" style="stop-color:#C4C4C4"/>
					<stop  offset="0.9946" style="stop-color:#A9A9A9"/>
					<stop  offset="1" style="stop-color:#9E9E9E"/>
				</linearGradient>
				<path style="fill:url(#SVGID_2_);" d="M231.5,71.4V39.6H20.2v213c0,20.1,16.3,36.3,36.3,36.3h206V71.4H231.5z"/>
				<path class="st41" d="M284.7,288.9h-44.4c-4.9,0-8.9-4-8.9-8.9V71.4h62.1V280C293.6,284.9,289.6,288.9,284.7,288.9z"/>
			</g>
			<g>
				<path class="st38" d="M62.3,91.1c1,0,1.9-0.2,2.6-0.5s1.2-0.8,1.7-1.3c0.4-0.5,0.7-1.1,0.9-1.8c0.2-0.7,0.3-1.3,0.3-2v-29h6.9
					V85c0,1-0.1,2-0.2,3c-0.1,1-0.4,1.9-0.8,2.8c-0.4,0.9-0.9,1.7-1.5,2.5c-0.6,0.7-1.4,1.4-2.3,1.9c-0.9,0.6-2,1-3.2,1.3
					c-1.2,0.3-2.7,0.5-4.3,0.5c-1.7,0-3.1-0.2-4.4-0.5s-2.3-0.7-3.2-1.3c-0.9-0.6-1.7-1.2-2.3-1.9c-0.6-0.7-1.1-1.6-1.4-2.5
					C50.6,90,50.4,89,50.2,88c-0.1-1-0.2-2-0.2-3V68.7h6.8v16.8c0,0.7,0.1,1.3,0.3,2c0.2,0.7,0.5,1.2,0.9,1.8c0.4,0.5,1,1,1.7,1.3
					C60.4,90.9,61.2,91.1,62.3,91.1z"/>
				<path class="st38" d="M85.2,86.1c0.1,1.7,0.6,3,1.4,3.8c0.8,0.8,2,1.2,3.4,1.2c0.4,0,0.8,0,1.3-0.1c0.5-0.1,0.9-0.2,1.3-0.4
					c0.4-0.2,0.7-0.5,0.9-0.9c0.2-0.4,0.4-0.8,0.4-1.3c0-0.4-0.1-0.7-0.3-1c-0.2-0.3-0.5-0.6-0.9-0.9c-0.4-0.3-1-0.6-1.6-0.8
					c-0.6-0.3-1.4-0.6-2.3-0.9c-1.3-0.5-2.6-1-3.7-1.5c-1.2-0.5-2.2-1.1-3-1.7c-0.9-0.6-1.5-1.4-2-2.3c-0.5-0.9-0.7-1.9-0.7-3.1
					c0-1,0.1-1.9,0.4-2.6c0.3-0.8,0.6-1.5,1.1-2c0.5-0.6,1-1.1,1.7-1.5c0.6-0.4,1.3-0.8,2.1-1c0.7-0.3,1.5-0.5,2.3-0.6
					c0.8-0.1,1.6-0.2,2.4-0.2c1.6,0,3,0.2,4.3,0.5c1.3,0.3,2.5,0.9,3.4,1.7c1,0.8,1.7,1.8,2.3,3.1c0.6,1.3,0.9,2.9,1,4.9h-6.7
					c0-0.8-0.1-1.5-0.4-2.1c-0.2-0.6-0.5-1-0.9-1.4c-0.4-0.4-0.8-0.6-1.2-0.8c-0.5-0.2-1-0.2-1.5-0.2c-0.4,0-0.8,0-1.1,0.1
					c-0.4,0.1-0.7,0.2-1.1,0.4c-0.3,0.2-0.6,0.4-0.8,0.7c-0.2,0.3-0.3,0.6-0.3,1c0,0.3,0.1,0.6,0.3,0.8c0.2,0.3,0.5,0.5,0.9,0.8
					c0.4,0.3,0.9,0.5,1.6,0.8c0.6,0.3,1.4,0.6,2.3,0.9c1.9,0.7,3.5,1.4,4.7,2c1.2,0.7,2.2,1.4,2.9,2.1c0.7,0.7,1.2,1.5,1.5,2.3
					c0.3,0.8,0.4,1.7,0.4,2.6c0,1.6-0.3,3-0.9,4.1c-0.6,1.1-1.4,2-2.4,2.7c-1,0.7-2.2,1.2-3.5,1.5c-1.4,0.3-2.8,0.4-4.4,0.4
					c-1.5,0-3-0.2-4.3-0.6c-1.3-0.4-2.5-1-3.5-1.9c-1-0.9-1.8-2-2.5-3.4c-0.6-1.4-1-3-1.1-5H85.2z"/>
				<path class="st38" d="M105,78.7v-7h5.7v2h6.8v5H105z M105,92.4v-7h5.7v2h6.8v4.9H105z"/>
				<path class="st38" d="M133.6,74c-0.9,0-1.7,0.1-2.4,0.2c-0.7,0.2-1.3,0.4-1.8,0.7c-0.5,0.3-0.9,0.6-1.2,0.9
					c-0.3,0.3-0.5,0.6-0.6,1c0.6,0.5,1,1.2,1.3,2c0.3,0.8,0.4,1.7,0.4,2.7v14.9h-6.8V81.5c0-0.3,0-0.6-0.1-0.9
					c-0.1-0.3-0.2-0.6-0.4-1c-0.2-0.3-0.4-0.6-0.7-0.9c-0.3-0.3-0.7-0.6-1.2-0.9c0.2-0.8,0.5-1.6,0.8-2.3c0.3-0.8,0.8-1.5,1.3-2.2
					c0.5-0.7,1.2-1.4,1.9-2c0.7-0.6,1.5-1.2,2.5-1.6c0.9-0.5,2-0.8,3.1-1.1c1.2-0.3,2.4-0.4,3.9-0.4c1.7,0,3.2,0.2,4.5,0.5
					c1.3,0.3,2.4,0.7,3.4,1.3c1,0.5,1.8,1.2,2.5,1.9c0.7,0.7,1.2,1.5,1.6,2.4c0.4,0.9,0.7,1.8,0.9,2.8c0.2,1,0.3,2,0.3,3v16.6h-7
					v-17c0-0.6-0.1-1.3-0.3-1.9c-0.2-0.6-0.5-1.2-1-1.7c-0.5-0.5-1.1-0.9-1.9-1.2C135.8,74.2,134.8,74,133.6,74z"/>
				<path class="st38" d="M149.9,78.4c0-1.7,0.3-3.2,0.9-4.4c0.6-1.3,1.4-2.4,2.4-3.2c1-0.9,2.1-1.5,3.4-2c1.3-0.5,2.6-0.7,4-0.7
					c1.5,0,2.8,0.2,4.1,0.6c1.3,0.4,2.4,1,3.3,1.8c0.9,0.8,1.7,1.8,2.2,3c0.5,1.2,0.8,2.6,0.8,4.3v18.7h-6.9V78.6
					c0-1.6-0.3-2.8-0.9-3.5c-0.6-0.7-1.5-1.1-2.6-1.1c-1,0-1.9,0.4-2.5,1.1c-0.6,0.7-1,1.8-1.1,3.3H149.9z"/>
				<path class="st38" d="M183,96.4h-6.8V80c0-1,0.1-2,0.3-3c0.2-1,0.5-1.9,0.9-2.8s0.9-1.7,1.6-2.5c0.6-0.7,1.4-1.4,2.4-1.9
					c0.9-0.6,2.1-1,3.3-1.3c1.3-0.3,2.7-0.5,4.4-0.5c1.1,0,2.1,0.1,3,0.2c0.9,0.2,1.8,0.4,2.6,0.6c0.3-0.1,0.5-0.3,0.7-0.6
					c0.2-0.2,0.4-0.5,0.5-0.8c0.1-0.3,0.2-0.6,0.3-0.9c0.1-0.3,0.1-0.6,0.1-0.9h7c0,0.6-0.1,1.2-0.3,1.9c-0.2,0.6-0.4,1.2-0.7,1.8
					c-0.3,0.6-0.7,1.1-1.2,1.5c-0.5,0.5-1,0.9-1.5,1.2c0.8,1.1,1.4,2.3,1.8,3.6c0.3,1.3,0.5,2.7,0.5,4.1v16.4h-6.9V79.5
					c0-0.6-0.1-1.3-0.3-1.9c-0.2-0.7-0.6-1.2-1-1.8c-0.5-0.5-1.1-0.9-1.8-1.3S190,74,189,74c-1,0-1.9,0.2-2.7,0.5
					c-0.8,0.3-1.4,0.8-1.9,1.3c-0.5,0.5-0.8,1.1-1.1,1.8c-0.2,0.7-0.3,1.3-0.3,1.9v2.6c0.5-0.5,1-1,1.6-1.3c0.6-0.4,1.2-0.7,1.8-1
					c0.7-0.3,1.4-0.5,2.1-0.6c0.8-0.1,1.6-0.2,2.5-0.2v6c-1.4,0.1-2.7,0.3-3.7,0.6c-1,0.4-1.8,0.9-2.5,1.6c-0.6,0.7-1.1,1.5-1.4,2.4
					c-0.3,0.9-0.5,2-0.5,3.2V96.4z"/>
			</g>
			<rect x="30.9" y="112.2" class="st3" width="52.5" height="44"/>
			<rect x="146.8" y="112.2" class="st39" width="70" height="146.8"/>
			<rect x="30.9" y="163.4" class="st39" width="52.5" height="2.8"/>
			<rect x="88.8" y="112.2" class="st39" width="52.5" height="2.8"/>
			<rect x="88.8" y="118.1" class="st39" width="52.5" height="2.8"/>
			<rect x="88.8" y="124" class="st39" width="52.5" height="2.8"/>
			<rect x="88.8" y="129.8" class="st39" width="52.5" height="2.8"/>
			<rect x="88.8" y="135.7" class="st39" width="52.5" height="2.8"/>
			<rect x="88.8" y="141.5" class="st39" width="34.8" height="2.8"/>
			<rect x="88.8" y="151.1" class="st39" width="52.5" height="2.8"/>
			<rect x="88.8" y="156.3" class="st39" width="52.5" height="2.8"/>
			<rect x="88.8" y="161.4" class="st39" width="52.5" height="2.8"/>
			<rect x="88.8" y="166.6" class="st39" width="52.5" height="2.8"/>
			<rect x="88.8" y="171.8" class="st39" width="52.5" height="2.8"/>
			<rect x="88.8" y="177" class="st39" width="52.5" height="2.8"/>
			<rect x="88.8" y="182.2" class="st39" width="52.5" height="2.8"/>
			<rect x="88.8" y="187.4" class="st39" width="52.5" height="2.8"/>
			<rect x="88.8" y="192.5" class="st39" width="52.5" height="2.8"/>
			<rect x="88.8" y="197.7" class="st39" width="36.8" height="2.8"/>
			<rect x="88.8" y="202.9" class="st39" width="52.5" height="2.8"/>
			<rect x="88.8" y="208.1" class="st39" width="52.5" height="2.8"/>
			<rect x="30.9" y="169.1" class="st39" width="52.5" height="2.8"/>
			<rect x="30.9" y="174.7" class="st39" width="52.5" height="2.8"/>
			<rect x="30.9" y="180.3" class="st39" width="52.5" height="2.8"/>
			<rect x="30.9" y="185.9" class="st39" width="35.1" height="2.8"/>
			<rect x="30.9" y="191.6" class="st39" width="52.5" height="2.8"/>
			<rect x="30.9" y="197.2" class="st39" width="52.5" height="2.8"/>
			<rect x="30.9" y="202.8" class="st39" width="35.1" height="2.8"/>
			<rect x="30.9" y="208.4" class="st39" width="52.5" height="2.8"/>
			<rect x="30.9" y="214" class="st39" width="52.5" height="2.8"/>
			<rect x="30.9" y="219.7" class="st39" width="52.5" height="2.8"/>
			<rect x="30.9" y="225.3" class="st39" width="35.1" height="2.8"/>
			<rect x="30.9" y="230.9" class="st39" width="52.5" height="2.8"/>
			<rect x="30.9" y="236.5" class="st39" width="52.5" height="2.8"/>
			<rect x="30.9" y="242.2" class="st39" width="52.5" height="2.8"/>
			<rect x="30.9" y="247.8" class="st39" width="52.5" height="2.8"/>
			<rect x="30.9" y="253.4" class="st39" width="52.5" height="2.8"/>
		</g>
		<rect x="20.2" y="28.7" class="st0" width="20.1" height="5.7"/>
		<rect x="47" y="28.7" class="st0" width="20.1" height="5.7"/>
	</g>
	<rect x="88.8" y="214" class="st3" width="52.5" height="18.3"/>
</g>
</svg>
