<?xml version="1.0" encoding="utf-8"?>
<!-- Generator: Adobe Illustrator 22.0.1, SVG Export Plug-In . SVG Version: 6.00 Build 0)  -->
<svg version="1.1" id="Layer_1" xmlns="http://www.w3.org/2000/svg" xmlns:xlink="http://www.w3.org/1999/xlink" x="0px" y="0px"
	 viewBox="0 0 300 300" style="enable-background:new 0 0 300 300;" xml:space="preserve">
<style type="text/css">
	.st0{fill:#FFFFFF;}
	.st1{fill:#008CFF;}
	.st2{fill:#DAC0A7;}
	.st3{fill:#084C7A;}
	.st4{fill:#E9CEB2;}
	.st5{fill:#F7F7F7;}
	.st6{fill:#57CBF5;}
	.st7{fill:#231F20;}
	.st8{fill:#575051;}
	.st9{opacity:0.76;}
	.st10{fill:none;stroke:#FFFFFF;stroke-width:0.5;stroke-miterlimit:10;}
	.st11{fill:#F2D5B7;}
	.st12{fill:#0082FF;}
	.st13{fill:#FF3232;}
	.st14{fill:#009628;}
	.st15{opacity:0.5;}
	.st16{fill:none;stroke:#FFFFFF;stroke-width:10;stroke-miterlimit:10;}
	.st17{opacity:0.5;fill:#084C7A;}
	.st18{fill:#35AB47;}
	.st19{fill:#00B4FF;}
	.st20{fill:#ABADAE;}
	.st21{fill:#FFFF00;}
	.st22{opacity:0.38;fill:#009628;}
	.st23{fill:#BD0000;}
	.st24{fill:#008CFF;stroke:#FFFFFF;stroke-width:3;stroke-miterlimit:10;}
	.st25{fill:#FFFFFF;stroke:#FFFFFF;stroke-miterlimit:10;}
	.st26{fill:#4379BC;}
	.st27{fill:#084C7A;stroke:#FFFFFF;stroke-width:3;stroke-miterlimit:10;}
	.st28{fill:#CBCCCE;}
	.st29{fill:#A4A5A8;}
	.st30{fill:#BABCBE;}
	.st31{fill:#9D9FA1;}
	.st32{fill:#F1F2F2;}
	.st33{fill:#FF0000;}
	.st34{opacity:0.38;fill:#CBCCCE;}
	.st35{fill:#FFBD00;}
	.st36{fill:url(#SVGID_3_);}
	.st37{fill:url(#SVGID_4_);}
	.st38{fill:#CFCFCD;}
	.st39{fill:#E6E7E8;}
	.st40{fill:url(#SVGID_5_);}
	.st41{fill:#85888A;}
	.st42{fill:#ACADB0;}
	.st43{fill:#FF9600;}
	.st44{opacity:0.5;fill:url(#SVGID_6_);}
	.st45{opacity:0.3;fill:#E9CEB2;}
	.st46{fill:url(#SVGID_7_);}
	.st47{fill:#231FFF;}
	.st48{fill:none;stroke:#231FFF;stroke-miterlimit:10;}
	.st49{fill:#D5D7D8;}
	.st50{fill:#4A494E;}
	.st51{fill:none;stroke:#29336F;stroke-miterlimit:10;}
	.st52{fill:#B3B5B8;}
	.st53{fill:#E5CAAF;}
	.st54{opacity:0.5;fill:#E9CEB2;}
	.st55{opacity:8.000000e-02;fill:#FFFFFF;}
	.st56{opacity:0.15;fill:#4A494E;}
	.st57{opacity:0.15;fill:#084C7A;}
	.st58{fill:#E5E6E6;}
	.st59{fill:none;}
	.st60{fill:url(#SVGID_8_);}
	.st61{fill:url(#SVGID_9_);}
	.st62{fill:url(#SVGID_10_);}
	.st63{fill:url(#SVGID_11_);}
	.st64{fill:url(#SVGID_12_);}
	.st65{fill:url(#SVGID_13_);}
	.st66{fill:url(#SVGID_14_);}
	.st67{fill:url(#SVGID_15_);}
	.st68{opacity:0.2;fill:#0059F3;}
	.st69{fill:url(#SVGID_16_);}
	.st70{opacity:0.1;fill:#FFFFFF;}
	.st71{opacity:0.1;fill:#005AC8;}
	.st72{fill:url(#SVGID_17_);}
	.st73{fill:url(#SVGID_18_);}
	.st74{fill:url(#SVGID_19_);}
	.st75{fill:url(#SVGID_20_);}
	.st76{fill:url(#SVGID_21_);}
	.st77{fill:url(#SVGID_22_);}
	.st78{fill:url(#SVGID_23_);}
	.st79{opacity:0.5;fill:url(#SVGID_24_);}
	.st80{fill:url(#SVGID_25_);}
	.st81{opacity:0.25;fill:#005AC8;}
	.st82{fill:url(#SVGID_26_);}
	.st83{fill:url(#SVGID_27_);}
	.st84{fill:#CDCFD0;}
	.st85{fill:url(#SVGID_28_);}
	.st86{fill:url(#SVGID_29_);}
	.st87{fill:url(#SVGID_30_);}
	.st88{fill:url(#SVGID_31_);}
	.st89{opacity:0.5;fill:url(#SVGID_32_);}
	.st90{fill:url(#SVGID_33_);}
	.st91{fill:url(#SVGID_34_);}
	.st92{fill:url(#SVGID_35_);}
	.st93{fill:url(#SVGID_36_);}
	.st94{fill:url(#SVGID_37_);}
	.st95{fill:url(#SVGID_38_);}
	.st96{fill:url(#SVGID_39_);}
	.st97{fill:url(#SVGID_40_);}
	.st98{fill:url(#SVGID_41_);}
	.st99{opacity:0.2;fill:#DEC0A4;}
	.st100{fill:url(#SVGID_42_);}
	.st101{opacity:0.25;fill:#DBBCA0;}
	.st102{opacity:0.86;fill:#E9CEB2;}
	.st103{fill:none;stroke:#000000;stroke-miterlimit:10;}
	.st104{fill:#656668;}
	.st105{fill:#C09E5E;}
	.st106{fill:#B09053;}
	.st107{fill:#956F48;}
	.st108{opacity:0.3;fill:#8F6E45;}
	.st109{fill:#C3A060;}
	.st110{fill:#946E47;}
	.st111{fill:#DCBC7C;}
	.st112{opacity:0.5;fill:#F6EDCE;}
	.st113{opacity:0.5;fill:#FFF6D7;}
	.st114{fill:#B19154;}
	.st115{fill:none;stroke:#231F20;stroke-miterlimit:10;}
	.st116{opacity:0.33;fill:#946E47;}
	.st117{fill:#00A0FF;}
	.st118{fill:#656869;}
	.st119{fill:#DADBDC;}
	.st120{fill:#828487;}
	.st121{opacity:0.2;fill:#828487;}
	.st122{fill:#444748;}
	.st123{fill:#6A6C6E;}
	.st124{opacity:0.4;fill:#DADBDC;}
	.st125{fill:#00AAF0;}
	.st126{fill:#00C8FF;}
	.st127{fill:#97999C;}
	.st128{fill:#00A9E9;}
	.st129{fill:#356598;}
	.st130{fill:#BCBEC0;}
	.st131{fill:#9B9DA0;}
	.st132{fill:#230000;}
	.st133{fill:#521409;}
	.st134{fill:#D63101;}
	.st135{fill:#00B6FF;stroke:#FFFFFF;stroke-width:3;stroke-miterlimit:10;}
	.st136{fill:#FF6464;}
	.st137{opacity:0.42;}
	.st138{fill:none;stroke:#FFFFFF;stroke-width:2;stroke-miterlimit:10;}
	.st139{fill:#00B400;}
	.st140{fill:none;stroke:#938473;stroke-width:3;stroke-miterlimit:10;}
	.st141{opacity:0.3;fill:#084C7A;}
	.st142{fill:#5F6062;}
	.st143{fill:#008CFF;stroke:#F7F7F7;stroke-width:25;stroke-miterlimit:10;}
	.st144{fill:none;stroke:#F1F2F2;stroke-width:10;stroke-miterlimit:10;}
	.st145{fill:#939598;}
	.st146{fill:#F8F8F8;}
	.st147{fill:#4CAF50;}
	.st148{fill:#EC2024;}
	.st149{fill:#3953A3;}
	.st150{fill:#00C896;}
	.st151{fill:#008CFF;stroke:#FFFFFF;stroke-width:5;stroke-miterlimit:10;}
	.st152{fill:#A7A9AC;}
	.st153{fill:#E2E2E7;}
	.st154{fill:#E0E0E0;}
	.st155{fill:url(#SVGID_55_);}
	.st156{fill:url(#SVGID_56_);}
	.st157{fill:url(#SVGID_57_);}
	.st158{fill:url(#SVGID_58_);}
	.st159{fill:url(#SVGID_59_);}
	.st160{fill:url(#SVGID_60_);}
	.st161{fill:url(#SVGID_61_);}
	.st162{fill:url(#SVGID_62_);}
	.st163{fill:url(#SVGID_63_);}
	.st164{fill:url(#SVGID_64_);}
</style>
<g>
	<g>
		<g>
			<polygon class="st109" points="4.6,97.5 114.3,153.8 114.3,266.4 4.6,210.2 			"/>
			<polygon class="st110" points="114.3,153.8 282.5,67.4 282.6,180.2 114.3,266.4 			"/>
			<polygon class="st111" points="4.6,97.5 172.9,11.1 282.5,67.4 114.3,153.8 			"/>
			
				<ellipse transform="matrix(0.7787 -0.6274 0.6274 0.7787 -110.5812 76.776)" class="st3" cx="53.5" cy="195.1" rx="13.5" ry="20.8"/>
			<polygon class="st112" points="40.7,153.8 70.3,168.8 70.3,131 40.7,116 			"/>
			<polygon class="st113" points="70.3,131 238.6,44.9 209.4,29.9 40.7,116 			"/>
			<g>
				<path class="st3" d="M41.4,109.3c-0.4,0-0.7-0.1-1.1-0.3l-18.6-9.5v0c-0.8-0.4-1.3-1.2-1.3-2.1c0-0.9,0.5-1.7,1.3-2.1l40.4-20.8
					c0.7-0.3,1.5-0.4,2.2,0l18.6,9.5c0.8,0.4,1.3,1.2,1.3,2.1c0,0.9-0.5,1.7-1.3,2.1l-40.4,20.7C42.1,109.2,41.7,109.3,41.4,109.3z
					 M63.1,75.9c-0.1,0-0.2,0-0.4,0.1L22.4,96.8c-0.3,0.1-0.4,0.4-0.4,0.7s0.2,0.6,0.4,0.7v0l18.6,9.5c0.2,0.1,0.5,0.1,0.7,0
					l40.4-20.7c0.3-0.1,0.4-0.4,0.4-0.7c0-0.3-0.2-0.6-0.4-0.7L63.5,76C63.4,76,63.3,75.9,63.1,75.9z"/>
			</g>
			<g>
				<path class="st3" d="M194.8,105.6c-0.4,0-0.7-0.1-1.1-0.3l-25.8-13.2c-0.8-0.4-1.3-1.2-1.3-2.1s0.5-1.7,1.3-2.1l69.7-35.8
					c0.7-0.4,1.5-0.4,2.2,0l25.8,13.2c0.8,0.4,1.3,1.2,1.3,2.1s-0.5,1.7-1.3,2.1l-69.7,35.8C195.5,105.5,195.1,105.6,194.8,105.6z
					 M238.6,53.4c-0.1,0-0.2,0-0.4,0.1l-69.7,35.8c-0.3,0.1-0.4,0.4-0.4,0.7c0,0.3,0.2,0.6,0.4,0.7l25.8,13.2c0.2,0.1,0.5,0.1,0.7,0
					l69.7-35.8c0.3-0.1,0.4-0.4,0.4-0.7c0-0.3-0.2-0.6-0.4-0.7L239,53.5C238.9,53.4,238.7,53.4,238.6,53.4z"/>
			</g>
			<path class="st3" d="M26.2,101l44.2-22.3l-7.3-3.7L22.6,95.8c-1.4,0.7-1.4,2.7,0,3.4L26.2,101z"/>
			<path class="st3" d="M168.9,91.7l4,2l73.1-37.5l-7.3-3.8l-69.8,35.8C167.5,89,167.5,91,168.9,91.7z"/>
			<g>
				
					<rect x="175.6" y="78.3" transform="matrix(0.8895 -0.457 0.457 0.8895 -12.0117 107.7133)" class="st3" width="82.2" height="0.8"/>
			</g>
			<g>
				
					<rect x="27.8" y="91.9" transform="matrix(0.8895 -0.457 0.457 0.8895 -36.3526 34.2363)" class="st3" width="49.5" height="0.8"/>
			</g>
			<g>
				
					<rect x="31.1" y="93.4" transform="matrix(0.8895 -0.457 0.457 0.8895 -36.6755 35.8967)" class="st3" width="49.5" height="0.8"/>
			</g>
			<g>
				
					<rect x="34.7" y="95" transform="matrix(0.8895 -0.457 0.457 0.8895 -37.0322 37.7237)" class="st3" width="49.5" height="0.8"/>
			</g>
			<g>
				
					<rect x="180.9" y="81" transform="matrix(0.8895 -0.457 0.457 0.8895 -12.6821 110.4371)" class="st3" width="82.2" height="0.8"/>
			</g>
			<g>
				
					<rect x="185.5" y="83.2" transform="matrix(0.8895 -0.457 0.457 0.8895 -13.182 112.796)" class="st3" width="82.2" height="0.8"/>
			</g>
		</g>
		<g>
			<path class="st114" d="M51.4,183.5l4.5,2.3l7.2,23l-4.5-2.3l-1.5-5l-7.2-3.7l-1.5,3.5L44,199L51.4,183.5z M51,195.1l5,2.6
				l-2.5-8.3l0,0L51,195.1z"/>
		</g>
	</g>
	<polygon class="st116" points="134.6,256 134.6,199.1 219.1,155.9 219.1,212.8 	"/>
	<g>
		<g>
			<polygon class="st109" points="152.1,201.8 208.6,230.9 208.6,288.9 152.1,259.9 			"/>
			<polygon class="st110" points="208.6,230.9 295.3,186.3 295.4,244.5 208.6,288.9 			"/>
			<polygon class="st111" points="152.1,201.8 238.8,157.3 295.3,186.3 208.6,230.9 			"/>
			
				<ellipse transform="matrix(0.7787 -0.6274 0.6274 0.7787 -118.9923 167.0269)" class="st3" cx="177.3" cy="252.2" rx="7" ry="10.7"/>
			<polygon class="st112" points="170.6,230.9 185.9,238.6 185.9,219.1 170.6,211.4 			"/>
			<polygon class="st113" points="185.9,219.1 272.7,174.7 257.6,167 170.6,211.4 			"/>
			<g>
				<path class="st3" d="M171,207.9c-0.2,0-0.4,0-0.6-0.1l-9.6-4.9v0c-0.4-0.2-0.7-0.6-0.7-1.1c0-0.5,0.3-0.9,0.7-1.1l20.8-10.7
					c0.4-0.2,0.8-0.2,1.1,0l9.6,4.9c0.4,0.2,0.7,0.6,0.7,1.1c0,0.5-0.3,0.9-0.7,1.1l-20.8,10.7C171.4,207.9,171.2,207.9,171,207.9z
					 M182.2,190.7c-0.1,0-0.1,0-0.2,0l-20.8,10.7c-0.1,0.1-0.2,0.2-0.2,0.4c0,0.2,0.1,0.3,0.2,0.4v0l9.6,4.9c0.1,0.1,0.3,0.1,0.4,0
					l20.8-10.7c0.1-0.1,0.2-0.2,0.2-0.4c0-0.2-0.1-0.3-0.2-0.4l-9.6-4.9C182.3,190.7,182.3,190.7,182.2,190.7z"/>
			</g>
			<g>
				<path class="st3" d="M250.1,206c-0.2,0-0.4,0-0.6-0.1l-13.3-6.8c-0.4-0.2-0.7-0.6-0.7-1.1c0-0.5,0.3-0.9,0.7-1.1l35.9-18.5
					c0.4-0.2,0.8-0.2,1.1,0l13.3,6.8c0.4,0.2,0.7,0.6,0.7,1.1c0,0.5-0.3,0.9-0.7,1.1l-35.9,18.4C250.5,206,250.3,206,250.1,206z
					 M272.7,179.1c-0.1,0-0.1,0-0.2,0l-35.9,18.5c-0.1,0.1-0.2,0.2-0.2,0.4c0,0.2,0.1,0.3,0.2,0.4l13.3,6.8c0.1,0.1,0.3,0.1,0.4,0
					l35.9-18.4c0.1-0.1,0.2-0.2,0.2-0.4c0-0.2-0.1-0.3-0.2-0.4l-13.3-6.8C272.8,179.1,272.8,179.1,272.7,179.1z"/>
			</g>
			<path class="st3" d="M163.2,203.7l22.8-11.5l-3.8-1.9l-20.9,10.7c-0.7,0.4-0.7,1.4,0,1.8L163.2,203.7z"/>
			<path class="st3" d="M236.7,198.8l2,1l37.7-19.4l-3.8-1.9l-36,18.5C236,197.4,236,198.5,236.7,198.8z"/>
			<g>
				
					<rect x="240.2" y="191.9" transform="matrix(0.8895 -0.457 0.457 0.8895 -58.9158 140.6723)" class="st3" width="42.4" height="0.4"/>
			</g>
			<g>
				
					<rect x="164" y="198.9" transform="matrix(0.8895 -0.457 0.457 0.8895 -71.4658 102.7879)" class="st3" width="25.5" height="0.4"/>
			</g>
			<g>
				
					<rect x="165.7" y="199.7" transform="matrix(0.8895 -0.457 0.457 0.8895 -71.6323 103.644)" class="st3" width="25.5" height="0.4"/>
			</g>
			<g>
				
					<rect x="167.6" y="200.6" transform="matrix(0.8895 -0.457 0.457 0.8895 -71.8163 104.5859)" class="st3" width="25.5" height="0.4"/>
			</g>
			<g>
				
					<rect x="242.9" y="193.4" transform="matrix(0.8895 -0.457 0.457 0.8895 -59.2615 142.0766)" class="st3" width="42.4" height="0.4"/>
			</g>
			<g>
				
					<rect x="245.3" y="194.5" transform="matrix(0.8895 -0.457 0.457 0.8895 -59.5192 143.2929)" class="st3" width="42.4" height="0.4"/>
			</g>
		</g>
		<g>
			<path class="st114" d="M178.6,252.1c0-0.2-0.1-0.4-0.2-0.6c-0.1-0.2-0.2-0.4-0.4-0.6s-0.3-0.4-0.5-0.5s-0.4-0.3-0.6-0.4
				c-0.4-0.2-0.7-0.2-1-0.2c-0.3,0-0.5,0.2-0.7,0.3c-0.2,0.2-0.3,0.4-0.4,0.7c-0.1,0.3-0.1,0.6-0.1,1c0,0.2,0,0.4,0.1,0.7
				c0,0.2,0.1,0.4,0.2,0.7s0.2,0.4,0.3,0.6c0.1,0.2,0.2,0.4,0.4,0.6c0.2,0.2,0.3,0.4,0.5,0.5c0.2,0.2,0.4,0.3,0.7,0.4
				c0.3,0.1,0.5,0.2,0.7,0.2c0.2,0,0.4,0,0.5-0.1c0.1-0.1,0.3-0.2,0.4-0.4c0.1-0.2,0.2-0.4,0.2-0.6l1.7,0.7c0,0.5-0.2,0.9-0.3,1.2
				c-0.2,0.3-0.4,0.6-0.7,0.7c-0.3,0.2-0.7,0.2-1.1,0.2c-0.4,0-0.8-0.1-1.3-0.3c-0.4-0.2-0.8-0.4-1.1-0.6s-0.7-0.5-1-0.8
				c-0.3-0.3-0.5-0.6-0.8-0.9s-0.4-0.7-0.6-1c-0.2-0.4-0.3-0.7-0.3-1.1c-0.1-0.4-0.1-0.8-0.1-1.1c0-0.4,0-0.7,0.1-1.1
				c0.1-0.3,0.2-0.6,0.3-0.9c0.2-0.2,0.3-0.4,0.6-0.6c0.2-0.2,0.5-0.3,0.8-0.3c0.3-0.1,0.6-0.1,0.9,0c0.3,0,0.7,0.1,1.1,0.3
				c0.4,0.2,0.8,0.4,1.2,0.7c0.4,0.3,0.7,0.6,1,1c0.3,0.4,0.6,0.8,0.8,1.2c0.2,0.4,0.3,0.9,0.4,1.4L178.6,252.1z"/>
		</g>
	</g>
</g>
</svg>
