<?xml version="1.0" encoding="utf-8"?>
<!-- Generator: Adobe Illustrator 22.0.1, SVG Export Plug-In . SVG Version: 6.00 Build 0)  -->
<svg version="1.1" id="Layer_1" xmlns="http://www.w3.org/2000/svg" xmlns:xlink="http://www.w3.org/1999/xlink" x="0px" y="0px"
	 viewBox="0 0 500 500" style="enable-background:new 0 0 500 500;" xml:space="preserve">
<style type="text/css">
	.st0{fill:#FFFFFF;}
	.st1{fill:#008CFF;}
	.st2{fill:#DAC0A7;}
	.st3{fill:#084C7A;}
	.st4{fill:#E9CEB2;}
	.st5{fill:#F7F7F7;}
	.st6{fill:#57CBF5;}
	.st7{fill:#231F20;}
	.st8{fill:#575051;}
	.st9{opacity:0.76;}
	.st10{fill:none;stroke:#FFFFFF;stroke-width:0.5;stroke-miterlimit:10;}
	.st11{fill:#F2D5B7;}
	.st12{fill:#0082FF;}
	.st13{fill:#FF3232;}
	.st14{fill:#009628;}
	.st15{opacity:0.5;}
	.st16{fill:none;stroke:#FFFFFF;stroke-width:10;stroke-miterlimit:10;}
	.st17{opacity:0.5;fill:#084C7A;}
	.st18{fill:#35AB47;}
	.st19{fill:#00B4FF;}
	.st20{fill:#ABADAE;}
	.st21{fill:#FFFF00;}
	.st22{opacity:0.38;fill:#009628;}
	.st23{fill:#BD0000;}
	.st24{fill:#008CFF;stroke:#FFFFFF;stroke-width:3;stroke-miterlimit:10;}
	.st25{fill:#FFFFFF;stroke:#FFFFFF;stroke-miterlimit:10;}
	.st26{fill:#4379BC;}
	.st27{fill:#084C7A;stroke:#FFFFFF;stroke-width:3;stroke-miterlimit:10;}
	.st28{fill:#CBCCCE;}
	.st29{fill:#A4A5A8;}
	.st30{fill:#BABCBE;}
	.st31{fill:#9D9FA1;}
	.st32{fill:#F1F2F2;}
	.st33{fill:#FF0000;}
	.st34{opacity:0.38;fill:#CBCCCE;}
	.st35{fill:#FFBD00;}
	.st36{fill:url(#SVGID_3_);}
	.st37{fill:url(#SVGID_4_);}
	.st38{fill:#CFCFCD;}
	.st39{fill:#E6E7E8;}
	.st40{fill:url(#SVGID_5_);}
	.st41{fill:#85888A;}
	.st42{fill:#ACADB0;}
	.st43{fill:#FF9600;}
	.st44{opacity:0.5;fill:url(#SVGID_6_);}
	.st45{opacity:0.3;fill:#E9CEB2;}
	.st46{fill:url(#SVGID_7_);}
	.st47{fill:#231FFF;}
	.st48{fill:none;stroke:#231FFF;stroke-miterlimit:10;}
	.st49{fill:#D5D7D8;}
	.st50{fill:#4A494E;}
	.st51{fill:none;stroke:#29336F;stroke-miterlimit:10;}
	.st52{fill:#B3B5B8;}
	.st53{fill:#E5CAAF;}
	.st54{opacity:0.5;fill:#E9CEB2;}
	.st55{opacity:8.000000e-02;fill:#FFFFFF;}
	.st56{opacity:0.15;fill:#4A494E;}
	.st57{opacity:0.15;fill:#084C7A;}
	.st58{fill:#E5E6E6;}
	.st59{fill:none;}
	.st60{fill:url(#SVGID_8_);}
	.st61{fill:url(#SVGID_9_);}
	.st62{fill:url(#SVGID_10_);}
	.st63{fill:url(#SVGID_11_);}
	.st64{fill:url(#SVGID_12_);}
	.st65{fill:url(#SVGID_13_);}
	.st66{fill:url(#SVGID_14_);}
	.st67{fill:url(#SVGID_15_);}
	.st68{opacity:0.2;fill:#0059F3;}
	.st69{fill:url(#SVGID_16_);}
	.st70{opacity:0.1;fill:#FFFFFF;}
	.st71{opacity:0.1;fill:#005AC8;}
	.st72{fill:url(#SVGID_17_);}
	.st73{fill:url(#SVGID_18_);}
	.st74{fill:url(#SVGID_19_);}
	.st75{fill:url(#SVGID_20_);}
	.st76{fill:url(#SVGID_21_);}
	.st77{fill:url(#SVGID_22_);}
	.st78{fill:url(#SVGID_23_);}
	.st79{opacity:0.5;fill:url(#SVGID_24_);}
	.st80{fill:url(#SVGID_25_);}
	.st81{opacity:0.25;fill:#005AC8;}
	.st82{fill:url(#SVGID_26_);}
	.st83{fill:url(#SVGID_27_);}
	.st84{fill:#CDCFD0;}
	.st85{fill:url(#SVGID_28_);}
	.st86{fill:url(#SVGID_29_);}
	.st87{fill:url(#SVGID_30_);}
	.st88{fill:url(#SVGID_31_);}
	.st89{opacity:0.5;fill:url(#SVGID_32_);}
	.st90{fill:url(#SVGID_33_);}
	.st91{fill:url(#SVGID_34_);}
	.st92{fill:url(#SVGID_35_);}
	.st93{fill:url(#SVGID_36_);}
	.st94{fill:url(#SVGID_37_);}
	.st95{fill:url(#SVGID_38_);}
	.st96{fill:url(#SVGID_39_);}
	.st97{fill:url(#SVGID_40_);}
	.st98{fill:url(#SVGID_41_);}
	.st99{opacity:0.2;fill:#DEC0A4;}
	.st100{fill:url(#SVGID_42_);}
	.st101{opacity:0.25;fill:#DBBCA0;}
	.st102{opacity:0.86;fill:#E9CEB2;}
	.st103{fill:none;stroke:#000000;stroke-miterlimit:10;}
	.st104{fill:#656668;}
	.st105{fill:#C09E5E;}
	.st106{fill:#B09053;}
	.st107{fill:#956F48;}
	.st108{opacity:0.3;fill:#8F6E45;}
	.st109{fill:#C3A060;}
	.st110{fill:#946E47;}
	.st111{fill:#DCBC7C;}
	.st112{opacity:0.5;fill:#F6EDCE;}
	.st113{opacity:0.5;fill:#FFF6D7;}
	.st114{fill:#B19154;}
	.st115{fill:none;stroke:#231F20;stroke-miterlimit:10;}
	.st116{opacity:0.33;fill:#946E47;}
	.st117{fill:#00A0FF;}
	.st118{fill:#656869;}
	.st119{fill:#DADBDC;}
	.st120{fill:#828487;}
	.st121{opacity:0.2;fill:#828487;}
	.st122{fill:#444748;}
	.st123{fill:#6A6C6E;}
	.st124{opacity:0.4;fill:#DADBDC;}
	.st125{fill:#00AAF0;}
	.st126{fill:#00C8FF;}
	.st127{fill:#97999C;}
	.st128{fill:#00A9E9;}
	.st129{fill:#356598;}
	.st130{fill:#BCBEC0;}
	.st131{fill:#9B9DA0;}
	.st132{fill:#230000;}
	.st133{fill:#521409;}
	.st134{fill:#D63101;}
	.st135{fill:#00B6FF;stroke:#FFFFFF;stroke-width:3;stroke-miterlimit:10;}
	.st136{fill:#FF6464;}
	.st137{opacity:0.42;}
	.st138{fill:none;stroke:#FFFFFF;stroke-width:2;stroke-miterlimit:10;}
	.st139{fill:#00B400;}
	.st140{fill:none;stroke:#938473;stroke-width:3;stroke-miterlimit:10;}
	.st141{opacity:0.3;fill:#084C7A;}
	.st142{fill:#5F6062;}
	.st143{fill:#008CFF;stroke:#F7F7F7;stroke-width:25;stroke-miterlimit:10;}
	.st144{fill:none;stroke:#F1F2F2;stroke-width:10;stroke-miterlimit:10;}
	.st145{fill:#939598;}
	.st146{fill:#F8F8F8;}
	.st147{fill:#4CAF50;}
	.st148{fill:#EC2024;}
	.st149{fill:#3953A3;}
	.st150{fill:#00C896;}
	.st151{fill:#008CFF;stroke:#FFFFFF;stroke-width:5;stroke-miterlimit:10;}
	.st152{fill:#A7A9AC;}
	.st153{fill:#E2E2E7;}
	.st154{fill:#E0E0E0;}
	.st155{fill:url(#SVGID_55_);}
	.st156{fill:url(#SVGID_56_);}
	.st157{fill:url(#SVGID_57_);}
	.st158{fill:url(#SVGID_58_);}
	.st159{fill:url(#SVGID_59_);}
	.st160{fill:url(#SVGID_60_);}
	.st161{fill:url(#SVGID_61_);}
	.st162{fill:url(#SVGID_62_);}
	.st163{fill:url(#SVGID_63_);}
	.st164{fill:url(#SVGID_64_);}
</style>
<g>
	<path class="st0" d="M390.7,432.3c-1.7-7.2-3.5-12.5-5.2-16.3c-1.2-2.8-5.4-1.9-5.4,1.1v4.5v42.2c4.9-3,9.7-6.2,14.4-9.5
		C393.5,445.5,392.1,438.3,390.7,432.3L390.7,432.3z"/>
	<path class="st0" d="M269.6,318.8c-30.2-8.4-53.9-27.6-63.8-51.8c-13-2.3-34.6-12.8-28.5-31.8c0.2-0.5,0.3-1,0.5-1.5h-14.4
		c2.4,7.7,4.9,16.6,7.4,26.7c5.1,20.8,14.3,35.6,25,46.2c27.8,27.5,65.3,26.1,65.3,26.1s2.7,2.7,8.3,5.7
		C271.7,330.4,270.5,322.6,269.6,318.8z"/>
	<path class="st0" d="M227,421.8v-4.6v-30.5c-23.5-6.5-44.5-15.3-62.5-30.7c-22.9-19.4-41.2-49.4-53.8-98.5c-2.3-9-4-16.8-5.1-23.7
		H70.9c-6.8,0-12.3-5.5-12.3-12.3v-78.6c0-6.8,5.5-12.3,12.3-12.3h117.3c15.5-13.8,30.1-41.8,86.2-50.8
		c74.8-12,111.7,46.5,111.7,46.5c58.6,6.4,31.3,97.2,31.3,97.2c-5.7-0.9-6.1,1.2-6.1,1.2l0,0c6.1-2.2,15.5-2.9,19.9,10.5
		c6.4,19.8-17.3,30.4-30.1,32c-9.9,24.1-33.6,43.2-63.7,51.6c-0.9,3.8-2.1,11.6,0.2,19.5c5.6-3,8.3-5.7,8.3-5.7
		c46.9,11.2,70.8,48.5,82.8,85.6l0,0c0.6,1.7,1.1,3.4,1.6,5.1c43.1-44.9,69.6-105.9,69.6-173.1C500,112,388,0,249.9,0
		C111.7,0-0.3,112-0.3,250.2c0,130.4,99.8,237.6,227.3,249.1v-77.7C227,421.7,227,421.7,227,421.8z"/>
	<path class="st4" d="M205.8,267c-2.7-6.7-4.4-13.7-4.8-21c-2.4-3.1-4.3-7.4-5.8-12.3h-17.3c-0.2,0.5-0.4,1-0.5,1.5
		C171.2,254.2,192.8,264.7,205.8,267z"/>
	<path class="st4" d="M406.3,239.9v2.1c0,8.8-1.8,17.3-5.1,25.3c12.8-1.6,36.4-12.3,30.1-32c-4.3-13.4-13.8-12.6-19.9-10.5
		C410.9,233,408.6,238.1,406.3,239.9z"/>
	<path class="st2" d="M321.1,330.6c-19.9,8-46-10.4-46-10.4s0,0,0,0c-1.9-0.4-3.7-0.9-5.6-1.4c0.9,3.8,2.1,11.6-0.2,19.5
		c6.9,3.6,18.1,7.7,34.2,7.7s27.3-4.1,34.2-7.7c-2.3-7.9-1.1-15.7-0.2-19.5c-0.3,0.1-0.7,0.2-1,0.3
		C334.6,322.6,330.4,326.9,321.1,330.6z"/>
	<path class="st2" d="M275.1,320.2C275.1,320.2,275.1,320.2,275.1,320.2c0,0,26.1,18.4,46,10.4c9.2-3.7,13.5-8,15.4-11.5
		c-10.4,2.8-21.4,4.3-33,4.3C293.7,323.4,284.2,322.3,275.1,320.2z"/>
	<path class="st54" d="M275.1,320.2C275.1,320.2,275.1,320.2,275.1,320.2c0,0,26.1,18.4,46,10.4c9.2-3.7,13.5-8,15.4-11.5
		c-10.4,2.8-21.4,4.3-33,4.3C293.7,323.4,284.2,322.3,275.1,320.2z"/>
	<path class="st4" d="M405.6,240.3c-0.8,0.4-1.6,0.4-2.3,0c-2.9-1.7,5.1-11.9-15.8-35.7c-23.1-26.3-13.6-50.3-13.6-50.3
		s-3.3-2.6-12.9,0.1c-9.9,8.7-54.9,45.6-99.7,40.8c-16.8-1.8-28.2-4.2-36-6.7c-2.2,2.6-4.3,5.7-6.2,9v24.1c0,6.3-4.8,11.5-10.9,12.2
		c0,0.4,0,0.9,0,1.3c0.4,10.9-1.4,13.7-3.1,14l4.7,18.5c-1.2,0-2.6-0.2-4-0.5c9.8,24.2,33.6,43.4,63.8,51.8
		c-0.3-1.4-0.6-2.3-0.6-2.3h16.5c4.7-1.7,9.3-3.4,9.5-3.7c0.5-0.5,42.9-0.9,42.9-0.9s0.5,1.8-0.2,4.6h0.6c0,0-0.3,0.9-0.6,2.3
		c30.1-8.4,53.7-27.5,63.7-51.6c-0.9,0.1-1.7,0.2-2.4,0.2L405.6,240.3z M297.3,296.5c-10.6,0-19.2-8.6-19.2-19.2h38.4
		C316.5,287.9,307.9,296.5,297.3,296.5z"/>
	<path class="st4" d="M202.5,247.8c-0.5-0.5-1-1.1-1.5-1.8c0.4,7.3,2.1,14.3,4.8,21c1.5,0.3,2.8,0.4,4,0.5l-4.7-18.5
		C203.8,249.2,202.5,247.8,202.5,247.8z"/>
	<path class="st4" d="M406.3,239.9c-0.2,0.2-0.4,0.3-0.6,0.4l-6.9,27.2c0.8,0,1.6-0.1,2.4-0.2c3.3-8,5.1-16.4,5.1-25.3V239.9z"/>
	<path class="st4" d="M337.6,316.5c-0.2,0.8-0.6,1.7-1.1,2.6c0.3-0.1,0.7-0.2,1-0.3c0.3-1.4,0.6-2.3,0.6-2.3H337.6z"/>
	<path class="st4" d="M285.4,316.5H269c0,0,0.3,0.9,0.6,2.3c1.8,0.5,3.7,1,5.6,1.4C275.6,320.1,280.6,318.3,285.4,316.5z"/>
	<path class="st4" d="M337.6,316.5c0.8-2.7,0.2-4.6,0.2-4.6s-42.3,0.4-42.9,0.9c-0.3,0.3-4.8,2-9.5,3.7h18.1H337.6z"/>
	<path class="st4" d="M303.6,323.4c11.5,0,22.6-1.5,33-4.3c0.5-0.9,0.8-1.8,1.1-2.6h-34h-18.1c-4.9,1.8-9.9,3.5-10.3,3.7
		C284.2,322.3,293.7,323.4,303.6,323.4z"/>
	<path class="st4" d="M430.5,423.3c-0.5-1.7-1-3.4-1.6-5.1c-7.3,5.2-19.9,12-38.2,14.1v0l0,0c1.4,5.9,2.7,13.2,3.8,22
		C407.5,445.1,419.5,434.7,430.5,423.3z"/>
	<path class="st4" d="M235.9,180.3c-3.5,1-7.1,3.9-10.6,8.1c7.8,2.5,19.2,4.9,36,6.7c44.8,4.8,89.7-32,99.7-40.8
		c-5.8,1.6-13.9,5.1-24.9,12.3C306.8,185.6,235.9,180.3,235.9,180.3z"/>
	<path class="st54" d="M235.9,180.3c-3.5,1-7.1,3.9-10.6,8.1c7.8,2.5,19.2,4.9,36,6.7c44.8,4.8,89.7-32,99.7-40.8
		c-5.8,1.6-13.9,5.1-24.9,12.3C306.8,185.6,235.9,180.3,235.9,180.3z"/>
	<path class="st50" d="M224.7,108.2c19.8-18.2,55-20.4,77.5-19.7c3,0.1,3.7,4.2,0.9,5.3c-30.6,11.7-58.8,47.1-78.7,51.8
		c-1.8,0.4-3.5,0.8-5.2,1v12.3c1.9,0.6,3.8,1.1,5.8,1.7h40.9l16.9-3.2l39.1-2.3v-14.1h65.5c2.4-3.9,6.4-6.6,12.8-4.5
		c15.6,5.2,23.7,41.7,14.5,45.3c-2.2,0.8-5.1,0.6-8.3-0.4v46c0.8-0.5,2.7-1.6,5.1-2.5l0,0c0,0,0.4-2.1,6.1-1.2
		c0,0,27.2-90.8-31.3-97.2c0,0-36.9-58.6-111.7-46.5c-56.1,9-70.7,37-86.2,50.8h14.1C206.7,125.7,213.3,118.7,224.7,108.2z"/>
	<polygon class="st50" points="406.5,236.6 406.3,232.8 406.3,237.7 	"/>
	<path class="st50" d="M200.9,233.7h-5.6c1.5,4.9,3.4,9.2,5.8,12.3c-0.1-1.3-0.1-2.7-0.1-4V233.7z"/>
	<path class="st50" d="M406.3,232.8l0.3,3.8l-0.3,1.1v2.1c2.3-1.7,4.7-6.9,5.1-15.2c-2.5,0.9-4.4,2-5.1,2.5V232.8z"/>
	<path class="st50" d="M361,154.3c9.6-2.7,12.9-0.1,12.9-0.1s-9.5,24,13.6,50.3c20.9,23.8,12.9,34,15.8,35.7c0.7,0.4,1.5,0.4,2.3,0
		l0.6-2.5v-5l-0.4-5.4c0,0,0.1-0.1,0.4-0.3v-46c-10.2-3.4-23-15.2-22.8-26.6c0,0,0.3-8.1,3.8-13.8h-65.5v14.1l41.3-2.5
		C363.1,152.5,362.3,153.1,361,154.3z"/>
	<path class="st50" d="M265.8,160.5H225c5.7,1.6,11.7,3.1,18.1,4.4L265.8,160.5z"/>
	<path class="st50" d="M223.2,171.4c-1.4-0.3-2.7-0.7-4-1v2.9L223.2,171.4z"/>
	<path class="st50" d="M202.3,233.7l-0.2,2.9l3.1,12.4c1.7-0.3,3.4-3.1,3.1-14c0-0.4,0-0.9,0-1.3c-0.4,0-0.9,0.1-1.3,0.1H202.3z"/>
	<path class="st50" d="M219.1,197.4c1.9-3.4,4-6.4,6.2-9c-2.4-0.8-4.4-1.5-6.2-2.2V197.4z"/>
	<path class="st50" d="M202.3,233.7h-1.4v8.3c0,1.4,0,2.7,0.1,4c0.5,0.6,1,1.2,1.5,1.8c0,0,1.3,1.4,2.7,1.2l-3.1-12.4L202.3,233.7z"
		/>
	<path class="st50" d="M406.3,239.9v-2.1l-0.6,2.5C405.8,240.2,406,240,406.3,239.9z"/>
	<path class="st50" d="M406.3,232.8v-5.6c-0.3,0.2-0.4,0.3-0.4,0.3L406.3,232.8z"/>
	<polygon class="st50" points="321.8,154.9 282.7,157.3 265.8,160.5 321.8,160.5 	"/>
	<path class="st50" d="M312.3,168.9c1.7-0.2,2.2,2.3,0.5,2.7c-17.2,4.6-47.6,9.1-86.3,0.5c-1.1-0.3-2.3-0.5-3.3-0.8l-4,1.9v12.8
		c1.8,0.7,3.8,1.5,6.2,2.2c3.5-4.1,7.1-7.1,10.6-8.1c0,0,70.9,5.3,100.2-13.7c11-7.2,19.1-10.7,24.9-12.3c1.3-1.2,2-1.8,2-1.8
		l-41.3,2.5v5.6h-56l-22.8,4.4C263.9,169.3,288,171.7,312.3,168.9z"/>
	<path class="st50" d="M393.9,160.5h12.4v20.6c3.2,1,6.1,1.3,8.3,0.4c9.2-3.6,1.2-40.1-14.5-45.3c-6.4-2.1-10.4,0.6-12.8,4.5h6.6
		V160.5z"/>
	<path class="st55" d="M393.9,160.5h12.4v20.6c3.2,1,6.1,1.3,8.3,0.4c9.2-3.6,1.2-40.1-14.5-45.3c-6.4-2.1-10.4,0.6-12.8,4.5h6.6
		V160.5z"/>
	<path class="st50" d="M406.3,181.2v-20.6h-12.4v-19.7h-6.6c-3.5,5.6-3.8,13.8-3.8,13.8C383.3,166,396.1,177.8,406.3,181.2z"/>
	<path class="st55" d="M406.3,181.2v-20.6h-12.4v-19.7h-6.6c-3.5,5.6-3.8,13.8-3.8,13.8C383.3,166,396.1,177.8,406.3,181.2z"/>
	<path class="st50" d="M219.1,142.8v3.7c1.7-0.3,3.4-0.6,5.2-1c19.9-4.7,48.1-40.1,78.7-51.8c2.8-1.1,2.1-5.2-0.9-5.3
		c-22.4-0.7-57.7,1.6-77.5,19.7c-11.4,10.5-18,17.5-22.4,22.4h4.6C213.7,130.5,219.1,136,219.1,142.8z"/>
	<path class="st55" d="M219.1,142.8v3.7c1.7-0.3,3.4-0.6,5.2-1c19.9-4.7,48.1-40.1,78.7-51.8c2.8-1.1,2.1-5.2-0.9-5.3
		c-22.4-0.7-57.7,1.6-77.5,19.7c-11.4,10.5-18,17.5-22.4,22.4h4.6C213.7,130.5,219.1,136,219.1,142.8z"/>
	<path class="st50" d="M225,160.5c-2-0.5-3.9-1.1-5.8-1.7v1.7H225z"/>
	<path class="st56" d="M225,160.5c-2-0.5-3.9-1.1-5.8-1.7v1.7H225z"/>
	<path class="st50" d="M219.1,170.4c1.3,0.3,2.6,0.7,4,1l9.4-4.4l10.5-2c-6.4-1.3-12.4-2.8-18.1-4.4h-5.8V170.4z"/>
	<path class="st56" d="M219.1,170.4c1.3,0.3,2.6,0.7,4,1l9.4-4.4l10.5-2c-6.4-1.3-12.4-2.8-18.1-4.4h-5.8V170.4z"/>
	<path class="st50" d="M312.8,171.7c1.7-0.4,1.2-2.9-0.5-2.7c-24.3,2.8-48.3,0.3-69.2-4l-10.5,2l-9.4,4.4c1.1,0.3,2.2,0.5,3.3,0.8
		C265.2,180.8,295.6,176.2,312.8,171.7z"/>
	<path class="st56" d="M312.8,171.7c1.7-0.4,1.2-2.9-0.5-2.7c-24.3,2.8-48.3,0.3-69.2-4l-10.5,2l-9.4,4.4c1.1,0.3,2.2,0.5,3.3,0.8
		C265.2,180.8,295.6,176.2,312.8,171.7z"/>
	<path class="st125" d="M346,332.6c0,0-2.7,2.7-8.3,5.7c0.9,2.9,2.2,5.7,4.2,8.4l-38.4,7.5l-38.4-7.5c2-2.7,3.3-5.5,4.2-8.4
		c-5.6-3-8.3-5.7-8.3-5.7s-37.5,1.5-65.3-26.1c-1,7-4.1,21.4-13.4,33.9c0,0,0,0,0,0c9.3,8.3,18.2,15.1,25.4,19.2
		c21.3,12.2,19.2,27,19.2,27c-23.5-6.5-44.5-15.3-62.5-30.7c0,0,0,0,0,0c0,0,0,0,0,0c18.1,15.3,39.1,24.1,62.5,30.7v30.5v4.6
		c0.7,2.9,14.2,60,42.3,77.8c32.1-2.5,62.6-11,90.2-24.5c14-23.9,20.7-53.5,20.7-53.5v-4.5c0-3,4.2-3.9,5.4-1.1
		c1.6,3.8,3.5,9.1,5.2,16.3c18.3-2.1,30.9-8.9,38.2-14.1l0,0l0,0C416.8,381.2,393,343.8,346,332.6z"/>
	<path class="st125" d="M269.4,338.3c-0.9,2.9-2.2,5.7-4.2,8.4l38.4,7.5l38.4-7.5c-2-2.7-3.3-5.5-4.2-8.4
		c-6.9,3.6-18.1,7.7-34.2,7.7S276.2,342,269.4,338.3z"/>
	<path class="st125" d="M390.7,432.3L390.7,432.3c18.3-2.1,30.9-8.9,38.2-14.1l0,0C421.6,423.4,409,430.2,390.7,432.3z"/>
	<path class="st125" d="M359.4,475.2c7.1-3.5,14-7.2,20.7-11.3v-42.2C380.1,421.7,373.4,451.3,359.4,475.2z"/>
	<path class="st4" d="M110.6,257.5c-1.2-4.5-2.2-8.7-3-12.7c9.2,5.6,18.9,16.8,27.2,35.2c9.5,21.1,29.2,43.9,47.6,60.5
		c9.3-12.5,12.4-26.9,13.4-33.9c-10.6-10.6-19.9-25.4-25-46.2c-2.5-10.2-5-19-7.4-26.7h-57.9C106.6,240.6,108.3,248.5,110.6,257.5
		c12.6,49.1,30.9,79.1,53.8,98.5c0,0,0,0,0,0C141.5,336.5,123.3,306.6,110.6,257.5z"/>
	<path class="st125" d="M164.5,356C164.5,356,164.5,356,164.5,356c18.1,15.3,39.1,24.1,62.6,30.7c0,0,2.1-14.7-19.2-27
		c-7.1-4.1-16.1-10.8-25.4-19.2c0,0,0,0,0,0C178,346.4,172.2,352,164.5,356z"/>
	<path class="st54" d="M164.5,356C164.5,356,164.5,356,164.5,356c18.1,15.3,39.1,24.1,62.6,30.7c0,0,2.1-14.7-19.2-27
		c-7.1-4.1-16.1-10.8-25.4-19.2c0,0,0,0,0,0C178,346.4,172.2,352,164.5,356z"/>
	<path class="st4" d="M134.8,280c-8.3-18.4-18-29.6-27.2-35.2c0.9,4,1.9,8.2,3,12.7c12.6,49.1,30.9,79.1,53.8,98.5
		c7.7-4,13.5-9.5,18-15.5C164,323.9,144.2,301.1,134.8,280z"/>
	<path class="st54" d="M134.8,280c-8.3-18.4-18-29.6-27.2-35.2c0.9,4,1.9,8.2,3,12.7c12.6,49.1,30.9,79.1,53.8,98.5
		c7.7-4,13.5-9.5,18-15.5C164,323.9,144.2,301.1,134.8,280z"/>
	<path class="st0" d="M227,421.8c0-0.1,0-0.1,0-0.1v77.7c0,0,0,0,0,0V421.8z"/>
	<path class="st57" d="M227,421.8c0-0.1,0-0.1,0-0.1v77.7c0,0,0,0,0,0V421.8z"/>
	<path class="st125" d="M227,421.8v77.5c7.5,0.7,15.2,1.1,22.9,1.1c6.5,0,13-0.3,19.4-0.7C241.2,481.8,227.7,424.7,227,421.8z"/>
	<path class="st57" d="M227,421.8v77.5c7.5,0.7,15.2,1.1,22.9,1.1c6.5,0,13-0.3,19.4-0.7C241.2,481.8,227.7,424.7,227,421.8z"/>
	<path class="st104" d="M297.3,296.5c10.6,0,19.2-8.6,19.2-19.2h-38.4C278.1,287.9,286.7,296.5,297.3,296.5z"/>
	<path class="st126" d="M91.5,223.7v-7.5h12.4c0-3.1,0.2-5.9,0.6-8.4h-13v-7.5h15.1c1.6-3.6,3.8-6.3,6.7-8.3H91.5v-23.5h26.9v20.9
		c1.2-0.4,2.5-0.8,3.9-1.1v-3.9h30.8v7.5h-11.8c2.6,2,5.1,4.7,7.5,8.4h4.3v7.3c3.4,6.7,6.9,15.3,10.3,26.1h14.4
		c2.6-6.8,6.6-9.4,10.7-10.1h-28v-55.1h30.1c0.1-2.7,0.3-4.3,0.3-4.3c-10.1-6-15.1-13-17.6-18.2H91.5v-7.5h79.4c0-0.1,0-0.2,0-0.2
		c6.9-0.3,12.2-3.3,17.4-7.9H70.9c-6.8,0-12.3,5.5-12.3,12.3v78.6c0,6.8,5.5,12.3,12.3,12.3h34.6c-0.6-3.6-1-7-1.3-10.1H91.5z
		 M122.3,168.6h30.8v7.5h-30.8V168.6z M82.4,223.7H67.1v-55.1h15.2V223.7z M77,159.8c-6.3,0-11.4-5.1-11.4-11.4
		c0-6.3,5.1-11.4,11.4-11.4c6.3,0,11.4,5.1,11.4,11.4C88.5,154.7,83.3,159.8,77,159.8z"/>
	<path class="st126" d="M192.9,223.7h-4.3c-4.1,0.6-8.1,3.3-10.7,10.1h17.3C194.3,230.6,193.5,227.2,192.9,223.7z"/>
	<path class="st126" d="M208.2,233.6c6.1-0.7,10.9-5.9,10.9-12.2v-24.1C212.8,208.4,208.2,222.6,208.2,233.6z"/>
	<path class="st126" d="M200.9,226.3v-2.7H193C196.2,224.1,199.1,225.4,200.9,226.3z"/>
	<path class="st126" d="M170.8,138.6h23.5c2.1-1.6,4.3-4,8-8.1h-14.1c-5.2,4.6-10.4,7.6-17.4,7.9
		C170.8,138.4,170.8,138.5,170.8,138.6z"/>
	<path class="st126" d="M200.9,164.3c-16.2-6.9-20.6-14.1-21.8-18c0-0.1,0-0.1,0-0.2h-5.7c2.5,5.2,7.5,12.2,17.6,18.2
		c0,0-0.1,1.6-0.3,4.3h10.3V164.3z"/>
	<path class="st126" d="M198.6,146.1h-14.4c6.7,3,19.1,8,34.9,12.8v-12.3C210.8,147.8,203.9,147.3,198.6,146.1z"/>
	<path class="st126" d="M200.9,226.3c-1.8-0.9-4.6-2.2-7.8-2.7h-0.1c0.6,3.5,1.4,6.9,2.3,10.1h5.6V226.3z"/>
	<path class="st126" d="M208.6,178.3l10.6-5v-2.9c-7.3-1.9-13.4-4-18.3-6.1v4.3h4.5v55.1h-4.5v2.7c1.2,0.6,1.9,1.1,1.9,1.1l-0.5,6.3
		h4.6c0.5,0,0.9,0,1.3-0.1c0-11.1,4.6-25.2,10.9-36.2v-11.3C209.2,181.9,208.6,178.3,208.6,178.3z"/>
	<path class="st126" d="M202.3,233.7l0.5-6.3c0,0-0.7-0.5-1.9-1.1v7.4H202.3z"/>
	<path class="st126" d="M219.1,186.1v-12.8l-10.6,5C208.6,178.3,209.2,181.9,219.1,186.1z"/>
	<path class="st126" d="M206.3,146.1h-7.7c5.3,1.2,12.2,1.7,20.6,0.5v-3.7c0-6.8-5.5-12.3-12.3-12.3h-4.6c-3.7,4-5.9,6.5-8,8.1h12
		V146.1z"/>
	<path class="st126" d="M179,146.1c0,0.1,0,0.1,0,0.2c1.2,3.8,5.6,11.1,21.8,18v-3.7h18.3v-1.7c-15.9-4.7-28.2-9.8-34.9-12.8H179z"
		/>
	<path class="st126" d="M219.1,160.5h-18.3v3.7c4.9,2.1,10.9,4.2,18.3,6.1V160.5z"/>
	<path class="st126" d="M141.3,191.9h-19v-3.6c-1.4,0.3-2.7,0.7-3.9,1.1v2.6h-5.1c-2.9,2-5.2,4.7-6.7,8.3h42.3
		C146.4,196.7,143.9,193.9,141.3,191.9z"/>
	<path class="st126" d="M153.1,207.6v0.2h-48.7c-0.4,2.5-0.6,5.3-0.6,8.4h49.3v7.5h-48.9c0.3,3.1,0.7,6.4,1.3,10.1h57.9
		C160,222.9,156.6,214.3,153.1,207.6z"/>
	<path class="st0" d="M192.9,223.6c-0.2-1.1-0.4-2.2-0.5-3.3h-28.7c0-8,8.7-14.5,19.4-14.5c2.8,0,5.5,0.5,7.9,1.3
		c-0.2-2.1-0.3-4.2-0.4-6.3c-2,1.6-4.5,2.6-7.2,2.6c-6.3,0-11.3-5.1-11.3-11.3c0-6.3,5.1-11.3,11.3-11.3c2.6,0,5,0.9,6.9,2.3
		c0.1-6,0.3-11.1,0.4-14.5h-30.1v55.1h28C190,223.4,191.5,223.5,192.9,223.6z"/>
	<path class="st0" d="M192.9,223.6c-1.4-0.2-2.9-0.2-4.3,0L192.9,223.6C192.9,223.7,192.9,223.6,192.9,223.6z"/>
	<path class="st0" d="M200.9,223.7v-3.3h-8.5c0.2,1.1,0.4,2.2,0.5,3.3c0,0,0.1,0,0.1,0H200.9z"/>
	<path class="st0" d="M194.6,192.1c0,3.5-1.6,6.7-4.1,8.8c0.1,2.1,0.2,4.2,0.4,6.3c4.5,1.5,8.1,4.3,10,7.7v-46.2h-10.3
		c-0.2,3.3-0.4,8.4-0.4,14.5C192.9,185.1,194.6,188.4,194.6,192.1z"/>
	<path class="st0" d="M192.9,223.6C192.9,223.6,192.9,223.7,192.9,223.6l0.1,0C193,223.7,192.9,223.6,192.9,223.6z"/>
	<path class="st0" d="M200.9,220.3v3.3h4.5v-55.1h-4.5v46.2c0.9,1.7,1.5,3.6,1.5,5.5H200.9z"/>
	<path class="st0" d="M77,137c-6.3,0-11.4,5.1-11.4,11.4c0,6.3,5.1,11.4,11.4,11.4c6.3,0,11.4-5.1,11.4-11.4
		C88.5,142.1,83.3,137,77,137z"/>
	<rect x="67.1" y="168.6" class="st127" width="15.2" height="55.1"/>
	<rect x="122.3" y="168.6" class="st128" width="30.8" height="7.5"/>
	<path class="st128" d="M91.5,138.6v7.5h81.8c-1.9-3.9-2.3-6.8-2.4-7.5H91.5z"/>
	<path class="st128" d="M180.9,144.6c0.9,0.4,2,0.9,3.3,1.5h14.4c-2-0.5-3.8-1-5.4-1.5c-2.3-0.8-2.4-3.9-0.3-5
		c0.5-0.3,1-0.6,1.4-0.9h-23.5c0.1,0.7,0.6,3.6,2.4,7.5h5.7C178.8,145,179.9,144.1,180.9,144.6z"/>
	<path class="st128" d="M193.2,144.6c1.5,0.5,3.4,1.1,5.4,1.5h7.7v-7.5h-12c-0.5,0.3-0.9,0.6-1.4,0.9
		C190.8,140.7,190.9,143.7,193.2,144.6z"/>
	<path class="st128" d="M180.9,144.6c-1-0.5-2.1,0.4-2,1.5h5.2C182.9,145.5,181.8,145,180.9,144.6z"/>
	<path class="st128" d="M141.3,191.9h11.8v-7.5h-30.8v3.9c1.1-0.2,2.2-0.4,3.3-0.6C131.2,187,136.3,188.1,141.3,191.9z"/>
	<path class="st128" d="M141.3,191.9c-5-3.9-10.1-5-15.7-4.2c-1.1,0.2-2.2,0.4-3.3,0.6v3.6H141.3z"/>
	<path class="st128" d="M91.5,200.3v7.5h13c0.5-2.8,1.2-5.3,2.1-7.5H91.5z"/>
	<path class="st128" d="M148.8,200.3c1.4,2.1,2.9,4.5,4.3,7.3v-7.3H148.8z"/>
	<path class="st128" d="M106.6,200.3c-1,2.2-1.7,4.6-2.1,7.5h48.7v-0.2c-1.4-2.8-2.9-5.2-4.3-7.3H106.6z"/>
	<path class="st128" d="M91.5,223.7h12.7c-0.2-2.7-0.4-5.2-0.4-7.5H91.5V223.7z"/>
	<path class="st128" d="M104.2,223.7h48.9v-7.5h-49.3C103.9,218.5,104,221,104.2,223.7z"/>
	<path class="st129" d="M190.1,183.1c-1.9-1.5-4.3-2.3-6.9-2.3c-6.3,0-11.3,5.1-11.3,11.3c0,6.3,5.1,11.3,11.3,11.3
		c2.7,0,5.2-1,7.2-2.6C190.2,194.5,190.1,188.4,190.1,183.1z"/>
	<path class="st129" d="M194.6,192.1c0-3.7-1.8-6.9-4.5-9c-0.1,5.3,0,11.4,0.3,17.7C193,198.7,194.6,195.6,194.6,192.1z"/>
	<path class="st129" d="M182.9,205.8c-10.7,0-19.4,6.5-19.4,14.5h28.7c-0.7-4.3-1.1-8.8-1.5-13.2
		C188.4,206.3,185.8,205.8,182.9,205.8z"/>
	<path class="st129" d="M200.9,214.8c-1.9-3.4-5.5-6.2-10-7.7c0.3,4.5,0.8,8.9,1.5,13.2h8.5V214.8z"/>
	<path class="st129" d="M202.3,220.3c0-2-0.5-3.8-1.5-5.5v5.5H202.3z"/>
	<path class="st21" d="M118.4,168.6H91.5v23.5h21.8c1.5-1,3.2-1.9,5.1-2.6V168.6z"/>
	<path class="st21" d="M118.4,189.5c-1.9,0.7-3.6,1.5-5.1,2.6h5.1V189.5z"/>
</g>
</svg>
