<?xml version="1.0" encoding="utf-8"?>
<!-- Generator: Adobe Illustrator 22.0.1, SVG Export Plug-In . SVG Version: 6.00 Build 0)  -->
<svg version="1.1" id="Layer_1" xmlns="http://www.w3.org/2000/svg" xmlns:xlink="http://www.w3.org/1999/xlink" x="0px" y="0px"
	 viewBox="0 0 500 500" style="enable-background:new 0 0 500 500;" xml:space="preserve">
<style type="text/css">
	.st0{fill:#FFFFFF;}
	.st1{fill:#008CFF;}
	.st2{fill:#DAC0A7;}
	.st3{fill:#084C7A;}
	.st4{fill:#E9CEB2;}
	.st5{fill:#F7F7F7;}
	.st6{fill:#57CBF5;}
	.st7{fill:#231F20;}
	.st8{fill:#575051;}
	.st9{opacity:0.76;}
	.st10{fill:none;stroke:#FFFFFF;stroke-width:0.5;stroke-miterlimit:10;}
	.st11{fill:#F2D5B7;}
	.st12{fill:#0082FF;}
	.st13{fill:#FF3232;}
	.st14{fill:#009628;}
	.st15{opacity:0.5;}
	.st16{fill:none;stroke:#FFFFFF;stroke-width:10;stroke-miterlimit:10;}
	.st17{opacity:0.5;fill:#084C7A;}
	.st18{fill:#35AB47;}
	.st19{fill:#00B4FF;}
	.st20{fill:#ABADAE;}
	.st21{fill:#FFFF00;}
	.st22{opacity:0.38;fill:#009628;}
	.st23{fill:#BD0000;}
	.st24{fill:#008CFF;stroke:#FFFFFF;stroke-width:3;stroke-miterlimit:10;}
	.st25{fill:#FFFFFF;stroke:#FFFFFF;stroke-miterlimit:10;}
	.st26{fill:#4379BC;}
	.st27{fill:#084C7A;stroke:#FFFFFF;stroke-width:3;stroke-miterlimit:10;}
	.st28{fill:#CBCCCE;}
	.st29{fill:#A4A5A8;}
	.st30{fill:#BABCBE;}
	.st31{fill:#9D9FA1;}
	.st32{fill:#F1F2F2;}
	.st33{fill:#FF0000;}
	.st34{opacity:0.38;fill:#CBCCCE;}
	.st35{fill:#FFBD00;}
	.st36{fill:url(#SVGID_3_);}
	.st37{fill:url(#SVGID_4_);}
	.st38{fill:#CFCFCD;}
	.st39{fill:#E6E7E8;}
	.st40{fill:url(#SVGID_5_);}
	.st41{fill:#85888A;}
	.st42{fill:#ACADB0;}
	.st43{fill:#FF9600;}
	.st44{opacity:0.5;fill:url(#SVGID_6_);}
	.st45{opacity:0.3;fill:#E9CEB2;}
	.st46{fill:url(#SVGID_7_);}
	.st47{fill:#231FFF;}
	.st48{fill:none;stroke:#231FFF;stroke-miterlimit:10;}
	.st49{fill:#D5D7D8;}
	.st50{fill:#4A494E;}
	.st51{fill:none;stroke:#29336F;stroke-miterlimit:10;}
	.st52{fill:#B3B5B8;}
	.st53{fill:#E5CAAF;}
	.st54{opacity:0.5;fill:#E9CEB2;}
	.st55{opacity:8.000000e-02;fill:#FFFFFF;}
	.st56{opacity:0.15;fill:#4A494E;}
	.st57{opacity:0.15;fill:#084C7A;}
	.st58{fill:#E5E6E6;}
	.st59{fill:none;}
	.st60{fill:url(#SVGID_8_);}
	.st61{fill:url(#SVGID_9_);}
	.st62{fill:url(#SVGID_10_);}
	.st63{fill:url(#SVGID_11_);}
	.st64{fill:url(#SVGID_12_);}
	.st65{fill:url(#SVGID_13_);}
	.st66{fill:url(#SVGID_14_);}
	.st67{fill:url(#SVGID_15_);}
	.st68{opacity:0.2;fill:#0059F3;}
	.st69{fill:url(#SVGID_16_);}
	.st70{opacity:0.1;fill:#FFFFFF;}
	.st71{opacity:0.1;fill:#005AC8;}
	.st72{fill:url(#SVGID_17_);}
	.st73{fill:url(#SVGID_18_);}
	.st74{fill:url(#SVGID_19_);}
	.st75{fill:url(#SVGID_20_);}
	.st76{fill:url(#SVGID_21_);}
	.st77{fill:url(#SVGID_22_);}
	.st78{fill:url(#SVGID_23_);}
	.st79{opacity:0.5;fill:url(#SVGID_24_);}
	.st80{fill:url(#SVGID_25_);}
	.st81{opacity:0.25;fill:#005AC8;}
	.st82{fill:url(#SVGID_26_);}
	.st83{fill:url(#SVGID_27_);}
	.st84{fill:#CDCFD0;}
	.st85{fill:url(#SVGID_28_);}
	.st86{fill:url(#SVGID_29_);}
	.st87{fill:url(#SVGID_30_);}
	.st88{fill:url(#SVGID_31_);}
	.st89{opacity:0.5;fill:url(#SVGID_32_);}
	.st90{fill:url(#SVGID_33_);}
	.st91{fill:url(#SVGID_34_);}
	.st92{fill:url(#SVGID_35_);}
	.st93{fill:url(#SVGID_36_);}
	.st94{fill:url(#SVGID_37_);}
	.st95{fill:url(#SVGID_38_);}
	.st96{fill:url(#SVGID_39_);}
	.st97{fill:url(#SVGID_40_);}
	.st98{fill:url(#SVGID_41_);}
	.st99{opacity:0.2;fill:#DEC0A4;}
	.st100{fill:url(#SVGID_42_);}
	.st101{opacity:0.25;fill:#DBBCA0;}
	.st102{opacity:0.86;fill:#E9CEB2;}
	.st103{fill:none;stroke:#000000;stroke-miterlimit:10;}
	.st104{fill:#656668;}
	.st105{fill:#C09E5E;}
	.st106{fill:#B09053;}
	.st107{fill:#956F48;}
	.st108{opacity:0.3;fill:#8F6E45;}
	.st109{fill:#C3A060;}
	.st110{fill:#946E47;}
	.st111{fill:#DCBC7C;}
	.st112{opacity:0.5;fill:#F6EDCE;}
	.st113{opacity:0.5;fill:#FFF6D7;}
	.st114{fill:#B19154;}
	.st115{fill:none;stroke:#231F20;stroke-miterlimit:10;}
	.st116{opacity:0.33;fill:#946E47;}
	.st117{fill:#00A0FF;}
	.st118{fill:#656869;}
	.st119{fill:#DADBDC;}
	.st120{fill:#828487;}
	.st121{opacity:0.2;fill:#828487;}
	.st122{fill:#444748;}
	.st123{fill:#6A6C6E;}
	.st124{opacity:0.4;fill:#DADBDC;}
	.st125{fill:#00AAF0;}
	.st126{fill:#00C8FF;}
	.st127{fill:#97999C;}
	.st128{fill:#00A9E9;}
	.st129{fill:#356598;}
	.st130{fill:#BCBEC0;}
	.st131{fill:#9B9DA0;}
	.st132{fill:#230000;}
	.st133{fill:#521409;}
	.st134{fill:#D63101;}
	.st135{fill:#00B6FF;stroke:#FFFFFF;stroke-width:3;stroke-miterlimit:10;}
	.st136{fill:#FF6464;}
	.st137{opacity:0.42;}
	.st138{fill:none;stroke:#FFFFFF;stroke-width:2;stroke-miterlimit:10;}
	.st139{fill:#00B400;}
	.st140{fill:none;stroke:#938473;stroke-width:3;stroke-miterlimit:10;}
	.st141{opacity:0.3;fill:#084C7A;}
	.st142{fill:#5F6062;}
	.st143{fill:#008CFF;stroke:#F7F7F7;stroke-width:25;stroke-miterlimit:10;}
	.st144{fill:none;stroke:#F1F2F2;stroke-width:10;stroke-miterlimit:10;}
	.st145{fill:#939598;}
	.st146{fill:#F8F8F8;}
	.st147{fill:#4CAF50;}
	.st148{fill:#EC2024;}
	.st149{fill:#3953A3;}
	.st150{fill:#00C896;}
	.st151{fill:#008CFF;stroke:#FFFFFF;stroke-width:5;stroke-miterlimit:10;}
	.st152{fill:#A7A9AC;}
	.st153{fill:#E2E2E7;}
	.st154{fill:#E0E0E0;}
	.st155{fill:url(#SVGID_55_);}
	.st156{fill:url(#SVGID_56_);}
	.st157{fill:url(#SVGID_57_);}
	.st158{fill:url(#SVGID_58_);}
	.st159{fill:url(#SVGID_59_);}
	.st160{fill:url(#SVGID_60_);}
	.st161{fill:url(#SVGID_61_);}
	.st162{fill:url(#SVGID_62_);}
	.st163{fill:url(#SVGID_63_);}
	.st164{fill:url(#SVGID_64_);}
	.st165{fill:#A5C6CF;}
	.st166{fill:#8F9AA0;}
	.st167{fill:#545859;}
	.st168{fill:#6C8B7C;}
	.st169{opacity:0.9;fill:#A5C6CF;}
	.st170{fill:#C8E2F1;}
	.st171{fill:#C7C8CA;}
	.st172{fill:#F50000;}
</style>
<ellipse class="st32" cx="264.5" cy="473.4" rx="229.6" ry="15.4"/>
<g>
	<polygon class="st1" points="99.2,473.4 99.2,473.4 99.2,473.4 	"/>
	<path class="st1" d="M383.8,379.5c-13.1-40.1-38.9-80.6-89.7-92.7l-46,13.3l-46-13.3c-48.4,11.5-74.1,48.8-87.8,87l39.1,22.2
		c0.1-0.4,0.2-0.8,0.3-1.2c1.9-7.8,3.8-13.5,5.6-17.6c1.3-3,5.8-2.1,5.8,1.2v95h82.9H331v-95c0-3.3,4.5-4.3,5.8-1.2
		c1.5,3.4,3.1,8,4.7,14v-0.9H387C386,386.7,385,383.1,383.8,379.5z"/>
</g>
<path class="st2" d="M285.5,269.4h-37.5h-37.5c0,0,6.3,19-4.1,32.7l41.6,8.2l41.6-8.2C279.2,288.3,285.5,269.4,285.5,269.4z"/>
<path class="st54" d="M217.2,273.4c0,0,28.3,19.9,49.8,11.3c21.6-8.7,18.1-20.2,18.1-20.2s-45.8,0.4-46.4,1S217.2,273.4,217.2,273.4
	z"/>
<g>
	<path class="st4" d="M340.7,100.4V79.1h-78.1v21.3h-131v88.2c0,48.7,49.8,88.2,111.3,88.2c61.4,0,111.3-39.5,111.3-88.2v-88.2
		H340.7z"/>
	<path class="st54" d="M307.3,91.7c0,0-55.2,52.1-110.2,46.1c-55-5.9-57.2-18.2-57.2-18.2l26-12.3l54.4-10.5L307.3,91.7z"/>
	<path class="st50" d="M120.8,104.5c0,0-2.6,90.6,15.5,108.9c0,0,3.7-4.1,0.3-31.9c-2.6-21.4,17.5-60.4,31.6-64.4
		c0,0,78.2,10.4,109.9-10.2S326,96.3,326,96.3s-10.7,23.2,14.3,51.7c22.7,25.8,4.1,64.9,7.3,66.8s11.3-32,12.1-44.9
		c0,0,0.4-2.3,6.6-1.3c0,0,29.5-98.3-33.9-105.3c0,0-40-63.4-121-50.4S129.2,75.4,99.1,76.5C99.1,76.5,100.5,92.3,120.8,104.5z"/>
	<path class="st55" d="M329.4,94c0,0,1-25.4,18-19.8c16.9,5.6,25.7,45.2,15.7,49.1C353.1,127.1,329.2,110.2,329.4,94z"/>
	<path class="st55" d="M123,77.6c-2.3,1.2-2.1,4.6,0.3,5.5c6.9,2.5,18.4,4.7,33.8,1.1c21.6-5.1,52.1-43.4,85.3-56.1
		c3-1.2,2.3-5.7-1-5.8c-24.3-0.7-62.5,1.7-83.9,21.4C132.5,66.6,128.7,74.5,123,77.6z"/>
	<path class="st56" d="M110.1,83.2c13.3,6.2,77,33.9,142.3,26.4c1.9-0.2,2.4,2.5,0.6,3c-18.7,5-51.5,9.8-93.5,0.5
		c-40.9-9.1-49.6-22.2-51.4-28C107.6,83.7,108.9,82.6,110.1,83.2z"/>
</g>
<path class="st57" d="M331,383.3c0,0-20.4,90.1-64.3,90.1H331V383.3z"/>
<path class="st39" d="M248,434.5v0.3l0.1-0.2l0.1,0.2v-0.3l65.6-141l0,0c-6.1-2.7-12.6-4.9-19.7-6.6l0,0v0l-46,13.3l-46-13.3
	c-7,1.7-13.6,3.9-19.7,6.6l0,0L248,434.5z"/>
<polygon class="st3" points="264.5,314 248.1,300.1 231.6,314 241.4,331.7 232.7,401.6 248.1,434.5 263.4,401.6 254.7,331.7 "/>
<path class="st32" d="M248.1,300.1l-22.8,41l-42.9-47.7c0,0,9.9-4.4,19.7-6.6L248.1,300.1z"/>
<path class="st32" d="M248.1,300.1l22.8,41l42.9-47.7c0,0-9.9-4.4-19.7-6.6L248.1,300.1z"/>
<polygon class="st117" points="182.4,293.4 170.5,327.7 199.4,348.1 185,365.4 248.1,434.5 "/>
<polygon class="st117" points="313.8,293.4 325.6,327.7 296.7,348.1 311.1,365.4 248.1,434.5 "/>
<path class="st1" d="M350.1,205.6c3.2-14.9,7.8-45.9-0.1-77.3c-1.1-4.4,2.1-8.6,6.6-8.8c11.7-0.6,31.4,1.8,36.7,22.7
	c7.1,28.1,5,66.6-35.5,71.9C353.1,214.8,349.1,210.4,350.1,205.6z"/>
<path class="st1" d="M135.3,207.8c-3.3-15.7-10.4-54.3-5.2-77.9c0.7-3.3-2.1-6.2-5.4-5.7c-8.7,1.5-22.4,6.8-24.4,26.1
	c-2.7,26.5,0.9,55.5,29.1,63C132.8,214.3,136,211.3,135.3,207.8z"/>
<path class="st1" d="M367.2,115h-13.1c0,0-18.5-79.3-119.4-72.7c-93.2,6.2-102.9,77.2-102.9,77.2l-7.4,1.8c0,0,8.3-90.9,111.7-96.7
	C337.7,18.9,367.2,115,367.2,115z"/>
<path class="st1" d="M251,244.2c8.7,0,16.1,3.6,19.2,8.7c53.5-6.3,84.2-32.5,84.2-32.5s3-2.2,5.1,0.1c2.8,3.1,0.4,5.3,0.4,5.3
	c-32.5,27-68,35.3-89.7,37.7c-3.1,5-10.5,8.5-19,8.5c-11.4,0-20.7-6.2-20.7-13.9C230.3,250.4,239.6,244.2,251,244.2z"/>
<path class="st4" d="M417,423c0,0,2.5-19.4-13.9-27.4c0,0-6.4,11.2-6.5,11.6c-0.1,0.4,3,13.6,3,13.6L417,423z"/>
<g>
	<path class="st118" d="M417.4,324.9h-98.1c-5.3,0-10.9,4.3-12.6,9.5l-42.2,129.4c-1.7,5.3,1.2,9.5,6.4,9.5h98.1
		c5.3,0,10.9-4.3,12.6-9.5l42.2-129.4C425.5,329.2,422.6,324.9,417.4,324.9z"/>
	<path class="st119" d="M423.3,324.9h-98.1c-5.3,0-10.9,4.3-12.6,9.5l-42.2,129.4c-1.7,5.3,1.2,9.5,6.4,9.5h98.1
		c5.3,0,10.9-4.3,12.6-9.5l42.2-129.4C431.4,329.2,428.5,324.9,423.3,324.9z"/>
	<g>
		<g>
			<g>
				<path class="st120" d="M337.7,421.9l-0.5,1.5c-0.1,0.2-0.1,0.3-0.3,0.4c0,0.1-0.1,0.1-0.2,0.1c-0.1,0-0.1,0.1-0.2,0.1
					c-0.1,0-0.2,0.1-0.2,0.1c-0.1,0-0.2,0-0.3,0c-0.1,0-0.2,0-0.3,0c-0.1,0-0.1-0.1-0.2-0.1c0,0-0.1-0.1-0.1-0.1c0,0,0-0.1-0.1-0.1
					c0-0.1,0-0.3,0-0.4l0.5-1.5h0.3l-0.5,1.5c0,0.1,0,0.1,0,0.2c0,0,0,0.1,0,0.1c0,0,0,0.1,0.1,0.1c0,0,0.1,0,0.1,0.1
					c0.1,0,0.2,0.1,0.3,0.1c0.1,0,0.2,0,0.3-0.1c0,0,0.1,0,0.1-0.1c0,0,0.1-0.1,0.1-0.1c0,0,0.1-0.1,0.1-0.1c0,0,0.1-0.1,0.1-0.2
					l0.5-1.5H337.7z"/>
				<path class="st120" d="M338,421.3l-0.1,0.3h-0.9l0.1-0.4h-0.2l0.1-0.3h0.3c0,0,0,0,0.1,0c0,0,0,0,0,0c0,0,0,0,0,0.1l-0.1,0.3
					H338z"/>
				<path class="st120" d="M338.5,421.8C338.5,421.8,338.6,421.8,338.5,421.8c0.1,0,0.1,0,0.2,0c0,0,0.1,0,0.1,0.1
					c0,0,0.1,0.1,0.1,0.1c0,0,0,0.1,0,0.2c0,0.1,0,0.2-0.1,0.3l-0.5,1.6H338l0.5-1.6c0-0.1,0-0.1,0-0.2c0,0,0,0,0-0.1c0,0,0,0,0-0.1
					c0,0,0,0-0.1,0c0,0,0,0-0.1,0c-0.1,0-0.1,0-0.1,0c0,0-0.1,0-0.1,0c0,0-0.1,0-0.1,0c0,0,0,0,0,0l-0.2-0.2c0.1,0,0.1-0.1,0.2-0.1
					c0.1,0,0.1-0.1,0.2-0.1C338.3,421.9,338.4,421.8,338.5,421.8z"/>
				<path class="st120" d="M339.9,421.9l-0.5,1.4c0,0.1,0,0.2,0,0.2c0,0.1,0,0.1,0,0.2c0,0,0.1,0.1,0.1,0.1c0,0,0.1,0,0.1,0
					c0,0,0.1,0,0.1,0s0,0,0.1,0c0.1,0,0.2,0,0.2,0c0.1,0,0.1-0.1,0.2-0.1c0.1,0,0.1-0.1,0.1-0.1c0,0,0.1-0.1,0.1-0.1
					c0,0,0-0.1,0.1-0.1c0,0,0,0,0-0.1l0.5-1.4h0.3l-0.7,2.3h-0.3l0.1-0.3c0,0,0,0.1-0.1,0.1c0,0-0.1,0.1-0.1,0.1c0,0-0.1,0-0.1,0.1
					c0,0-0.1,0-0.1,0c-0.1,0-0.2,0-0.3,0.1h-0.1c-0.1,0-0.2,0-0.3-0.1c-0.1,0-0.1-0.1-0.2-0.1s-0.1-0.1-0.1-0.2c0-0.1,0-0.1,0-0.2
					c0-0.1,0-0.1,0-0.2c0-0.1,0-0.1,0-0.1l0,0l0.5-1.4H339.9z"/>
				<path class="st120" d="M342.1,421.9l-0.5,1.4c0,0.1,0,0.2,0,0.2c0,0.1,0,0.1,0,0.2c0,0,0.1,0.1,0.1,0.1c0,0,0.1,0,0.1,0
					c0,0,0.1,0,0.1,0s0,0,0.1,0c0.1,0,0.2,0,0.2,0c0.1,0,0.1-0.1,0.2-0.1c0.1,0,0.1-0.1,0.1-0.1c0,0,0.1-0.1,0.1-0.1
					c0,0,0-0.1,0.1-0.1c0,0,0,0,0-0.1l0.5-1.4h0.3l-0.7,2.3h-0.3l0.1-0.3c0,0,0,0.1-0.1,0.1c0,0-0.1,0.1-0.1,0.1c0,0-0.1,0-0.1,0.1
					c0,0-0.1,0-0.1,0c-0.1,0-0.2,0-0.3,0.1h-0.1c-0.1,0-0.2,0-0.3-0.1c-0.1,0-0.1-0.1-0.2-0.1s-0.1-0.1-0.1-0.2c0-0.1,0-0.1,0-0.2
					c0-0.1,0-0.1,0-0.2c0-0.1,0-0.1,0-0.1l0,0l0.5-1.4H342.1z"/>
				<path class="st120" d="M343.6,420.9l-0.2,0.6h-0.3l0.2-0.6H343.6z"/>
				<path class="st120" d="M344.3,421.8C344.4,421.8,344.4,421.8,344.3,421.8c0.1,0,0.1,0,0.2,0c0,0,0.1,0,0.1,0.1
					c0,0,0.1,0.1,0.1,0.1c0,0,0,0.1,0,0.2c0,0.1,0,0.2-0.1,0.3l-0.5,1.6h-0.3l0.5-1.6c0-0.1,0-0.1,0-0.2c0,0,0,0,0-0.1
					c0,0,0,0,0-0.1c0,0,0,0-0.1,0c0,0,0,0-0.1,0c-0.1,0-0.1,0-0.1,0c0,0-0.1,0-0.1,0c0,0-0.1,0-0.1,0c0,0,0,0,0,0l-0.2-0.2
					c0.1,0,0.1-0.1,0.2-0.1c0.1,0,0.1-0.1,0.2-0.1C344.2,421.9,344.2,421.8,344.3,421.8z"/>
				<path class="st120" d="M346.7,423.3c-0.1,0.2-0.1,0.3-0.3,0.4c0,0.1-0.1,0.1-0.2,0.1c-0.1,0-0.1,0.1-0.2,0.1s-0.2,0.1-0.2,0.1
					c-0.1,0-0.2,0-0.3,0c-0.1,0-0.2,0-0.3,0c-0.1,0-0.1-0.1-0.2-0.1c0,0-0.1-0.1-0.1-0.1c0,0,0-0.1-0.1-0.1c0-0.1,0-0.3,0-0.4
					l0.1-0.5h0.6l-0.1,0.3h-0.3l0,0.1c0,0.1,0,0.1,0,0.2c0,0,0,0.1,0,0.1c0,0,0,0.1,0.1,0.1c0,0,0.1,0,0.1,0.1
					c0.1,0,0.2,0.1,0.3,0.1c0.1,0,0.2,0,0.3-0.1c0,0,0.1,0,0.1-0.1c0,0,0.1-0.1,0.1-0.1c0,0,0.1-0.1,0.1-0.1c0,0,0.1-0.1,0.1-0.2
					l0.2-0.7c0-0.1,0-0.1,0-0.2c0,0,0-0.1,0-0.1c0,0,0-0.1-0.1-0.1c0,0-0.1,0-0.1-0.1c-0.1,0-0.2-0.1-0.3-0.1h0c0,0-0.1,0-0.1,0
					c0,0-0.1,0-0.2,0c-0.1,0-0.1,0.1-0.2,0.1c-0.1,0-0.1,0.1-0.2,0.2h-0.3c0,0,0-0.1,0.1-0.1c0,0,0.1-0.1,0.1-0.1
					c0-0.1,0.1-0.1,0.2-0.1c0.1,0,0.1-0.1,0.2-0.1c0.1,0,0.2-0.1,0.2-0.1c0.1,0,0.2,0,0.3,0c0.1,0,0.2,0,0.3,0
					c0.1,0,0.1,0.1,0.2,0.1c0,0,0.1,0.1,0.1,0.1c0,0,0,0.1,0.1,0.1c0,0.1,0,0.3,0,0.4L346.7,423.3z"/>
				<path class="st120" d="M349.2,421.9l-0.5,1.6c0,0.1-0.1,0.2-0.1,0.2s-0.1,0.1-0.2,0.2c-0.1,0-0.1,0.1-0.2,0.1s-0.1,0-0.2,0.1
					c-0.1,0-0.1,0-0.1,0c0,0-0.1,0-0.1,0h-0.4c-0.1,0-0.2,0-0.3,0c-0.1,0-0.1-0.1-0.2-0.1c0,0-0.1-0.1-0.1-0.1c0,0,0-0.1,0-0.1
					c0,0,0-0.1,0-0.1c0,0,0-0.1,0-0.1c0-0.1,0.1-0.2,0.1-0.2c0.1-0.1,0.1-0.1,0.2-0.1c0.1,0,0.1-0.1,0.1-0.1c0,0,0.1,0,0.1,0
					c0,0-0.1,0-0.1,0c0,0-0.1,0-0.1-0.1c0,0,0-0.1,0-0.1c0,0,0-0.1,0-0.1c0-0.1,0-0.1,0-0.2c0-0.1,0.1-0.2,0.1-0.2s0.1-0.1,0.1-0.2
					c0,0,0.1-0.1,0.1-0.1c0,0,0.1-0.1,0.1-0.1c0.1,0,0.2-0.1,0.3-0.1h0.5l-0.1,0.3H348c-0.1,0-0.1,0-0.1,0c0,0-0.1,0-0.1,0
					c0,0-0.1,0-0.1,0.1c0,0,0,0-0.1,0.1c0,0-0.1,0.1-0.1,0.2c0,0.1,0,0.1,0,0.1c0,0,0,0.1,0,0.1c0,0,0,0,0.1,0.1s0.1,0,0.1,0
					s0.1,0,0.1,0c0,0,0,0,0,0h0.3l-0.1,0.3h-0.3c-0.1,0-0.1,0-0.2,0c0,0-0.1,0-0.1,0c0,0-0.1,0-0.1,0.1c0,0,0,0-0.1,0.1
					c0,0,0,0,0,0.1c0,0,0,0,0,0c0,0.1,0,0.1,0,0.1c0,0,0,0.1,0,0.1c0,0,0,0,0.1,0.1c0,0,0.1,0,0.1,0s0,0,0.1,0c0,0,0,0,0,0h0h0.4
					c0.1,0,0.1,0,0.2,0c0.1,0,0.1-0.1,0.1-0.1c0,0,0.1-0.1,0.1-0.2l0.5-1.6H349.2z"/>
				<path class="st120" d="M348.3,424.3l-0.2,0.6c0,0,0,0.1-0.1,0.1c0,0-0.1,0-0.1,0h-0.4c0,0-0.1,0-0.1,0c0,0,0-0.1,0-0.1l0.1-0.3
					h-0.1l0.1-0.3h0.3c0,0,0.1,0,0.1,0c0,0,0,0,0,0c0,0,0,0,0,0.1l-0.1,0.3h0.2l0.1-0.4H348.3z"/>
				<path class="st120" d="M349.3,420.9l-0.2,0.6h-0.3l0.2-0.6H349.3z"/>
			</g>
		</g>
		<polygon class="st120" points="370.9,400 370.9,400 365.6,394.3 365.6,394.3 		"/>
		<polygon class="st121" points="364.6,400 358.4,412.3 352.7,412.3 352.7,412.3 358.4,412.3 364.6,400 370.9,400 370.9,400 		"/>
		<polygon class="st121" points="365.6,394.3 369.3,386.3 369.3,386.3 365.6,394.3 		"/>
		<path class="st120" d="M355.8,405.9C355.8,405.9,355.8,405.9,355.8,405.9C355.8,405.9,355.8,405.9,355.8,405.9z"/>
		<path class="st120" d="M356.1,405.2c-0.1,0.1-0.1,0.3-0.2,0.5C356,405.5,356.1,405.3,356.1,405.2z"/>
		<path class="st121" d="M355.9,405.7c0,0.1-0.1,0.1-0.1,0.2C355.8,405.8,355.9,405.8,355.9,405.7z"/>
		<polygon class="st121" points="358.6,397.4 351.8,393.8 351.8,393.8 358.6,397.4 		"/>
		<path class="st120" d="M356.2,404.8l2.4-7.4l-6.9-3.7l-9.3,3.7l-2.4,7.4c0,0-2.6,6.9,5,8.6c0.2-2.2,0.3-7.5-3.4-10.4
			c0,0,3.5-0.5,5.5,4.2c0,0,7.2-6.1,9-5.6c0,0-7.4,5.7-10.2,11.8C354.3,411.5,356.2,404.8,356.2,404.8z M347.9,404.9
			c-1.1,0-1.7-1.1-1.3-2.4c0.4-1.3,1.7-2.4,2.8-2.4s1.7,1.1,1.3,2.4C350.3,403.8,349,404.9,347.9,404.9z"/>
		<g>
			<path class="st120" d="M331.3,417.4c0-0.1-0.1-0.1-0.2-0.2c0,0-0.1,0-0.1-0.1c0,0,0.1,0,0.1-0.1c0.1-0.1,0.2-0.1,0.2-0.2
				c0.1-0.1,0.1-0.1,0.2-0.2c0.1-0.1,0.1-0.2,0.1-0.3c0.1-0.2,0.1-0.3,0.1-0.4c0-0.1-0.1-0.2-0.2-0.3c-0.1-0.1-0.2-0.1-0.3-0.2
				c-0.1,0-0.3-0.1-0.6-0.1h-0.9c-0.1,0-0.1,0-0.2,0.1c-0.1,0-0.1,0.1-0.2,0.2l-1,3.1c0,0.1,0,0.2,0,0.2c0,0,0.1,0.1,0.2,0.1h1
				c0.1,0,0.3,0,0.4,0c0.1,0,0.3,0,0.4-0.1c0.1,0,0.2-0.1,0.3-0.1c0.1-0.1,0.2-0.1,0.3-0.2c0.1-0.1,0.2-0.2,0.2-0.3
				c0.1-0.1,0.1-0.2,0.2-0.4c0-0.1,0.1-0.2,0.1-0.3C331.4,417.6,331.4,417.5,331.3,417.4z M329.8,418.5h-0.5l0.3-0.9h0.4
				c0.1,0,0.2,0,0.3,0c0.1,0,0.1,0.1,0.2,0.1c0,0,0.1,0.1,0.1,0.1c0,0.1,0,0.1,0,0.2c0,0.1-0.1,0.1-0.1,0.2c0,0.1-0.1,0.1-0.2,0.1
				c-0.1,0-0.1,0.1-0.2,0.1C330,418.5,329.9,418.5,329.8,418.5z M330.7,416.7c0,0.1-0.1,0.1-0.1,0.1c0,0-0.1,0.1-0.2,0.1
				c-0.1,0-0.1,0-0.2,0h-0.4l0.3-0.8h0.3c0.1,0,0.2,0,0.2,0c0.1,0,0.1,0,0.1,0.1c0,0,0,0.1,0,0.1c0,0.1,0,0.1,0,0.2
				C330.8,416.6,330.8,416.7,330.7,416.7z"/>
			<path class="st120" d="M334.6,418.9l-0.1-3.2c0,0,0-0.1,0-0.1c0,0,0-0.1-0.1-0.1c0,0-0.1,0-0.2,0c-0.1,0-0.2,0-0.3,0
				c-0.1,0-0.2,0-0.2,0c-0.1,0-0.1,0-0.2,0c0,0-0.1,0-0.1,0.1c0,0-0.1,0.1-0.1,0.1l-2.2,3.2c0,0.1-0.1,0.1-0.1,0.2
				c0,0.1,0,0.1,0,0.1c0,0,0.1,0.1,0.1,0.1c0,0,0.1,0,0.2,0c0.1,0,0.1,0,0.2,0c0.1,0,0.1,0,0.1,0c0,0,0.1,0,0.1-0.1c0,0,0,0,0.1-0.1
				l0.4-0.7h1.3l0,0.7c0,0,0,0.1,0,0.1c0,0,0,0,0.1,0.1c0,0,0.1,0,0.1,0c0.1,0,0.1,0,0.2,0c0.1,0,0.2,0,0.2,0c0.1,0,0.1,0,0.2-0.1
				c0,0,0.1-0.1,0.1-0.1C334.6,419,334.6,418.9,334.6,418.9z M333.7,417.7h-0.9l0.9-1.3L333.7,417.7z"/>
			<path class="st120" d="M339.1,415.5c0,0-0.1,0-0.1,0c0,0-0.1,0-0.2,0c-0.1,0-0.1,0-0.2,0c0,0-0.1,0-0.1,0c0,0-0.1,0-0.1,0.1
				c0,0,0,0.1-0.1,0.1l-0.6,1.7c0,0.1-0.1,0.3-0.1,0.4c0,0.1,0,0.1,0,0.2c0,0,0,0,0,0c0-0.1,0-0.2,0-0.2c0-0.1,0-0.2,0-0.2
				c0-0.1,0-0.2,0-0.2l-0.3-1.3c0-0.1,0-0.1,0-0.2c0-0.1,0-0.1-0.1-0.1c0,0-0.1-0.1-0.1-0.1c0,0-0.1,0-0.2,0h-0.4
				c-0.1,0-0.2,0-0.2,0.1c-0.1,0.1-0.1,0.1-0.2,0.2l-1.1,3.2c0,0,0,0.1,0,0.1c0,0,0,0,0.1,0.1c0,0,0.1,0,0.1,0c0,0,0.1,0,0.2,0
				c0.1,0,0.1,0,0.2,0c0,0,0.1,0,0.1,0c0,0,0.1,0,0.1-0.1c0,0,0,0,0-0.1l0.6-1.9c0-0.1,0.1-0.3,0.1-0.4c0,0,0-0.1,0-0.1
				c0,0,0,0.1,0,0.1c0,0.1,0,0.2,0.1,0.3l0.3,1.7c0,0.1,0,0.2,0.1,0.2c0,0.1,0,0.1,0.1,0.2c0,0,0.1,0.1,0.1,0.1c0,0,0.1,0,0.2,0h0.3
				c0,0,0.1,0,0.1,0c0,0,0.1,0,0.1-0.1c0,0,0.1-0.1,0.1-0.1c0,0,0.1-0.1,0.1-0.1l1.1-3.2C339.1,415.6,339.1,415.6,339.1,415.5
				C339.1,415.5,339.1,415.5,339.1,415.5z"/>
			<path class="st120" d="M344.1,415.5c0,0-0.1,0-0.1,0c0,0-0.1,0-0.2,0c-0.1,0-0.1,0-0.2,0c0,0-0.1,0-0.1,0c0,0-0.1,0-0.1,0.1
				c0,0,0,0.1-0.1,0.1l-0.6,1.7c0,0.1-0.1,0.3-0.1,0.4c0,0.1,0,0.1,0,0.2c0,0,0,0,0,0c0-0.1,0-0.2,0-0.2c0-0.1,0-0.2,0-0.2
				c0-0.1,0-0.2,0-0.2l-0.3-1.3c0-0.1,0-0.1,0-0.2c0-0.1,0-0.1-0.1-0.1c0,0-0.1-0.1-0.1-0.1c0,0-0.1,0-0.2,0h-0.4
				c-0.1,0-0.2,0-0.2,0.1c-0.1,0.1-0.1,0.1-0.2,0.2L340,419c0,0,0,0.1,0,0.1c0,0,0,0,0.1,0.1c0,0,0.1,0,0.1,0c0,0,0.1,0,0.2,0
				c0.1,0,0.1,0,0.2,0c0,0,0.1,0,0.1,0c0,0,0.1,0,0.1-0.1c0,0,0,0,0-0.1l0.6-1.9c0-0.1,0.1-0.3,0.1-0.4c0,0,0-0.1,0-0.1
				c0,0,0,0.1,0,0.1c0,0.1,0,0.2,0.1,0.3l0.3,1.7c0,0.1,0,0.2,0.1,0.2c0,0.1,0,0.1,0.1,0.2c0,0,0.1,0.1,0.1,0.1c0,0,0.1,0,0.2,0h0.3
				c0,0,0.1,0,0.1,0c0,0,0.1,0,0.1-0.1c0,0,0.1-0.1,0.1-0.1c0,0,0.1-0.1,0.1-0.1l1.1-3.2C344.2,415.6,344.2,415.6,344.1,415.5
				C344.2,415.5,344.1,415.5,344.1,415.5z"/>
			<path class="st120" d="M346.9,418.9l-0.1-3.2c0,0,0-0.1,0-0.1c0,0,0-0.1-0.1-0.1c0,0-0.1,0-0.2,0c-0.1,0-0.2,0-0.3,0
				c-0.1,0-0.2,0-0.2,0c-0.1,0-0.1,0-0.2,0c0,0-0.1,0-0.1,0.1c0,0-0.1,0.1-0.1,0.1l-2.2,3.2c0,0.1-0.1,0.1-0.1,0.2
				c0,0.1,0,0.1,0,0.1c0,0,0.1,0.1,0.1,0.1c0,0,0.1,0,0.2,0c0.1,0,0.1,0,0.2,0c0.1,0,0.1,0,0.1,0c0,0,0.1,0,0.1-0.1c0,0,0,0,0.1-0.1
				l0.4-0.7h1.3l0,0.7c0,0,0,0.1,0,0.1c0,0,0,0,0.1,0.1c0,0,0.1,0,0.1,0c0.1,0,0.1,0,0.2,0c0.1,0,0.2,0,0.2,0c0.1,0,0.1,0,0.2-0.1
				c0,0,0.1-0.1,0.1-0.1C346.9,419,346.9,418.9,346.9,418.9z M346,417.7h-0.9l0.9-1.3L346,417.7z"/>
			<path class="st120" d="M352.1,415.5c-0.1,0-0.1,0-0.2,0c-0.1,0-0.1,0-0.2,0c-0.1,0-0.1,0-0.1,0c0,0-0.1,0-0.1,0.1
				c0,0,0,0.1-0.1,0.1l-0.7,0.9c-0.1,0.1-0.1,0.2-0.2,0.3c0,0.1-0.1,0.1-0.1,0.2c0-0.1,0-0.1,0-0.2c0-0.1,0-0.2,0-0.3l-0.1-0.9
				c0,0,0-0.1,0-0.1c0,0,0,0-0.1-0.1c0,0-0.1,0-0.1,0c-0.1,0-0.1,0-0.2,0c-0.1,0-0.2,0-0.2,0c-0.1,0-0.1,0-0.2,0
				c0,0-0.1,0.1-0.1,0.1c0,0,0,0.1,0,0.2l0.3,2l-0.4,1.3c0,0,0,0.1,0,0.1c0,0,0,0,0.1,0.1c0,0,0.1,0,0.1,0c0,0,0.1,0,0.2,0
				c0.1,0,0.1,0,0.2,0c0.1,0,0.1,0,0.1,0c0,0,0.1,0,0.1-0.1c0,0,0-0.1,0.1-0.1l0.4-1.3l1.6-2c0.1-0.1,0.1-0.1,0.1-0.2
				c0-0.1,0-0.1,0-0.1C352.2,415.5,352.2,415.5,352.1,415.5z"/>
			<path class="st120" d="M355.6,415.5c0,0-0.1,0-0.1,0c0,0-0.1,0-0.2,0c-0.1,0-0.1,0-0.2,0c-0.1,0-0.1,0-0.1,0c0,0-0.1,0-0.1,0.1
				c0,0,0,0.1-0.1,0.1l-0.7,2.2c0,0.1-0.1,0.2-0.2,0.3c-0.1,0.1-0.1,0.2-0.2,0.2c-0.1,0.1-0.2,0.1-0.3,0.1c-0.1,0-0.2,0-0.3,0
				c-0.1,0-0.2,0-0.3,0c-0.1,0-0.1-0.1-0.2-0.1c0-0.1-0.1-0.1-0.1-0.2c0-0.1,0-0.2,0.1-0.4l0.7-2.1c0,0,0-0.1,0-0.1c0,0,0,0-0.1-0.1
				c0,0-0.1,0-0.1,0c0,0-0.1,0-0.2,0c-0.1,0-0.1,0-0.2,0c-0.1,0-0.1,0-0.1,0c0,0-0.1,0-0.1,0.1c0,0,0,0.1-0.1,0.1l-0.7,2.2
				c-0.1,0.2-0.1,0.4-0.1,0.6c0,0.2,0.1,0.3,0.2,0.5c0.1,0.1,0.2,0.2,0.4,0.3c0.2,0.1,0.4,0.1,0.6,0.1c0.2,0,0.5,0,0.7-0.1
				c0.2-0.1,0.4-0.2,0.6-0.3c0.2-0.1,0.3-0.3,0.5-0.5c0.1-0.2,0.2-0.4,0.3-0.6l0.7-2.2C355.6,415.6,355.6,415.6,355.6,415.5
				C355.6,415.5,355.6,415.5,355.6,415.5z"/>
			<path class="st120" d="M359.3,415.6C359.3,415.5,359.3,415.5,359.3,415.6c-0.1-0.1-0.1-0.1-0.2-0.1c0,0-0.1,0-0.2,0
				c-0.1,0-0.1,0-0.2,0c-0.1,0-0.1,0-0.1,0c0,0-0.1,0-0.1,0.1c0,0,0,0.1-0.1,0.1l-0.7,2.2c0,0.1-0.1,0.2-0.2,0.3
				c-0.1,0.1-0.1,0.2-0.2,0.2c-0.1,0.1-0.2,0.1-0.3,0.1c-0.1,0-0.2,0-0.3,0c-0.1,0-0.2,0-0.3,0c-0.1,0-0.1-0.1-0.2-0.1
				c0-0.1-0.1-0.1-0.1-0.2c0-0.1,0-0.2,0.1-0.4l0.7-2.1c0,0,0-0.1,0-0.1c0,0,0,0-0.1-0.1c0,0-0.1,0-0.1,0c0,0-0.1,0-0.2,0
				c-0.1,0-0.1,0-0.2,0c-0.1,0-0.1,0-0.1,0c0,0-0.1,0-0.1,0.1c0,0,0,0.1-0.1,0.1l-0.7,2.2c-0.1,0.2-0.1,0.4-0.1,0.6
				c0,0.2,0.1,0.3,0.2,0.5c0.1,0.1,0.2,0.2,0.4,0.3c0.2,0.1,0.4,0.1,0.6,0.1c0.2,0,0.5,0,0.7-0.1c0.2-0.1,0.4-0.2,0.6-0.3
				c0.2-0.1,0.3-0.3,0.5-0.5c0.1-0.2,0.2-0.4,0.3-0.6L359.3,415.6C359.4,415.6,359.4,415.6,359.3,415.6z"/>
		</g>
		<g>
			<path class="st120" d="M365.6,394.3l3.7-7.9l-4.3-2.4l-2.3,7.2l-7.4-8.2L328.5,400h6.3l-1.8,12.2h5.8c-2.1-3.2-0.6-7.2-0.6-7.2
				l2.9-9l11.4-4.5l8.5,4.5l-2.9,9c0,0-1.1,4-5.3,7.2h5.8l6.2-12.2h6.3L365.6,394.3z"/>
			<path class="st121" d="M365.6,394.3l3.7-7.9l-4.3-2.4l-2.3,7.2l-7.4-8.2l-2.8,8.6l8.5,4.5l-2.9,9c0,0-1.1,4-5.3,7.2h5.8l6.2-12.2
				h6.3L365.6,394.3z"/>
		</g>
	</g>
	<polygon class="st122" points="302.6,358.5 300.7,358.5 306.6,340.4 308.5,340.4 	"/>
	<polygon class="st122" points="309.3,338 307.4,338 308.5,334.7 310.3,334.7 	"/>
	<polygon class="st123" points="409.4,333.5 333.4,333.5 336.2,324.9 412.2,324.9 	"/>
	<polygon class="st120" points="337.1,472 315.4,472 314.9,473.4 336.6,473.4 	"/>
</g>
<path class="st54" d="M403.8,413.8l1.6-4.9c0,0,2.9,0.7,5.5,3.9L403.8,413.8z"/>
<path class="st124" d="M383.8,467c0,0-5.6,3.5-16.4,1.1c-10.8-2.5-18.7-16.7-12.1-29.5c6.6-12.8,17.8-19.7,23.9-17.2l-5.9,21.4
	l4.1,12.7L383.8,467z"/>
<path class="st4" d="M394,464.7c0,0-27.9,9.2-29.2-7.1s11.3-41.4,25.1-42.2s22.3-4.3,26.4,0.5C420.3,420.6,410.3,457.1,394,464.7z"
	/>
<path class="st54" d="M364.8,457.6c1.3,16.3,29.2,7.1,29.2,7.1c1.4-0.6,2.7-1.5,4-2.5c-21.9,1.7-15.6-36-15.6-36
	c0.6-5.3-2.6-5.6-4.8-3.8C369.5,431.2,363.9,446.5,364.8,457.6z"/>
<path class="st1" d="M135.4,317.1c0,0-49.9,73.1-21.1,88.1c28.8,15,58.6-18.9,58.6-18.9L187,363L135.4,317.1z"/>
<g>
	<rect x="138.2" y="263.6" class="st166" width="17.5" height="32.4"/>
	<path d="M148.6,406.4h-3.3c-6.5,0-11.7-5.2-11.7-11.7V289.1h26.7v105.6C160.3,401.2,155.1,406.4,148.6,406.4z"/>
	<path class="st167" d="M147,107c-46,0-83.4,37.3-83.4,83.4s37.3,83.4,83.4,83.4s83.4-37.3,83.4-83.4S193,107,147,107z M147,264.1
		c-40.8,0-73.8-33-73.8-73.8c0-40.8,33-73.8,73.8-73.8c40.8,0,73.8,33,73.8,73.8C220.8,231.1,187.7,264.1,147,264.1z"/>
	<path class="st168" d="M147,116.5c-40.8,0-73.8,33-73.8,73.8c0,40.8,33,73.8,73.8,73.8c40.8,0,73.8-33,73.8-73.8
		C220.8,149.6,187.7,116.5,147,116.5z M147,260.4c-38.7,0-70.1-31.4-70.1-70.1c0-38.7,31.4-70.1,70.1-70.1
		c38.7,0,70.1,31.4,70.1,70.1C217.1,229,185.7,260.4,147,260.4z"/>
	<circle class="st169" cx="147" cy="190.3" r="70.1"/>
	<g>
		<g>
			<path class="st170" d="M149.9,128.5c-13.1-0.7-25.3,2.7-35.6,9c-2.1,1.3-2.6,4.1-1.2,6.2l0,0c1.3,1.8,3.8,2.3,5.7,1.1
				c8-4.9,17.5-7.8,27.6-7.9c28.6-0.1,52.4,22.7,53.5,51.2c0.4,9.4-1.7,18.2-5.6,26c-1,2-0.3,4.4,1.6,5.6h0c2.2,1.3,4.9,0.5,6.1-1.8
				c4.3-8.6,6.7-18.4,6.5-28.7C208,156.9,182.2,130.2,149.9,128.5z"/>
			<circle class="st170" cx="189.6" cy="228.8" r="4.3"/>
		</g>
	</g>
</g>
<path class="st4" d="M108.5,329.2c0,0-0.4-15.9,28-15.9c18.9,0,40.7-0.3,40.7,15.2c0,15.5,0,51.6,0,51.6s-4.7,13.6-25.2,13.6
	s-44.2,0-44.2-15.8C107.7,371.6,108.5,329.2,108.5,329.2z"/>
<path class="st54" d="M151.9,393.8c20.5,0,25.2-13.6,25.2-13.6s0-36.1,0-51.6c0-10.8-10.6-13.9-23.4-14.8c0.1,0.9,0.6,1.7,1.6,2.6
	c6,5,7.9,26.6,5.7,46.8c-2.3,20.2-25.1,14.4-35.4,15.7c-10.2,1.3-15.8,6.2-15.9,6.3C116.1,393.8,135,393.8,151.9,393.8z"/>
<g>
	<g>
		<path class="st171" d="M419.9,106.1c-4,0-8,0-12,0c-0.6,0-0.9-0.1-0.9-0.8c-0.3-3.8,0-7.5,1.2-11.1c1.2-3.7,3.4-6.9,5.9-9.8
			c2.4-2.9,5.1-5.5,7.6-8.3c2.9-3.3,5.3-6.9,6.2-11.3c0.5-2.5,0.2-4.8-1.5-6.7c-1.5-1.6-3.4-2.4-5.5-2.9c-3-0.6-5.8-0.2-8.3,1.4
			c-2.2,1.4-3.4,3.5-3.9,6.1c-0.1,0.4-0.1,0.7-0.2,1.1c-0.1,1.2-0.1,1.2-1.2,1.2c-6.6,0-13.2,0-19.8,0c-0.8,0-1.1-0.2-1.1-1.1
			c0.1-5.5,0.9-10.8,3.4-15.7c3.2-6.3,8.1-10.6,14.6-13.3c3.9-1.6,8-2.5,12.2-2.8c6.3-0.5,12.4,0.2,18.2,2.6
			c5.3,2.2,9.7,5.7,13,10.5c2.9,4.3,4.5,9,5,14.1c0.8,8.1-1.5,15.1-6.3,21.5c-2.6,3.5-5.6,6.6-8.3,10c-2.5,3.2-4.6,6.7-5.3,10.8
			c-0.2,1.2-0.3,2.4-0.3,3.6c0,0.7-0.2,0.9-0.9,0.9C427.9,106.1,423.9,106.1,419.9,106.1z"/>
		<path class="st171" d="M419.9,140.7c-3.6,0.1-6.8-0.9-9.6-3.1c-2.8-2.2-4.3-5.1-4.6-8.6c-0.3-3.6,0.4-6.9,2.8-9.8
			c2.1-2.6,5-4.1,8.2-4.7c3.6-0.7,7-0.3,10.3,1.3c4.2,2.1,6.6,5.4,7.1,10.1c0.5,4.6-0.8,8.6-4.5,11.6
			C426.9,139.9,423.6,140.9,419.9,140.7z"/>
	</g>
</g>
</svg>
