<?xml version="1.0" encoding="utf-8"?>
<!-- Generator: Adobe Illustrator 22.0.1, SVG Export Plug-In . SVG Version: 6.00 Build 0)  -->
<svg version="1.1" id="Layer_1" xmlns="http://www.w3.org/2000/svg" xmlns:xlink="http://www.w3.org/1999/xlink" x="0px" y="0px"
	 viewBox="0 0 500 500" style="enable-background:new 0 0 500 500;" xml:space="preserve">
<style type="text/css">
	.st0{fill:#FFFFFF;}
	.st1{fill:#008CFF;}
	.st2{fill:#DAC0A7;}
	.st3{fill:#084C7A;}
	.st4{fill:#E9CEB2;}
	.st5{fill:#F7F7F7;}
	.st6{fill:#57CBF5;}
	.st7{fill:#231F20;}
	.st8{fill:#575051;}
	.st9{opacity:0.76;}
	.st10{fill:none;stroke:#FFFFFF;stroke-width:0.5;stroke-miterlimit:10;}
	.st11{fill:#F2D5B7;}
	.st12{fill:#0082FF;}
	.st13{fill:#FF3232;}
	.st14{fill:#009628;}
	.st15{opacity:0.5;}
	.st16{fill:none;stroke:#FFFFFF;stroke-width:10;stroke-miterlimit:10;}
	.st17{opacity:0.5;fill:#084C7A;}
	.st18{fill:#35AB47;}
	.st19{fill:#00B4FF;}
	.st20{fill:#ABADAE;}
	.st21{fill:#FFFF00;}
	.st22{opacity:0.38;fill:#009628;}
	.st23{fill:#BD0000;}
	.st24{fill:#008CFF;stroke:#FFFFFF;stroke-width:3;stroke-miterlimit:10;}
	.st25{fill:#FFFFFF;stroke:#FFFFFF;stroke-miterlimit:10;}
	.st26{fill:#4379BC;}
	.st27{fill:#084C7A;stroke:#FFFFFF;stroke-width:3;stroke-miterlimit:10;}
	.st28{fill:#CBCCCE;}
	.st29{fill:#A4A5A8;}
	.st30{fill:#BABCBE;}
	.st31{fill:#9D9FA1;}
	.st32{fill:#F1F2F2;}
	.st33{fill:#FF0000;}
	.st34{opacity:0.38;fill:#CBCCCE;}
	.st35{fill:#FFBD00;}
	.st36{fill:url(#SVGID_3_);}
	.st37{fill:url(#SVGID_4_);}
	.st38{fill:#CFCFCD;}
	.st39{fill:#E6E7E8;}
	.st40{fill:url(#SVGID_5_);}
	.st41{fill:#85888A;}
	.st42{fill:#ACADB0;}
	.st43{fill:#FF9600;}
	.st44{opacity:0.5;fill:url(#SVGID_6_);}
	.st45{opacity:0.3;fill:#E9CEB2;}
	.st46{fill:url(#SVGID_7_);}
	.st47{fill:#231FFF;}
	.st48{fill:none;stroke:#231FFF;stroke-miterlimit:10;}
	.st49{fill:#D5D7D8;}
	.st50{fill:#4A494E;}
	.st51{fill:none;stroke:#29336F;stroke-miterlimit:10;}
	.st52{fill:#B3B5B8;}
	.st53{fill:#E5CAAF;}
	.st54{opacity:0.5;fill:#E9CEB2;}
	.st55{opacity:8.000000e-02;fill:#FFFFFF;}
	.st56{opacity:0.15;fill:#4A494E;}
	.st57{opacity:0.15;fill:#084C7A;}
	.st58{fill:#E5E6E6;}
	.st59{fill:none;}
	.st60{fill:url(#SVGID_8_);}
	.st61{fill:url(#SVGID_9_);}
	.st62{fill:url(#SVGID_10_);}
	.st63{fill:url(#SVGID_11_);}
	.st64{fill:url(#SVGID_12_);}
	.st65{fill:url(#SVGID_13_);}
	.st66{fill:url(#SVGID_14_);}
	.st67{fill:url(#SVGID_15_);}
	.st68{opacity:0.2;fill:#0059F3;}
	.st69{fill:url(#SVGID_16_);}
	.st70{opacity:0.1;fill:#FFFFFF;}
	.st71{opacity:0.1;fill:#005AC8;}
	.st72{fill:url(#SVGID_17_);}
	.st73{fill:url(#SVGID_18_);}
	.st74{fill:url(#SVGID_19_);}
	.st75{fill:url(#SVGID_20_);}
	.st76{fill:url(#SVGID_21_);}
	.st77{fill:url(#SVGID_22_);}
	.st78{fill:url(#SVGID_23_);}
	.st79{opacity:0.5;fill:url(#SVGID_24_);}
	.st80{fill:url(#SVGID_25_);}
	.st81{opacity:0.25;fill:#005AC8;}
	.st82{fill:url(#SVGID_26_);}
	.st83{fill:url(#SVGID_27_);}
	.st84{fill:#CDCFD0;}
	.st85{fill:url(#SVGID_28_);}
	.st86{fill:url(#SVGID_29_);}
	.st87{fill:url(#SVGID_30_);}
	.st88{fill:url(#SVGID_31_);}
	.st89{opacity:0.5;fill:url(#SVGID_32_);}
	.st90{fill:url(#SVGID_33_);}
	.st91{fill:url(#SVGID_34_);}
	.st92{fill:url(#SVGID_35_);}
	.st93{fill:url(#SVGID_36_);}
	.st94{fill:url(#SVGID_37_);}
	.st95{fill:url(#SVGID_38_);}
	.st96{fill:url(#SVGID_39_);}
	.st97{fill:url(#SVGID_40_);}
	.st98{fill:url(#SVGID_41_);}
	.st99{opacity:0.2;fill:#DEC0A4;}
	.st100{fill:url(#SVGID_42_);}
	.st101{opacity:0.25;fill:#DBBCA0;}
	.st102{opacity:0.86;fill:#E9CEB2;}
	.st103{fill:none;stroke:#000000;stroke-miterlimit:10;}
	.st104{fill:#656668;}
	.st105{fill:#C09E5E;}
	.st106{fill:#B09053;}
	.st107{fill:#956F48;}
	.st108{opacity:0.3;fill:#8F6E45;}
	.st109{fill:#C3A060;}
	.st110{fill:#946E47;}
	.st111{fill:#DCBC7C;}
	.st112{opacity:0.5;fill:#F6EDCE;}
	.st113{opacity:0.5;fill:#FFF6D7;}
	.st114{fill:#B19154;}
	.st115{fill:none;stroke:#231F20;stroke-miterlimit:10;}
	.st116{opacity:0.33;fill:#946E47;}
	.st117{fill:#00A0FF;}
	.st118{fill:#656869;}
	.st119{fill:#DADBDC;}
	.st120{fill:#828487;}
	.st121{opacity:0.2;fill:#828487;}
	.st122{fill:#444748;}
	.st123{fill:#6A6C6E;}
	.st124{opacity:0.4;fill:#DADBDC;}
	.st125{fill:#00AAF0;}
	.st126{fill:#00C8FF;}
	.st127{fill:#97999C;}
	.st128{fill:#00A9E9;}
	.st129{fill:#356598;}
	.st130{fill:#BCBEC0;}
	.st131{fill:#9B9DA0;}
	.st132{fill:#230000;}
	.st133{fill:#521409;}
	.st134{fill:#D63101;}
	.st135{fill:#00B6FF;stroke:#FFFFFF;stroke-width:3;stroke-miterlimit:10;}
	.st136{fill:#FF6464;}
	.st137{opacity:0.42;}
	.st138{fill:none;stroke:#FFFFFF;stroke-width:2;stroke-miterlimit:10;}
	.st139{fill:#00B400;}
	.st140{fill:none;stroke:#938473;stroke-width:3;stroke-miterlimit:10;}
	.st141{opacity:0.3;fill:#084C7A;}
	.st142{fill:#5F6062;}
	.st143{fill:#008CFF;stroke:#F7F7F7;stroke-width:25;stroke-miterlimit:10;}
	.st144{fill:none;stroke:#F1F2F2;stroke-width:10;stroke-miterlimit:10;}
	.st145{fill:#939598;}
	.st146{fill:#F8F8F8;}
	.st147{fill:#4CAF50;}
	.st148{fill:#EC2024;}
	.st149{fill:#3953A3;}
	.st150{fill:#00C896;}
	.st151{fill:#008CFF;stroke:#FFFFFF;stroke-width:5;stroke-miterlimit:10;}
	.st152{fill:#A7A9AC;}
	.st153{fill:#E2E2E7;}
	.st154{fill:#E0E0E0;}
	.st155{fill:url(#SVGID_55_);}
	.st156{fill:url(#SVGID_56_);}
	.st157{fill:url(#SVGID_57_);}
	.st158{fill:url(#SVGID_58_);}
	.st159{fill:url(#SVGID_59_);}
	.st160{fill:url(#SVGID_60_);}
	.st161{fill:url(#SVGID_61_);}
	.st162{fill:url(#SVGID_62_);}
	.st163{fill:url(#SVGID_63_);}
	.st164{fill:url(#SVGID_64_);}
</style>
<g>
	<g>
		<g>
			<ellipse class="st58" cx="250" cy="464.4" rx="215.1" ry="14.4"/>
			<g>
				<path class="st4" d="M147.7,182.9c0,0-19-13-25.8,7.9c-6.9,21.4,20.9,32.3,33,32.7l-7.9-31.3L147.7,182.9z"/>
				<path class="st4" d="M353.8,182.9c0,0,19-13,25.8,7.9c6.9,21.4-20.9,32.3-33,32.7l7.9-31.3L353.8,182.9z"/>
				<path class="st2" d="M285.1,273.3H250h-35.1c0,0,5.9,17.8-3.8,30.6l38.9,7.7l38.9-7.7C279.2,291.1,285.1,273.3,285.1,273.3z"/>
				<path class="st54" d="M221.1,277.1c0,0,26.5,18.7,46.7,10.5c20.2-8.1,17-18.9,17-18.9s-42.9,0.4-43.5,0.9
					C240.7,270.1,221.1,277.1,221.1,277.1z"/>
				<path class="st4" d="M341.6,115V95h-73.1v20H145.8v82.6c0,45.6,46.7,82.6,104.2,82.6c57.6,0,104.2-37,104.2-82.6V115H341.6z"/>
				<path class="st4" d="M110.5,464.4h44.3c0-35.4,3.1-58.6,6.7-73.6c-18.5-2.1-31.4-9-38.7-14.3
					C108.4,420.6,110.5,464.4,110.5,464.4z"/>
				<path class="st3" d="M293.1,289.7c0,0-13.5,13.6-43.1,13.6s-43.1-13.6-43.1-13.6c-47.6,11.4-71.8,49.2-84.1,86.8
					c7.4,5.3,20.2,12.2,38.7,14.3c1.7-7.3,3.6-12.7,5.3-16.5c1.2-2.8,5.5-1.9,5.5,1.2v89H250h77.7v-89c0-3.1,4.3-4,5.5-1.2
					c1.7,3.9,3.5,9.2,5.3,16.5c18.5-2.1,31.4-9,38.7-14.3C364.9,338.9,340.7,301,293.1,289.7z"/>
				<path class="st4" d="M389.4,464.4h-44.3c0-35.4-3.1-58.6-6.7-73.6c18.5-2.1,31.4-9,38.7-14.3
					C391.5,420.6,389.4,464.4,389.4,464.4z"/>
				<path class="st54" d="M310.4,106.8c0,0-51.7,48.8-103.2,43.2c-51.5-5.5-53.6-17-53.6-17l24.3-11.5l50.9-9.8L310.4,106.8z"/>
				<path class="st50" d="M135.6,118.8c0,0-5.1,67.5,11.8,84.7c0,0,6.5,7.2,5.8-13c-0.7-20.2,14.9-51.8,28.1-55.5
					c0,0,72,5.3,101.7-13.9c29.7-19.3,38.4-12.5,38.4-12.5s-9.7,24.3,13.8,51c21.2,24.2,13.1,34.5,16.1,36.3s7.5-3.7,8.2-15.8
					c0,0,0.4-2.2,6.2-1.2c0,0,27.6-92.1-31.8-98.6c0,0-37.5-59.4-113.4-47.2s-76.9,58.5-105.1,59.5
					C115.3,92.6,116.6,107.5,135.6,118.8z"/>
				<path class="st55" d="M331,109c0,0,1-23.8,16.8-18.5s24.1,42.3,14.7,45.9C353.2,140,330.8,124.2,331,109z"/>
				<path class="st55" d="M137.7,93.7c-2.2,1.2-2,4.3,0.3,5.1c6.5,2.3,17.3,4.4,31.6,1c20.2-4.8,48.8-40.7,79.9-52.5
					c2.8-1.1,2.1-5.3-0.9-5.4c-22.8-0.7-58.5,1.6-78.6,20C146.6,83.4,143.1,90.8,137.7,93.7z"/>
				<path class="st56" d="M125.6,98.9c12.5,5.8,72.2,31.7,133.3,24.7c1.7-0.2,2.2,2.3,0.5,2.8c-17.5,4.6-48.3,9.2-87.5,0.5
					c-38.3-8.5-46.5-20.8-48.2-26.2C123.2,99.4,124.5,98.4,125.6,98.9z"/>
				<path class="st57" d="M327.7,380c0,0-19.1,84.4-60.2,84.4h60.2V380z"/>
			</g>
		</g>
		<g>
			<g>
				<circle class="st1" cx="390.6" cy="359.4" r="95.2"/>
				<path class="st0" d="M390.6,463.8c-57.6,0-104.4-46.8-104.4-104.4c0-57.6,46.8-104.4,104.4-104.4S495,301.9,495,359.4
					C495,417,448.2,463.8,390.6,463.8z M390.6,273.5c-47.4,0-86,38.6-86,86c0,47.4,38.6,86,86,86c47.4,0,86-38.6,86-86
					C476.6,312,438,273.5,390.6,273.5z"/>
			</g>
			<polygon class="st5" points="441.9,342.1 407.9,342.1 407.9,308.1 373.2,308.1 373.2,342.1 339.3,342.1 339.3,376.8 373.2,376.8 
				373.2,410.8 407.9,410.8 407.9,376.8 441.9,376.8 			"/>
		</g>
	</g>
	<path class="st104" d="M234,235.2c0,8.8,7.1,15.9,15.9,15.9c8.8,0,15.9-7.1,15.9-15.9H234z"/>
</g>
</svg>
