<?xml version="1.0" encoding="utf-8"?>
<!-- Generator: Adobe Illustrator 22.0.1, SVG Export Plug-In . SVG Version: 6.00 Build 0)  -->
<svg version="1.1" id="Layer_1" xmlns="http://www.w3.org/2000/svg" xmlns:xlink="http://www.w3.org/1999/xlink" x="0px" y="0px"
	 viewBox="0 0 500 500" style="enable-background:new 0 0 500 500;" xml:space="preserve">
<style type="text/css">
	.st0{fill:#FFFFFF;}
	.st1{fill:#008CFF;}
	.st2{fill:#DAC0A7;}
	.st3{fill:#084C7A;}
	.st4{fill:#E9CEB2;}
	.st5{fill:#F7F7F7;}
	.st6{fill:#57CBF5;}
	.st7{fill:#231F20;}
	.st8{fill:#575051;}
	.st9{opacity:0.76;}
	.st10{fill:none;stroke:#FFFFFF;stroke-width:0.5;stroke-miterlimit:10;}
	.st11{fill:#F2D5B7;}
	.st12{fill:#0082FF;}
	.st13{fill:#FF3232;}
	.st14{fill:#009628;}
	.st15{opacity:0.5;}
	.st16{fill:none;stroke:#FFFFFF;stroke-width:10;stroke-miterlimit:10;}
	.st17{opacity:0.5;fill:#084C7A;}
	.st18{fill:#35AB47;}
	.st19{fill:#00B4FF;}
	.st20{fill:#ABADAE;}
	.st21{fill:#FFFF00;}
	.st22{opacity:0.38;fill:#009628;}
	.st23{fill:#BD0000;}
	.st24{fill:#008CFF;stroke:#FFFFFF;stroke-width:3;stroke-miterlimit:10;}
	.st25{fill:#FFFFFF;stroke:#FFFFFF;stroke-miterlimit:10;}
	.st26{fill:#4379BC;}
	.st27{fill:#084C7A;stroke:#FFFFFF;stroke-width:3;stroke-miterlimit:10;}
	.st28{fill:#CBCCCE;}
	.st29{fill:#A4A5A8;}
	.st30{fill:#BABCBE;}
	.st31{fill:#9D9FA1;}
	.st32{fill:#F1F2F2;}
	.st33{fill:#FF0000;}
	.st34{opacity:0.38;fill:#CBCCCE;}
	.st35{fill:#FFBD00;}
	.st36{fill:url(#SVGID_3_);}
	.st37{fill:url(#SVGID_4_);}
	.st38{fill:#CFCFCD;}
	.st39{fill:#E6E7E8;}
	.st40{fill:url(#SVGID_5_);}
	.st41{fill:#85888A;}
	.st42{fill:#ACADB0;}
	.st43{fill:#FF9600;}
	.st44{opacity:0.5;fill:url(#SVGID_6_);}
	.st45{opacity:0.3;fill:#E9CEB2;}
	.st46{fill:url(#SVGID_7_);}
	.st47{fill:#231FFF;}
	.st48{fill:none;stroke:#231FFF;stroke-miterlimit:10;}
	.st49{fill:#D5D7D8;}
	.st50{fill:#4A494E;}
	.st51{fill:none;stroke:#29336F;stroke-miterlimit:10;}
	.st52{fill:#B3B5B8;}
	.st53{fill:#E5CAAF;}
	.st54{opacity:0.5;fill:#E9CEB2;}
	.st55{opacity:8.000000e-02;fill:#FFFFFF;}
	.st56{opacity:0.15;fill:#4A494E;}
	.st57{opacity:0.15;fill:#084C7A;}
	.st58{fill:#E5E6E6;}
	.st59{fill:none;}
	.st60{fill:url(#SVGID_8_);}
	.st61{fill:url(#SVGID_9_);}
	.st62{fill:url(#SVGID_10_);}
	.st63{fill:url(#SVGID_11_);}
	.st64{fill:url(#SVGID_12_);}
	.st65{fill:url(#SVGID_13_);}
	.st66{fill:url(#SVGID_14_);}
	.st67{fill:url(#SVGID_15_);}
	.st68{opacity:0.2;fill:#0059F3;}
	.st69{fill:url(#SVGID_16_);}
	.st70{opacity:0.1;fill:#FFFFFF;}
	.st71{opacity:0.1;fill:#005AC8;}
	.st72{fill:url(#SVGID_17_);}
	.st73{fill:url(#SVGID_18_);}
	.st74{fill:url(#SVGID_19_);}
	.st75{fill:url(#SVGID_20_);}
	.st76{fill:url(#SVGID_21_);}
	.st77{fill:url(#SVGID_22_);}
	.st78{fill:url(#SVGID_23_);}
	.st79{opacity:0.5;fill:url(#SVGID_24_);}
	.st80{fill:url(#SVGID_25_);}
	.st81{opacity:0.25;fill:#005AC8;}
	.st82{fill:url(#SVGID_26_);}
	.st83{fill:url(#SVGID_27_);}
	.st84{fill:#CDCFD0;}
	.st85{fill:url(#SVGID_28_);}
	.st86{fill:url(#SVGID_29_);}
	.st87{fill:url(#SVGID_30_);}
	.st88{fill:url(#SVGID_31_);}
	.st89{opacity:0.5;fill:url(#SVGID_32_);}
	.st90{fill:url(#SVGID_33_);}
	.st91{fill:url(#SVGID_34_);}
	.st92{fill:url(#SVGID_35_);}
	.st93{fill:url(#SVGID_36_);}
	.st94{fill:url(#SVGID_37_);}
	.st95{fill:url(#SVGID_38_);}
	.st96{fill:url(#SVGID_39_);}
	.st97{fill:url(#SVGID_40_);}
	.st98{fill:url(#SVGID_41_);}
	.st99{opacity:0.2;fill:#DEC0A4;}
	.st100{fill:url(#SVGID_42_);}
	.st101{opacity:0.25;fill:#DBBCA0;}
	.st102{opacity:0.86;fill:#E9CEB2;}
	.st103{fill:none;stroke:#000000;stroke-miterlimit:10;}
	.st104{fill:#656668;}
	.st105{fill:#C09E5E;}
	.st106{fill:#B09053;}
	.st107{fill:#956F48;}
	.st108{opacity:0.3;fill:#8F6E45;}
	.st109{fill:#C3A060;}
	.st110{fill:#946E47;}
	.st111{fill:#DCBC7C;}
	.st112{opacity:0.5;fill:#F6EDCE;}
	.st113{opacity:0.5;fill:#FFF6D7;}
	.st114{fill:#B19154;}
	.st115{fill:none;stroke:#231F20;stroke-miterlimit:10;}
	.st116{opacity:0.33;fill:#946E47;}
	.st117{fill:#00A0FF;}
	.st118{fill:#656869;}
	.st119{fill:#DADBDC;}
	.st120{fill:#828487;}
	.st121{opacity:0.2;fill:#828487;}
	.st122{fill:#444748;}
	.st123{fill:#6A6C6E;}
	.st124{opacity:0.4;fill:#DADBDC;}
	.st125{fill:#00AAF0;}
	.st126{fill:#00C8FF;}
	.st127{fill:#97999C;}
	.st128{fill:#00A9E9;}
	.st129{fill:#356598;}
	.st130{fill:#BCBEC0;}
	.st131{fill:#9B9DA0;}
	.st132{fill:#230000;}
	.st133{fill:#521409;}
	.st134{fill:#D63101;}
	.st135{fill:#00B6FF;stroke:#FFFFFF;stroke-width:3;stroke-miterlimit:10;}
	.st136{fill:#FF6464;}
	.st137{opacity:0.42;}
	.st138{fill:none;stroke:#FFFFFF;stroke-width:2;stroke-miterlimit:10;}
	.st139{fill:#00B400;}
	.st140{fill:none;stroke:#938473;stroke-width:3;stroke-miterlimit:10;}
	.st141{opacity:0.3;fill:#084C7A;}
	.st142{fill:#5F6062;}
	.st143{fill:#008CFF;stroke:#F7F7F7;stroke-width:25;stroke-miterlimit:10;}
	.st144{fill:none;stroke:#F1F2F2;stroke-width:10;stroke-miterlimit:10;}
	.st145{fill:#939598;}
	.st146{fill:#F8F8F8;}
	.st147{fill:#4CAF50;}
	.st148{fill:#EC2024;}
	.st149{fill:#3953A3;}
	.st150{fill:#00C896;}
	.st151{fill:#008CFF;stroke:#FFFFFF;stroke-width:5;stroke-miterlimit:10;}
	.st152{fill:#A7A9AC;}
	.st153{fill:#E2E2E7;}
	.st154{fill:#E0E0E0;}
	.st155{fill:url(#SVGID_55_);}
	.st156{fill:url(#SVGID_56_);}
	.st157{fill:url(#SVGID_57_);}
	.st158{fill:url(#SVGID_58_);}
	.st159{fill:url(#SVGID_59_);}
	.st160{fill:url(#SVGID_60_);}
	.st161{fill:url(#SVGID_61_);}
	.st162{fill:url(#SVGID_62_);}
	.st163{fill:url(#SVGID_63_);}
	.st164{fill:url(#SVGID_64_);}
</style>
<g>
	<ellipse class="st32" cx="264.5" cy="473.4" rx="229.6" ry="15.4"/>
	<g>
		<g>
			<path class="st4" d="M162,172.9c0,0-20.3-13.9-27.5,8.4c-7.4,22.8,22.3,34.4,35.2,34.9l-8.4-33.4L162,172.9z"/>
			<path class="st4" d="M382,172.9c0,0,20.3-13.9,27.5,8.4c7.4,22.8-22.3,34.4-35.2,34.9l8.4-33.4L382,172.9z"/>
			<path class="st2" d="M308.7,269.4h-37.5h-37.5c0,0,6.3,19-4.1,32.7l41.6,8.2l41.6-8.2C302.4,288.3,308.7,269.4,308.7,269.4z"/>
			<path class="st54" d="M240.4,273.4c0,0,28.3,19.9,49.8,11.3s18.1-20.2,18.1-20.2s-45.8,0.4-46.4,1
				C261.3,266,240.4,273.4,240.4,273.4z"/>
			<path class="st4" d="M369,100.4V79.1H291v21.3H160v88.2c0,48.7,49.8,88.2,111.3,88.2c61.4,0,111.3-39.5,111.3-88.2v-88.2H369z"/>
			<path class="st4" d="M420.1,473.4h-47.3c0-37.8-3.3-62.6-7.1-78.6c19.8-2.3,33.5-9.7,41.3-15.3
				C422.3,426.7,420.1,473.4,420.1,473.4z"/>
			<path class="st54" d="M335.7,91.7c0,0-55.2,52.1-110.2,46.1c-55-5.9-57.2-18.2-57.2-18.2l26-12.3l54.4-10.5L335.7,91.7z"/>
			<path class="st50" d="M149.1,104.5c0,0-5.5,72.1,12.6,90.4c0,0,6.9,7.7,6.2-13.9s15.9-55.3,30-59.2c0,0,76.8,5.7,108.5-14.9
				s41-13.4,41-13.4s-10.3,25.9,14.7,54.4c22.7,25.8,14,36.8,17.2,38.7s8-3.9,8.7-16.8c0,0,0.4-2.3,6.6-1.3
				c0,0,29.5-98.3-33.9-105.3c0,0-40-63.4-121-50.4s-82.1,62.4-112.2,63.6C127.4,76.5,128.8,92.3,149.1,104.5z"/>
			<path class="st55" d="M357.8,94c0,0,1-25.4,18-19.8s25.7,45.2,15.7,49.1C381.4,127.1,357.5,110.2,357.8,94z"/>
			<path class="st55" d="M151.3,77.6c-2.3,1.2-2.1,4.6,0.3,5.5c6.9,2.5,18.4,4.7,33.8,1.1c21.6-5.1,52.1-43.4,85.3-56.1
				c3-1.2,2.3-5.7-1-5.8c-24.3-0.7-62.5,1.7-83.9,21.4C160.9,66.6,157.1,74.5,151.3,77.6z"/>
			<path class="st56" d="M138.4,83.2c13.3,6.2,77,33.9,142.3,26.4c1.9-0.2,2.4,2.5,0.6,3c-18.7,5-51.5,9.8-93.5,0.5
				c-40.9-9.1-49.6-22.2-51.4-28C135.9,83.7,137.2,82.6,138.4,83.2z"/>
			<path class="st57" d="M354.2,383.3c0,0-20.4,90.1-64.3,90.1h64.3V383.3z"/>
			<path class="st125" d="M120.5,312.1c25.8-13.4,32.4-42.3,34-53.5c30.1,29.8,70.7,28.2,70.7,28.2s14.4,14.5,46,14.5
				s46-14.5,46-14.5c50.8,12.1,76.7,52.6,89.7,92.7c-7.9,5.6-21.6,13-41.3,15.3c-1.9-7.8-3.8-13.5-5.6-17.6c-1.3-3-5.8-2.1-5.8,1.2
				v95h-82.9h-82.9v-95v-33.1C162.9,338.3,140.1,328.7,120.5,312.1z"/>
			<path class="st4" d="M62.2,205.4C48,150.3,55,133.2,78.5,129.9c18.5-2.6,33,13.7,49,78.7c5.5,22.5,15.5,38.6,27,50
				c-1.6,11.2-8.2,40.1-34,53.5C95.7,291.1,75.9,258.6,62.2,205.4z"/>
			<path class="st54" d="M88.4,229.8c10.3,22.8,31.6,47.6,51.6,65.5c10,9,19.7,16.3,27.5,20.7c23.1,13.2,20.8,29.2,20.8,29.2
				c-25.4-7.1-48.2-16.6-67.8-33.2c-24.9-21.1-44.6-53.5-58.3-106.7c-1.3-4.9-2.3-9.5-3.3-13.8C68.9,197.7,79.4,209.9,88.4,229.8z"
				/>
			<path class="st57" d="M188.2,383.3c0,0,20.4,90.1,64.3,90.1h-64.3V383.3z"/>
		</g>
		<path class="st104" d="M243.7,226.9c0,11.5,9.3,20.8,20.8,20.8c11.5,0,20.8-9.3,20.8-20.8H243.7z"/>
	</g>
	<g>
		<g>
			<path class="st126" d="M173.4,179.7H12.3c-3.5,0-6.4-2.8-6.4-6.4v-99c0-3.5,2.8-6.4,6.4-6.4h161.1c3.5,0,6.4,2.8,6.4,6.4v99
				C179.8,176.8,176.9,179.7,173.4,179.7z"/>
			<rect x="116.2" y="109.2" class="st0" width="48.6" height="59.6"/>
			<circle class="st0" cx="25.8" cy="87.3" r="12.4"/>
			<rect x="15.1" y="109.2" class="st127" width="16.5" height="59.6"/>
			<rect x="74.9" y="109.2" class="st128" width="33.4" height="8.1"/>
			<rect x="41.5" y="76.7" class="st128" width="124.3" height="8.1"/>
			<rect x="74.9" y="126.3" class="st128" width="33.4" height="8.1"/>
			<rect x="41.5" y="143.5" class="st128" width="66.8" height="8.1"/>
			<rect x="41.5" y="160.7" class="st128" width="66.8" height="8.1"/>
			<g>
				<circle class="st129" cx="140.9" cy="134.6" r="12.3"/>
				<path class="st129" d="M140.6,149.5c-11.6,0-21,7-21,15.7h42C161.5,156.5,152.2,149.5,140.6,149.5z"/>
			</g>
		</g>
		<rect x="41.5" y="109.2" class="st21" width="29.1" height="25.4"/>
	</g>
</g>
</svg>
